<svg width="226" height="44" viewBox="0 0 226 44" fill="none" xmlns="http://www.w3.org/2000/svg" shape-rendering="crispEdges" preserveAspectRatio="none">
<rect x="45.7692" y="34.7969" width="6.53846" height="4.34961" fill="#B865B1"/>
<rect x="52.3077" y="34.7969" width="6.53846" height="4.34961" fill="#B865B1"/>
<rect x="58.8462" y="34.7969" width="6.53846" height="4.34961" fill="#B865B1"/>
<rect x="65.3846" y="34.7969" width="6.53846" height="4.34961" fill="#B865B1"/>
<rect x="71.923" y="34.7969" width="6.53846" height="4.34961" fill="#B865B1"/>
<rect x="78.4615" y="34.7969" width="6.53846" height="4.34961" fill="#B865B1"/>
<rect x="85" y="34.7969" width="6.53846" height="4.34961" fill="#B865B1"/>
<rect x="91.5385" y="34.7969" width="6.53846" height="4.34961" fill="#B865B1"/>
<rect x="98.0769" y="34.7969" width="6.53846" height="4.34961" fill="#B865B1"/>
<rect x="104.615" y="34.7969" width="6.53846" height="4.34961" fill="#B865B1"/>
<rect x="111.154" y="34.7969" width="6.53846" height="4.34961" fill="#B865B1"/>
<rect x="117.692" y="34.7969" width="6.53846" height="4.34961" fill="#B865B1"/>
<rect x="124.231" y="34.7969" width="6.53846" height="4.34961" fill="#B865B1"/>
<rect x="130.769" y="34.7969" width="6.53846" height="4.34961" fill="#B865B1"/>
<rect x="137.308" y="34.7969" width="6.53846" height="4.34961" fill="#B865B1"/>
<rect x="143.846" y="34.7969" width="6.53846" height="4.34961" fill="#B865B1"/>
<rect x="150.385" y="34.7969" width="6.53846" height="4.34961" fill="#B865B1"/>
<rect x="156" y="34.7969" width="6.53846" height="4.34961" fill="#B865B1"/>
<rect x="168" y="34.7969" width="6.53846" height="4.34961" fill="#B865B1"/>
<rect x="180" y="34.7969" width="6.53846" height="4.34961" fill="#B865B1"/>
<rect x="196" y="34.7969" width="6.53846" height="4.34961" fill="#B865B1"/>
<rect x="162" y="34.7969" width="6.53846" height="4.34961" fill="#B865B1"/>
<rect x="174" y="34.7969" width="6.53846" height="4.34961" fill="#B865B1"/>
<rect x="186" y="34.7969" width="6.53846" height="4.34961" fill="#B865B1"/>
<rect x="202" y="34.7969" width="6.53846" height="4.34961" fill="#B865B1"/>
<rect x="190" y="34.7969" width="6.53846" height="4.34961" fill="#B865B1"/>
<rect x="206" y="34.7969" width="6.53846" height="4.34961" fill="#B865B1"/>
<rect x="212" y="30.4473" width="6.53846" height="4.34961" fill="#B865B1"/>
<rect x="218.538" y="26.0977" width="6.53846" height="4.34961" fill="#B865B1"/>
<rect x="218.538" y="21.7481" width="6.53846" height="4.34961" fill="#B865B1"/>
<rect x="218.538" y="17.3985" width="6.53846" height="4.34961" fill="#B865B1"/>
<rect x="218.538" y="13.0488" width="6.53846" height="4.34961" fill="#B865B1"/>
<rect x="218.538" y="8.69922" width="6.53846" height="4.34961" fill="#B865B1"/>
<rect x="212" y="4.34961" width="6.53846" height="4.34961" fill="#B865B1"/>
<rect x="6.53845" y="8.69922" width="6.53846" height="4.34961" fill="#B865B1"/>
<path d="M6.53845 13.0488H13.0769V17.3985H6.53845V13.0488Z" fill="#B865B1"/>
<path d="M6.53845 17.3985H13.0769V21.7481H6.53845V17.3985Z" fill="#B865B1"/>
<path d="M6.53845 21.7481H13.0769V26.0977H6.53845V21.7481Z" fill="#B865B1"/>
<path d="M6.53845 26.0977H13.0769V30.4473H6.53845V26.0977Z" fill="#B865B1"/>
<rect x="13.0769" y="4.34961" width="6.53846" height="4.34961" fill="#B865B1"/>
<path d="M19.6154 0H26.1538V4.34961H19.6154V0Z" fill="#B865B1"/>
<rect x="26.1538" width="6.53846" height="4.34961" fill="#B865B1"/>
<rect x="26.1538" y="34.7969" width="6.53846" height="4.34961" fill="#B865B1"/>
<rect x="32.6923" y="34.7969" width="6.53846" height="4.34961" fill="#B865B1"/>
<rect x="19.6154" y="34.7969" width="6.53846" height="4.34961" fill="#B865B1"/>
<rect x="13.0769" y="30.4473" width="6.53846" height="4.34961" fill="#B865B1"/>
<rect x="39.2308" y="34.7969" width="6.53846" height="4.34961" fill="#B865B1"/>
<rect x="45.7692" width="6.53846" height="4.34961" fill="#B865B1"/>
<rect x="52.3077" width="6.53846" height="4.34961" fill="#B865B1"/>
<rect x="58.8462" width="6.53846" height="4.34961" fill="#B865B1"/>
<rect x="65.3846" width="6.53846" height="4.34961" fill="#B865B1"/>
<rect x="71.923" width="6.53846" height="4.34961" fill="#B865B1"/>
<rect x="78.4615" width="6.53846" height="4.34961" fill="#B865B1"/>
<rect x="85" width="6.53846" height="4.34961" fill="#B865B1"/>
<rect x="91.5385" width="6.53846" height="4.34961" fill="#B865B1"/>
<rect x="98.0769" width="6.53846" height="4.34961" fill="#B865B1"/>
<rect x="104.615" width="6.53846" height="4.34961" fill="#B865B1"/>
<rect x="111.154" width="6.53846" height="4.34961" fill="#B865B1"/>
<rect x="117.692" width="6.53846" height="4.34961" fill="#B865B1"/>
<rect x="124.231" width="6.53846" height="4.34961" fill="#B865B1"/>
<rect x="130.769" width="6.53846" height="4.34961" fill="#B865B1"/>
<rect x="137.308" width="6.53846" height="4.34961" fill="#B865B1"/>
<rect x="143.846" width="6.53846" height="4.34961" fill="#B865B1"/>
<rect x="150.385" width="6.53846" height="4.34961" fill="#B865B1"/>
<rect x="156" width="6.53846" height="4.34961" fill="#B865B1"/>
<rect x="168" width="6.53846" height="4.34961" fill="#B865B1"/>
<rect x="180" width="6.53846" height="4.34961" fill="#B865B1"/>
<rect x="196" width="6.53846" height="4.34961" fill="#B865B1"/>
<rect x="162" width="6.53846" height="4.34961" fill="#B865B1"/>
<rect x="174" width="6.53846" height="4.34961" fill="#B865B1"/>
<rect x="186" width="6.53846" height="4.34961" fill="#B865B1"/>
<rect x="202" width="6.53846" height="4.34961" fill="#B865B1"/>
<rect x="190" width="6.53846" height="4.34961" fill="#B865B1"/>
<rect x="206" width="6.53846" height="4.34961" fill="#B865B1"/>
<rect x="39.2308" width="6.53846" height="4.34961" fill="#B865B1"/>
<rect x="32.6923" width="6.53846" height="4.34961" fill="#B865B1"/>
<rect x="32.6923" y="13.0488" width="6.53846" height="4.34961" fill="white"/>
<rect x="39.2308" y="13.0488" width="6.53846" height="4.34961" fill="white"/>
<rect x="39.2308" y="8.69922" width="6.53846" height="4.34961" fill="white"/>
<rect x="32.6923" y="8.69922" width="6.53846" height="4.34961" fill="white"/>
<rect x="85" y="13.0488" width="6.53846" height="4.34961" fill="white"/>
<rect x="85" y="17.3985" width="6.53846" height="4.34961" fill="white"/>
<rect x="85" y="26.0977" width="6.53846" height="4.34961" fill="white"/>
<rect x="19.6154" y="4.34961" width="6.53846" height="4.34961" fill="white"/>
<rect x="19.6154" y="30.4473" width="6.53846" height="4.34961" fill="white"/>
<rect x="19.6154" y="26.0977" width="6.53846" height="4.34961" fill="white"/>
<rect x="19.6154" y="21.7481" width="6.53846" height="4.34961" fill="white"/>
<rect x="26.1538" y="21.7481" width="6.53846" height="4.34961" fill="white"/>
<rect x="19.6154" y="17.3985" width="6.53846" height="4.34961" fill="white"/>
<rect x="19.6154" y="13.0488" width="6.53846" height="4.34961" fill="white"/>
<rect x="19.6154" y="8.69922" width="6.53846" height="4.34961" fill="white"/>
<rect x="13.0769" y="26.0977" width="6.53846" height="4.34961" fill="white"/>
<rect x="13.0769" y="21.7481" width="6.53846" height="4.34961" fill="white"/>
<rect x="13.0769" y="17.3985" width="6.53846" height="4.34961" fill="white"/>
<rect x="13.0769" y="13.0488" width="6.53846" height="4.34961" fill="white"/>
<rect x="26.1538" y="8.69922" width="6.53846" height="4.34961" fill="white"/>
<rect x="26.1538" y="13.0488" width="6.53846" height="4.34961" fill="white"/>
<rect x="26.1538" y="17.3985" width="6.53846" height="4.34961" fill="white"/>
<rect x="32.6923" y="17.3985" width="6.53846" height="4.34961" fill="white"/>
<rect x="39.2308" y="17.3985" width="6.53846" height="4.34961" fill="white"/>
<rect x="39.2308" y="21.7481" width="6.53846" height="4.34961" fill="white"/>
<rect x="39.2308" y="26.0977" width="6.53846" height="4.34961" fill="white"/>
<rect x="32.6923" y="26.0977" width="6.53846" height="4.34961" fill="white"/>
<rect x="26.1538" y="26.0977" width="6.53846" height="4.34961" fill="white"/>
<rect x="13.0769" y="8.69922" width="6.53846" height="4.34961" fill="white"/>
<rect x="150.385" y="26.0977" width="6.53846" height="4.34961" fill="white"/>
<rect x="156" y="26.0977" width="6.53846" height="4.34961" fill="white"/>
<rect x="168" y="26.0977" width="6.53846" height="4.34961" fill="white"/>
<rect x="180" y="26.0977" width="6.53846" height="4.34961" fill="white"/>
<rect x="196" y="26.0977" width="6.53846" height="4.34961" fill="white"/>
<rect x="162" y="26.0977" width="6.53846" height="4.34961" fill="white"/>
<rect x="174" y="26.0977" width="6.53846" height="4.34961" fill="white"/>
<rect x="186" y="26.0977" width="6.53846" height="4.34961" fill="white"/>
<rect x="202" y="26.0977" width="6.53846" height="4.34961" fill="white"/>
<rect x="190" y="26.0977" width="6.53846" height="4.34961" fill="white"/>
<rect x="206" y="26.0977" width="6.53846" height="4.34961" fill="white"/>
<rect x="150.385" y="21.7481" width="6.53846" height="4.34961" fill="white"/>
<rect x="156" y="21.7481" width="6.53846" height="4.34961" fill="white"/>
<rect x="168" y="21.7481" width="6.53846" height="4.34961" fill="white"/>
<rect x="180" y="21.7481" width="6.53846" height="4.34961" fill="white"/>
<rect x="196" y="21.7481" width="6.53846" height="4.34961" fill="white"/>
<rect x="162" y="21.7481" width="6.53846" height="4.34961" fill="white"/>
<rect x="174" y="21.7481" width="6.53846" height="4.34961" fill="white"/>
<rect x="186" y="21.7481" width="6.53846" height="4.34961" fill="white"/>
<rect x="202" y="21.7481" width="6.53846" height="4.34961" fill="white"/>
<rect x="190" y="21.7481" width="6.53846" height="4.34961" fill="white"/>
<rect x="206" y="21.7481" width="6.53846" height="4.34961" fill="white"/>
<rect x="150.385" y="17.3985" width="6.53846" height="4.34961" fill="white"/>
<rect x="156" y="17.3985" width="6.53846" height="4.34961" fill="white"/>
<rect x="168" y="17.3985" width="6.53846" height="4.34961" fill="white"/>
<rect x="180" y="17.3985" width="6.53846" height="4.34961" fill="white"/>
<rect x="196" y="17.3985" width="6.53846" height="4.34961" fill="white"/>
<rect x="162" y="17.3985" width="6.53846" height="4.34961" fill="white"/>
<rect x="174" y="17.3985" width="6.53846" height="4.34961" fill="white"/>
<rect x="186" y="17.3985" width="6.53846" height="4.34961" fill="white"/>
<rect x="202" y="17.3985" width="6.53846" height="4.34961" fill="white"/>
<rect x="190" y="17.3985" width="6.53846" height="4.34961" fill="white"/>
<rect x="206" y="17.3985" width="6.53846" height="4.34961" fill="white"/>
<rect x="150.385" y="13.0488" width="6.53846" height="4.34961" fill="white"/>
<rect x="156" y="13.0488" width="6.53846" height="4.34961" fill="white"/>
<rect x="168" y="13.0488" width="6.53846" height="4.34961" fill="white"/>
<rect x="180" y="13.0488" width="6.53846" height="4.34961" fill="white"/>
<rect x="196" y="13.0488" width="6.53846" height="4.34961" fill="white"/>
<rect x="162" y="13.0488" width="6.53846" height="4.34961" fill="white"/>
<rect x="174" y="13.0488" width="6.53846" height="4.34961" fill="white"/>
<rect x="186" y="13.0488" width="6.53846" height="4.34961" fill="white"/>
<rect x="202" y="13.0488" width="6.53846" height="4.34961" fill="white"/>
<rect x="190" y="13.0488" width="6.53846" height="4.34961" fill="white"/>
<rect x="206" y="13.0488" width="6.53846" height="4.34961" fill="white"/>
<rect x="143.846" y="26.0977" width="6.53846" height="4.34961" fill="white"/>
<rect x="143.846" y="21.7481" width="6.53846" height="4.34961" fill="white"/>
<rect x="137.308" y="17.3985" width="6.53846" height="4.34961" fill="white"/>
<rect x="137.308" y="21.7481" width="6.53846" height="4.34961" fill="white"/>
<rect x="143.846" y="17.3985" width="6.53846" height="4.34961" fill="white"/>
<rect x="143.846" y="8.69922" width="6.53846" height="4.34961" fill="white"/>
<rect x="143.846" y="13.0488" width="6.53846" height="4.34961" fill="white"/>
<rect x="130.769" y="26.0977" width="6.53846" height="4.34961" fill="white"/>
<rect x="130.769" y="21.7481" width="6.53846" height="4.34961" fill="white"/>
<rect x="137.308" y="26.0977" width="6.53846" height="4.34961" fill="white"/>
<rect x="130.769" y="17.3985" width="6.53846" height="4.34961" fill="white"/>
<rect x="130.769" y="13.0488" width="6.53846" height="4.34961" fill="white"/>
<rect x="137.308" y="8.69922" width="6.53846" height="4.34961" fill="white"/>
<rect x="137.308" y="13.0488" width="6.53846" height="4.34961" fill="white"/>
<rect x="65.3846" y="26.0977" width="6.53846" height="4.34961" fill="white"/>
<rect x="58.8462" y="26.0977" width="6.53846" height="4.34961" fill="white"/>
<rect x="65.3846" y="21.7481" width="6.53846" height="4.34961" fill="white"/>
<rect x="58.8462" y="21.7481" width="6.53846" height="4.34961" fill="white"/>
<rect x="65.3846" y="17.3985" width="6.53846" height="4.34961" fill="white"/>
<rect x="58.8462" y="17.3985" width="6.53846" height="4.34961" fill="white"/>
<rect x="65.3846" y="13.0488" width="6.53846" height="4.34961" fill="white"/>
<rect x="58.8462" y="13.0488" width="6.53846" height="4.34961" fill="white"/>
<rect x="65.3846" y="8.69922" width="6.53846" height="4.34961" fill="white"/>
<rect x="52.3077" y="26.0977" width="6.53846" height="4.34961" fill="white"/>
<rect x="52.3077" y="21.7481" width="6.53846" height="4.34961" fill="white"/>
<rect x="52.3077" y="17.3985" width="6.53846" height="4.34961" fill="white"/>
<rect x="52.3077" y="13.0488" width="6.53846" height="4.34961" fill="white"/>
<rect x="58.8462" y="8.69922" width="6.53846" height="4.34961" fill="white"/>
<rect x="52.3077" y="8.69922" width="6.53846" height="4.34961" fill="white"/>
<rect x="150.385" y="8.69922" width="6.53846" height="4.34961" fill="white"/>
<rect x="156" y="8.69922" width="6.53846" height="4.34961" fill="white"/>
<rect x="168" y="8.69922" width="6.53846" height="4.34961" fill="white"/>
<rect x="180" y="8.69922" width="6.53846" height="4.34961" fill="white"/>
<rect x="196" y="8.69922" width="6.53846" height="4.34961" fill="white"/>
<rect x="162" y="8.69922" width="6.53846" height="4.34961" fill="white"/>
<rect x="174" y="8.69922" width="6.53846" height="4.34961" fill="white"/>
<rect x="186" y="8.69922" width="6.53846" height="4.34961" fill="white"/>
<rect x="202" y="8.69922" width="6.53846" height="4.34961" fill="white"/>
<rect x="190" y="8.69922" width="6.53846" height="4.34961" fill="white"/>
<rect x="206" y="8.69922" width="6.53846" height="4.34961" fill="white"/>
<rect x="45.7692" y="26.0977" width="6.53846" height="4.34961" fill="white"/>
<rect x="45.7692" y="21.7481" width="6.53846" height="4.34961" fill="white"/>
<rect x="45.7692" y="17.3985" width="6.53846" height="4.34961" fill="white"/>
<rect x="45.7692" y="13.0488" width="6.53846" height="4.34961" fill="white"/>
<rect x="45.7692" y="8.69922" width="6.53846" height="4.34961" fill="white"/>
<rect x="71.923" y="26.0977" width="6.53846" height="4.34961" fill="white"/>
<rect x="78.4615" y="26.0977" width="6.53846" height="4.34961" fill="white"/>
<rect x="71.923" y="21.7481" width="6.53846" height="4.34961" fill="white"/>
<rect x="78.4615" y="21.7481" width="6.53846" height="4.34961" fill="white"/>
<rect x="71.923" y="17.3985" width="6.53846" height="4.34961" fill="white"/>
<rect x="78.4615" y="17.3985" width="6.53846" height="4.34961" fill="white"/>
<rect x="71.923" y="13.0488" width="6.53846" height="4.34961" fill="white"/>
<rect x="78.4615" y="13.0488" width="6.53846" height="4.34961" fill="white"/>
<rect x="71.923" y="8.69922" width="6.53846" height="4.34961" fill="white"/>
<rect x="85" y="8.69922" width="6.53846" height="4.34961" fill="white"/>
<rect x="91.5385" y="8.69922" width="6.53846" height="4.34961" fill="white"/>
<rect x="91.5385" y="13.0488" width="6.53846" height="4.34961" fill="white"/>
<rect x="91.5385" y="17.3985" width="6.53846" height="4.34961" fill="white"/>
<rect x="91.5385" y="21.7481" width="6.53846" height="4.34961" fill="white"/>
<rect x="117.692" y="26.0977" width="6.53846" height="4.34961" fill="white"/>
<rect x="91.5385" y="26.0977" width="6.53846" height="4.34961" fill="white"/>
<rect x="85" y="21.7481" width="6.53846" height="4.34961" fill="white"/>
<rect x="78.4615" y="8.69922" width="6.53846" height="4.34961" fill="white"/>
<rect x="98.0769" y="26.0977" width="6.53846" height="4.34961" fill="white"/>
<rect x="98.0769" y="21.7481" width="6.53846" height="4.34961" fill="white"/>
<rect x="98.0769" y="17.3985" width="6.53846" height="4.34961" fill="white"/>
<rect x="98.0769" y="13.0488" width="6.53846" height="4.34961" fill="white"/>
<rect x="104.615" y="13.0488" width="6.53846" height="4.34961" fill="white"/>
<rect x="104.615" y="17.3985" width="6.53846" height="4.34961" fill="white"/>
<rect x="104.615" y="21.7481" width="6.53846" height="4.34961" fill="white"/>
<rect x="104.615" y="26.0977" width="6.53846" height="4.34961" fill="white"/>
<rect x="104.615" y="8.69922" width="6.53846" height="4.34961" fill="white"/>
<rect x="111.154" y="8.69922" width="6.53846" height="4.34961" fill="white"/>
<rect x="117.692" y="8.69922" width="6.53846" height="4.34961" fill="white"/>
<rect x="117.692" y="13.0488" width="6.53846" height="4.34961" fill="white"/>
<rect x="117.692" y="21.7481" width="6.53846" height="4.34961" fill="white"/>
<rect x="130.769" y="8.69922" width="6.53846" height="4.34961" fill="white"/>
<rect x="111.154" y="17.3985" width="6.53846" height="4.34961" fill="white"/>
<rect x="98.0769" y="8.69922" width="6.53846" height="4.34961" fill="white"/>
<rect x="111.154" y="13.0488" width="6.53846" height="4.34961" fill="white"/>
<rect x="111.154" y="21.7481" width="6.53846" height="4.34961" fill="white"/>
<rect x="111.154" y="26.0977" width="6.53846" height="4.34961" fill="white"/>
<rect x="124.231" y="26.0977" width="6.53846" height="4.34961" fill="white"/>
<rect x="117.692" y="17.3985" width="6.53846" height="4.34961" fill="white"/>
<rect x="124.231" y="17.3985" width="6.53846" height="4.34961" fill="white"/>
<rect x="124.231" y="21.7481" width="6.53846" height="4.34961" fill="white"/>
<rect x="124.231" y="13.0488" width="6.53846" height="4.34961" fill="white"/>
<rect x="124.231" y="8.69922" width="6.53846" height="4.34961" fill="white"/>
<rect x="212" y="26.0977" width="6.53846" height="4.34961" fill="white"/>
<rect x="212" y="21.7481" width="6.53846" height="4.34961" fill="white"/>
<rect x="212" y="17.3985" width="6.53846" height="4.34961" fill="white"/>
<rect x="212" y="13.0488" width="6.53846" height="4.34961" fill="white"/>
<rect x="212" y="8.69922" width="6.53846" height="4.34961" fill="white"/>
<rect x="32.6923" y="21.7481" width="6.53846" height="4.34961" fill="white"/>
<rect x="26.1538" y="4.34961" width="6.53846" height="4.34961" fill="white"/>
<rect x="32.6923" y="4.34961" width="6.53846" height="4.34961" fill="white"/>
<rect x="39.2308" y="4.34961" width="6.53846" height="4.34961" fill="white"/>
<rect x="45.7692" y="4.34961" width="6.53846" height="4.34961" fill="white"/>
<rect x="52.3077" y="4.34961" width="6.53846" height="4.34961" fill="white"/>
<rect x="58.8462" y="4.34961" width="6.53846" height="4.34961" fill="white"/>
<rect x="65.3846" y="4.34961" width="6.53846" height="4.34961" fill="white"/>
<rect x="71.923" y="4.34961" width="6.53846" height="4.34961" fill="white"/>
<rect x="78.4615" y="4.34961" width="6.53846" height="4.34961" fill="white"/>
<rect x="85" y="4.34961" width="6.53846" height="4.34961" fill="white"/>
<rect x="91.5385" y="4.34961" width="6.53846" height="4.34961" fill="white"/>
<rect x="91.5385" y="4.34961" width="6.53846" height="4.34961" fill="white"/>
<rect x="98.0769" y="4.34961" width="6.53846" height="4.34961" fill="white"/>
<rect x="104.615" y="4.34961" width="6.53846" height="4.34961" fill="white"/>
<rect x="111.154" y="4.34961" width="6.53846" height="4.34961" fill="white"/>
<rect x="117.692" y="4.34961" width="6.53846" height="4.34961" fill="white"/>
<rect x="124.231" y="4.34961" width="6.53846" height="4.34961" fill="white"/>
<rect x="130.769" y="4.34961" width="6.53846" height="4.34961" fill="white"/>
<rect x="137.308" y="4.34961" width="6.53846" height="4.34961" fill="white"/>
<rect x="143.846" y="4.34961" width="6.53846" height="4.34961" fill="white"/>
<rect x="150.385" y="4.34961" width="6.53846" height="4.34961" fill="white"/>
<rect x="156" y="4.34961" width="6.53846" height="4.34961" fill="white"/>
<rect x="168" y="4.34961" width="6.53846" height="4.34961" fill="white"/>
<rect x="180" y="4.34961" width="6.53846" height="4.34961" fill="white"/>
<rect x="196" y="4.34961" width="6.53846" height="4.34961" fill="white"/>
<rect x="162" y="4.34961" width="6.53846" height="4.34961" fill="white"/>
<rect x="174" y="4.34961" width="6.53846" height="4.34961" fill="white"/>
<rect x="186" y="4.34961" width="6.53846" height="4.34961" fill="white"/>
<rect x="202" y="4.34961" width="6.53846" height="4.34961" fill="white"/>
<rect x="190" y="4.34961" width="6.53846" height="4.34961" fill="white"/>
<rect x="206" y="4.34961" width="6.53846" height="4.34961" fill="white"/>
<rect x="26.1538" y="30.4473" width="6.53846" height="4.34961" fill="white"/>
<rect x="32.6923" y="30.4473" width="6.53846" height="4.34961" fill="white"/>
<rect x="39.2308" y="30.4473" width="6.53846" height="4.34961" fill="white"/>
<rect x="45.7692" y="30.4473" width="6.53846" height="4.34961" fill="white"/>
<rect x="52.3077" y="30.4473" width="6.53846" height="4.34961" fill="white"/>
<rect x="58.8462" y="30.4473" width="6.53846" height="4.34961" fill="white"/>
<rect x="65.3846" y="30.4473" width="6.53846" height="4.34961" fill="white"/>
<rect x="71.923" y="30.4473" width="6.53846" height="4.34961" fill="white"/>
<rect x="78.4615" y="30.4473" width="6.53846" height="4.34961" fill="white"/>
<rect x="85" y="30.4473" width="6.53846" height="4.34961" fill="white"/>
<rect x="91.5385" y="30.4473" width="6.53846" height="4.34961" fill="white"/>
<rect x="91.5385" y="30.4473" width="6.53846" height="4.34961" fill="white"/>
<rect x="98.0769" y="30.4473" width="6.53846" height="4.34961" fill="white"/>
<rect x="104.615" y="30.4473" width="6.53846" height="4.34961" fill="white"/>
<rect x="111.154" y="30.4473" width="6.53846" height="4.34961" fill="white"/>
<rect x="117.692" y="30.4473" width="6.53846" height="4.34961" fill="white"/>
<rect x="124.231" y="30.4473" width="6.53846" height="4.34961" fill="white"/>
<rect x="130.769" y="30.4473" width="6.53846" height="4.34961" fill="white"/>
<rect x="137.308" y="30.4473" width="6.53846" height="4.34961" fill="white"/>
<rect x="143.846" y="30.4473" width="6.53846" height="4.34961" fill="white"/>
<rect x="150.385" y="30.4473" width="6.53846" height="4.34961" fill="white"/>
<rect x="156" y="30.4473" width="6.53846" height="4.34961" fill="white"/>
<rect x="168" y="30.4473" width="6.53846" height="4.34961" fill="white"/>
<rect x="180" y="30.4473" width="6.53846" height="4.34961" fill="white"/>
<rect x="196" y="30.4473" width="6.53846" height="4.34961" fill="white"/>
<rect x="162" y="30.4473" width="6.53846" height="4.34961" fill="white"/>
<rect x="174" y="30.4473" width="6.53846" height="4.34961" fill="white"/>
<rect x="186" y="30.4473" width="6.53846" height="4.34961" fill="white"/>
<rect x="202" y="30.4473" width="6.53846" height="4.34961" fill="white"/>
<rect x="190" y="30.4473" width="6.53846" height="4.34961" fill="white"/>
<rect x="206" y="30.4473" width="6.53846" height="4.34961" fill="white"/>
<rect x="6.53845" y="4.63959" width="6.53846" height="4.34961" fill="#530078"/>
<rect y="8.9892" width="6.53846" height="4.34961" fill="#530078"/>
<rect y="13.3388" width="6.53846" height="4.34961" fill="#530078"/>
<rect y="17.6884" width="6.53846" height="4.34961" fill="#530078"/>
<rect y="22.038" width="6.53846" height="4.34961" fill="#530078"/>
<rect y="26.0977" width="6.53846" height="4.34961" fill="#530078"/>
<rect x="6.53845" y="30.4473" width="6.53846" height="4.34961" fill="#530078"/>
<rect x="13.0769" y="34.7969" width="6.53846" height="4.34961" fill="#530078"/>
<rect x="19.6154" y="39.1465" width="6.53846" height="4.34961" fill="#530078"/>
<rect x="13.0769" y="39.1465" width="6.53846" height="4.34961" fill="#530078"/>
<rect x="6.53845" y="34.7969" width="6.53846" height="4.34961" fill="#530078"/>
<rect y="30.4473" width="6.53846" height="4.34961" fill="#530078"/>
<rect x="26.1538" y="39.1465" width="6.53846" height="4.34961" fill="#530078"/>
<rect x="32.6923" y="39.1465" width="6.53846" height="4.34961" fill="#530078"/>
<rect x="39.2308" y="39.1465" width="6.53846" height="4.34961" fill="#530078"/>
<rect x="45.7692" y="39.1465" width="6.53846" height="4.34961" fill="#530078"/>
<rect x="52.3077" y="39.1465" width="6.53846" height="4.34961" fill="#530078"/>
<rect x="58.8462" y="39.1465" width="6.53846" height="4.34961" fill="#530078"/>
<rect x="65.3846" y="39.1465" width="6.53846" height="4.34961" fill="#530078"/>
<rect x="71.923" y="39.1465" width="6.53846" height="4.34961" fill="#530078"/>
<rect x="78.4615" y="39.1465" width="6.53846" height="4.34961" fill="#530078"/>
<rect x="85" y="39.1465" width="6.53846" height="4.34961" fill="#530078"/>
<rect x="91.5385" y="39.1465" width="6.53846" height="4.34961" fill="#530078"/>
<rect x="98.0769" y="39.1465" width="6.53846" height="4.34961" fill="#530078"/>
<rect x="104.615" y="39.1465" width="6.53846" height="4.34961" fill="#530078"/>
<rect x="111.154" y="39.1465" width="6.53846" height="4.34961" fill="#530078"/>
<rect x="117.692" y="39.1465" width="6.53846" height="4.34961" fill="#530078"/>
<rect x="124.231" y="39.1465" width="6.53846" height="4.34961" fill="#530078"/>
<rect x="130.769" y="39.1465" width="6.53846" height="4.34961" fill="#530078"/>
<rect x="137.308" y="39.1465" width="6.53846" height="4.34961" fill="#530078"/>
<rect x="143.846" y="39.1465" width="6.53846" height="4.34961" fill="#530078"/>
<rect x="150.385" y="39.1465" width="6.53846" height="4.34961" fill="#530078"/>
<rect x="156" y="39.1465" width="6.53846" height="4.34961" fill="#530078"/>
<rect x="168" y="39.1465" width="6.53846" height="4.34961" fill="#530078"/>
<rect x="180" y="39.1465" width="6.53846" height="4.34961" fill="#530078"/>
<rect x="196" y="39.1465" width="6.53846" height="4.34961" fill="#530078"/>
<rect x="162" y="39.1465" width="6.53846" height="4.34961" fill="#530078"/>
<rect x="174" y="39.1465" width="6.53846" height="4.34961" fill="#530078"/>
<rect x="186" y="39.1465" width="6.53846" height="4.34961" fill="#530078"/>
<rect x="202" y="39.1465" width="6.53846" height="4.34961" fill="#530078"/>
<rect x="190" y="39.1465" width="6.53846" height="4.34961" fill="#530078"/>
<rect x="206" y="39.1465" width="6.53846" height="4.34961" fill="#530078"/>
<rect x="212" y="34.7969" width="6.53846" height="4.34961" fill="#530078"/>
<rect x="218.538" y="30.4473" width="6.53846" height="4.34961" fill="#530078"/>
<rect x="13.0769" y="0.289978" width="6.53846" height="4.34961" fill="#530078"/>
</svg>
