<svg width="132" height="79" viewBox="0 0 132 79" fill="none" xmlns="http://www.w3.org/2000/svg" shape-rendering="crispEdges" preserveAspectRatio="none">
<path d="M21.4309 0H17.1442V3.03884H21.4309V0Z" fill="#2B2B2B"/>
<path d="M25.7175 0H21.4309V3.03884H25.7175V0Z" fill="#2B2B2B"/>
<path d="M30.003 0H25.7163V3.03884H30.003V0Z" fill="#2B2B2B"/>
<path d="M34.2896 0H30.003V3.03884H34.2896V0Z" fill="#2B2B2B"/>
<path d="M38.5751 0H34.2885V3.03884H38.5751V0Z" fill="#2B2B2B"/>
<path d="M42.8617 0H38.5751V3.03884H42.8617V0Z" fill="#2B2B2B"/>
<path d="M47.1472 0H42.8606V3.03884H47.1472V0Z" fill="#2B2B2B"/>
<path d="M51.4338 0H47.1472V3.03884H51.4338V0Z" fill="#2B2B2B"/>
<path d="M55.7193 0H51.4327V3.03884H55.7193V0Z" fill="#2B2B2B"/>
<path d="M60.006 0H55.7193V3.03884H60.006V0Z" fill="#2B2B2B"/>
<path d="M64.2914 0H60.0048V3.03884H64.2914V0Z" fill="#2B2B2B"/>
<path d="M68.5781 0H64.2914V3.03884H68.5781V0Z" fill="#2B2B2B"/>
<path d="M80.8556 0H76.5689V3.03884H80.8556V0Z" fill="#2B2B2B"/>
<path d="M72.8635 0H68.5769V3.03884H72.8635V0Z" fill="#2B2B2B"/>
<path d="M85.141 0H80.8544V3.03884H85.141V0Z" fill="#2B2B2B"/>
<path d="M77.1502 0H72.8636V3.03884H77.1502V0Z" fill="#2B2B2B"/>
<path d="M89.4277 0H85.1411V3.03884H89.4277V0Z" fill="#2B2B2B"/>
<path d="M17.1454 3.03882H12.8588V6.07766H17.1454V3.03882Z" fill="#2B2B2B"/>
<path d="M21.4309 3.03882H17.1442V6.07766H21.4309V3.03882Z" fill="#F5E982"/>
<path d="M25.7175 3.03882H21.4309V6.07766H25.7175V3.03882Z" fill="#F5E982"/>
<path d="M30.003 3.03882H25.7163V6.07766H30.003V3.03882Z" fill="#F5E982"/>
<path d="M34.2896 3.03882H30.003V6.07766H34.2896V3.03882Z" fill="#F5E982"/>
<path d="M38.5751 3.03882H34.2885V6.07766H38.5751V3.03882Z" fill="#F5E982"/>
<path d="M42.8617 3.03882H38.5751V6.07766H42.8617V3.03882Z" fill="#F5E982"/>
<path d="M47.1472 3.03882H42.8606V6.07766H47.1472V3.03882Z" fill="#F5E982"/>
<path d="M51.4338 3.03882H47.1472V6.07766H51.4338V3.03882Z" fill="#F5E982"/>
<path d="M55.7193 3.03882H51.4327V6.07766H55.7193V3.03882Z" fill="#F5E982"/>
<path d="M60.006 3.03882H55.7193V6.07766H60.006V3.03882Z" fill="#F5E982"/>
<path d="M64.2914 3.03882H60.0048V6.07766H64.2914V3.03882Z" fill="#F5E982"/>
<path d="M68.5781 3.03888H64.2914V6.07772H68.5781V3.03888Z" fill="#F5E982"/>
<path d="M80.8556 3.03888H76.5689V6.07772H80.8556V3.03888Z" fill="#F5E982"/>
<path d="M72.8635 3.03888H68.5769V6.07772H72.8635V3.03888Z" fill="#F5E982"/>
<path d="M85.141 3.03888H80.8544V6.07772H85.141V3.03888Z" fill="#F5E982"/>
<path d="M77.1502 3.03888H72.8636V6.07772H77.1502V3.03888Z" fill="#F5E982"/>
<path d="M89.4277 3.03888H85.1411V6.07772H89.4277V3.03888Z" fill="#F5E982"/>
<path d="M12.8588 6.07684H8.57211V9.11569H12.8588V6.07684Z" fill="#2B2B2B"/>
<path d="M17.1454 6.07684H12.8588V9.11569H17.1454V6.07684Z" fill="#F5E982"/>
<path d="M21.4309 6.07684H17.1442V9.11569H21.4309V6.07684Z" fill="#FFF9D7"/>
<path d="M25.7175 6.07684H21.4309V9.11569H25.7175V6.07684Z" fill="#FFF9D7"/>
<path d="M30.003 6.07684H25.7163V9.11569H30.003V6.07684Z" fill="#FFF9D7"/>
<path d="M34.2896 6.07684H30.003V9.11569H34.2896V6.07684Z" fill="#FFF9D7"/>
<path d="M38.5751 6.07684H34.2885V9.11569H38.5751V6.07684Z" fill="#FFF9D7"/>
<path d="M42.8617 6.07684H38.5751V9.11569H42.8617V6.07684Z" fill="#FFF9D7"/>
<path d="M47.1472 6.07684H42.8606V9.11569H47.1472V6.07684Z" fill="#FFF9D7"/>
<path d="M51.4338 6.07684H47.1472V9.11569H51.4338V6.07684Z" fill="#FFF9D7"/>
<path d="M55.7193 6.07684H51.4327V9.11569H55.7193V6.07684Z" fill="#FFF9D7"/>
<path d="M60.006 6.07684H55.7193V9.11569H60.006V6.07684Z" fill="#FFF9D7"/>
<path d="M64.2914 6.07684H60.0048V9.11569H64.2914V6.07684Z" fill="#FFF9D7"/>
<path d="M68.5781 6.07684H64.2914V9.11569H68.5781V6.07684Z" fill="#FFF9D7"/>
<path d="M80.8556 6.07684H76.5689V9.11569H80.8556V6.07684Z" fill="#FFF9D7"/>
<path d="M72.8635 6.07684H68.5769V9.11569H72.8635V6.07684Z" fill="#FFF9D7"/>
<path d="M85.141 6.07684H80.8544V9.11569H85.141V6.07684Z" fill="#FFF9D7"/>
<path d="M77.1502 6.07684H72.8636V9.11569H77.1502V6.07684Z" fill="#FFF9D7"/>
<path d="M89.4277 6.07684H85.1411V9.11569H89.4277V6.07684Z" fill="#FFF9D7"/>
<path d="M12.8588 9.11572H8.57211V12.1546H12.8588V9.11572Z" fill="#2B2B2B"/>
<path d="M17.1454 9.11572H12.8588V12.1546H17.1454V9.11572Z" fill="#FFF9D7"/>
<path d="M21.4309 9.11572H17.1442V12.1546H21.4309V9.11572Z" fill="#FFF9D7"/>
<path d="M25.7175 9.11572H21.4309V12.1546H25.7175V9.11572Z" fill="#FFF9D7"/>
<path d="M30.003 9.11572H25.7163V12.1546H30.003V9.11572Z" fill="#FFF9D7"/>
<path d="M34.2896 9.11572H30.003V12.1546H34.2896V9.11572Z" fill="#FFF9D7"/>
<path d="M38.5751 9.11572H34.2885V12.1546H38.5751V9.11572Z" fill="#FFF9D7"/>
<path d="M42.8617 9.11572H38.5751V12.1546H42.8617V9.11572Z" fill="#FFF9D7"/>
<path d="M47.1472 9.11572H42.8606V12.1546H47.1472V9.11572Z" fill="#FFF9D7"/>
<path d="M51.4338 9.11572H47.1472V12.1546H51.4338V9.11572Z" fill="#FFF9D7"/>
<path d="M55.7193 9.11572H51.4327V12.1546H55.7193V9.11572Z" fill="#FFF9D7"/>
<path d="M60.006 9.11572H55.7193V12.1546H60.006V9.11572Z" fill="#FFF9D7"/>
<path d="M64.2914 9.11572H60.0048V12.1546H64.2914V9.11572Z" fill="#FFF9D7"/>
<path d="M68.5781 9.11572H64.2914V12.1546H68.5781V9.11572Z" fill="#FFF9D7"/>
<path d="M80.8556 9.11572H76.5689V12.1546H80.8556V9.11572Z" fill="#FFF9D7"/>
<path d="M72.8635 9.11572H68.5769V12.1546H72.8635V9.11572Z" fill="#FFF9D7"/>
<path d="M85.141 9.11572H80.8544V12.1546H85.141V9.11572Z" fill="#FFF9D7"/>
<path d="M77.1502 9.11572H72.8636V12.1546H77.1502V9.11572Z" fill="#FFF9D7"/>
<path d="M89.4277 9.11572H85.1411V12.1546H89.4277V9.11572Z" fill="#FFF9D7"/>
<path d="M12.8588 12.1537H8.57211V15.1926H12.8588V12.1537Z" fill="#2B2B2B"/>
<path d="M17.1454 12.1537H12.8588V15.1926H17.1454V12.1537Z" fill="#FFF9D7"/>
<path d="M21.4309 12.1537H17.1442V15.1926H21.4309V12.1537Z" fill="#FFF9D7"/>
<path d="M25.7175 12.1537H21.4309V15.1926H25.7175V12.1537Z" fill="#FFF9D7"/>
<path d="M30.003 12.1537H25.7163V15.1926H30.003V12.1537Z" fill="#FFF9D7"/>
<path d="M34.2896 12.1537H30.003V15.1926H34.2896V12.1537Z" fill="#FFF9D7"/>
<path d="M38.5751 12.1537H34.2885V15.1926H38.5751V12.1537Z" fill="#FFF9D7"/>
<path d="M42.8617 12.1537H38.5751V15.1926H42.8617V12.1537Z" fill="#FFF9D7"/>
<path d="M47.1472 12.1537H42.8606V15.1926H47.1472V12.1537Z" fill="#FFF9D7"/>
<path d="M51.4338 12.1537H47.1472V15.1926H51.4338V12.1537Z" fill="#FFF9D7"/>
<path d="M55.7193 12.1537H51.4327V15.1926H55.7193V12.1537Z" fill="#FFF9D7"/>
<path d="M60.006 12.1537H55.7193V15.1926H60.006V12.1537Z" fill="#FFF9D7"/>
<path d="M64.2914 12.1537H60.0048V15.1926H64.2914V12.1537Z" fill="#FFF9D7"/>
<path d="M68.5781 12.1537H64.2914V15.1926H68.5781V12.1537Z" fill="#FFF9D7"/>
<path d="M80.8556 12.1537H76.5689V15.1926H80.8556V12.1537Z" fill="#FFF9D7"/>
<path d="M72.8635 12.1537H68.5769V15.1926H72.8635V12.1537Z" fill="#FFF9D7"/>
<path d="M85.141 12.1537H80.8544V15.1926H85.141V12.1537Z" fill="#FFF9D7"/>
<path d="M77.1502 12.1537H72.8636V15.1926H77.1502V12.1537Z" fill="#FFF9D7"/>
<path d="M89.4277 12.1537H85.1411V15.1926H89.4277V12.1537Z" fill="#FFF9D7"/>
<path d="M8.57329 15.1926H4.28665V18.2314H8.57329V15.1926Z" fill="#2B2B2B"/>
<path d="M12.8588 15.1926H8.57211V18.2314H12.8588V15.1926Z" fill="#E6844F"/>
<path d="M17.1454 15.1926H12.8588V18.2314H17.1454V15.1926Z" fill="#FFF9D7"/>
<path d="M21.4309 15.1926H17.1442V18.2314H21.4309V15.1926Z" fill="#FFF9D7"/>
<path d="M25.7175 15.1926H21.4309V18.2314H25.7175V15.1926Z" fill="#FFF9D7"/>
<path d="M30.003 15.1926H25.7163V18.2314H30.003V15.1926Z" fill="#FFF9D7"/>
<path d="M34.2896 15.1926H30.003V18.2314H34.2896V15.1926Z" fill="#FFF9D7"/>
<path d="M38.5751 15.1926H34.2885V18.2314H38.5751V15.1926Z" fill="#FFF9D7"/>
<path d="M42.8617 15.1926H38.5751V18.2314H42.8617V15.1926Z" fill="#FFF9D7"/>
<path d="M47.1472 15.1926H42.8606V18.2314H47.1472V15.1926Z" fill="#FFF9D7"/>
<path d="M51.4338 15.1926H47.1472V18.2314H51.4338V15.1926Z" fill="#FFF9D7"/>
<path d="M55.7193 15.1926H51.4327V18.2314H55.7193V15.1926Z" fill="#FFF9D7"/>
<path d="M60.006 15.1926H55.7193V18.2314H60.006V15.1926Z" fill="#FFF9D7"/>
<path d="M64.2914 15.1926H60.0048V18.2314H64.2914V15.1926Z" fill="#FFF9D7"/>
<path d="M68.5781 15.1926H64.2914V18.2314H68.5781V15.1926Z" fill="#FFF9D7"/>
<path d="M80.8556 15.1926H76.5689V18.2314H80.8556V15.1926Z" fill="#FFF9D7"/>
<path d="M72.8635 15.1926H68.5769V18.2314H72.8635V15.1926Z" fill="#FFF9D7"/>
<path d="M85.141 15.1926H80.8544V18.2314H85.141V15.1926Z" fill="#FFF9D7"/>
<path d="M77.1502 15.1926H72.8636V18.2314H77.1502V15.1926Z" fill="#FFF9D7"/>
<path d="M89.4277 15.1926H85.1411V18.2314H89.4277V15.1926Z" fill="#FFF9D7"/>
<path d="M4.28664 18.2306H0V21.2694H4.28664V18.2306Z" fill="#2B2B2B"/>
<path d="M8.57329 18.2306H4.28665V21.2694H8.57329V18.2306Z" fill="#E6844F"/>
<path d="M12.8588 18.2306H8.57211V21.2694H12.8588V18.2306Z" fill="#FFF271"/>
<path d="M17.1454 18.2306H12.8588V21.2694H17.1454V18.2306Z" fill="#FFF9D7"/>
<path d="M21.4309 18.2306H17.1442V21.2694H21.4309V18.2306Z" fill="#FFF9D7"/>
<path d="M25.7175 18.2306H21.4309V21.2694H25.7175V18.2306Z" fill="#FFF9D7"/>
<path d="M30.003 18.2306H25.7163V21.2694H30.003V18.2306Z" fill="#FFF9D7"/>
<path d="M34.2896 18.2306H30.003V21.2694H34.2896V18.2306Z" fill="#FFF9D7"/>
<path d="M38.5751 18.2306H34.2885V21.2694H38.5751V18.2306Z" fill="#FFF9D7"/>
<path d="M42.8617 18.2306H38.5751V21.2694H42.8617V18.2306Z" fill="#FFF9D7"/>
<path d="M47.1472 18.2306H42.8606V21.2694H47.1472V18.2306Z" fill="#FFF9D7"/>
<path d="M51.4338 18.2306H47.1472V21.2694H51.4338V18.2306Z" fill="#FFF9D7"/>
<path d="M55.7193 18.2306H51.4327V21.2694H55.7193V18.2306Z" fill="#FFF9D7"/>
<path d="M60.006 18.2306H55.7193V21.2694H60.006V18.2306Z" fill="#FFF9D7"/>
<path d="M64.2914 18.2306H60.0048V21.2694H64.2914V18.2306Z" fill="#FFF9D7"/>
<path d="M68.5781 18.2306H64.2914V21.2694H68.5781V18.2306Z" fill="#FFF9D7"/>
<path d="M80.8556 18.2306H76.5689V21.2694H80.8556V18.2306Z" fill="#FFF9D7"/>
<path d="M72.8635 18.2306H68.5769V21.2694H72.8635V18.2306Z" fill="#FFF9D7"/>
<path d="M85.141 18.2306H80.8544V21.2694H85.141V18.2306Z" fill="#FFF9D7"/>
<path d="M77.1502 18.2306H72.8636V21.2694H77.1502V18.2306Z" fill="#FFF9D7"/>
<path d="M89.4277 18.2306H85.1411V21.2694H89.4277V18.2306Z" fill="#FFF9D7"/>
<path d="M4.28664 21.2694H0V24.3083H4.28664V21.2694Z" fill="#2B2B2B"/>
<path d="M8.57329 21.2694H4.28665V24.3083H8.57329V21.2694Z" fill="#FFF271"/>
<path d="M12.8588 21.2694H8.57211V24.3083H12.8588V21.2694Z" fill="#FFF271"/>
<path d="M17.1454 21.2694H12.8588V24.3083H17.1454V21.2694Z" fill="#FFF9D7"/>
<path d="M21.4309 21.2694H17.1442V24.3083H21.4309V21.2694Z" fill="#FFF9D7"/>
<path d="M25.7175 21.2694H21.4309V24.3083H25.7175V21.2694Z" fill="#FFF9D7"/>
<path d="M30.003 21.2694H25.7163V24.3083H30.003V21.2694Z" fill="#FFF9D7"/>
<path d="M34.2896 21.2694H30.003V24.3083H34.2896V21.2694Z" fill="#FFF9D7"/>
<path d="M38.5751 21.2694H34.2885V24.3083H38.5751V21.2694Z" fill="#FFF9D7"/>
<path d="M42.8617 21.2694H38.5751V24.3083H42.8617V21.2694Z" fill="#FFF9D7"/>
<path d="M47.1472 21.2694H42.8606V24.3083H47.1472V21.2694Z" fill="#FFF9D7"/>
<path d="M51.4338 21.2694H47.1472V24.3083H51.4338V21.2694Z" fill="#FFF9D7"/>
<path d="M55.7193 21.2694H51.4327V24.3083H55.7193V21.2694Z" fill="#FFF9D7"/>
<path d="M60.006 21.2694H55.7193V24.3083H60.006V21.2694Z" fill="#FFF9D7"/>
<path d="M64.2914 21.2694H60.0048V24.3083H64.2914V21.2694Z" fill="#FFF9D7"/>
<path d="M68.5781 21.2694H64.2914V24.3083H68.5781V21.2694Z" fill="#FFF9D7"/>
<path d="M80.8556 21.2694H76.5689V24.3083H80.8556V21.2694Z" fill="#FFF9D7"/>
<path d="M72.8635 21.2694H68.5769V24.3083H72.8635V21.2694Z" fill="#FFF9D7"/>
<path d="M85.141 21.2694H80.8544V24.3083H85.141V21.2694Z" fill="#FFF9D7"/>
<path d="M77.1502 21.2694H72.8636V24.3083H77.1502V21.2694Z" fill="#FFF9D7"/>
<path d="M89.4277 21.2694H85.1411V24.3083H89.4277V21.2694Z" fill="#FFF9D7"/>
<path d="M4.28664 24.3074H0V27.3463H4.28664V24.3074Z" fill="#2B2B2B"/>
<path d="M8.57329 24.3074H4.28665V27.3463H8.57329V24.3074Z" fill="#FFF271"/>
<path d="M12.8588 24.3074H8.57211V27.3463H12.8588V24.3074Z" fill="#FFF271"/>
<path d="M17.1454 24.3074H12.8588V27.3463H17.1454V24.3074Z" fill="#FFF9D7"/>
<path d="M21.4309 24.3074H17.1442V27.3463H21.4309V24.3074Z" fill="#FFF9D7"/>
<path d="M25.7175 24.3074H21.4309V27.3463H25.7175V24.3074Z" fill="#FFF9D7"/>
<path d="M30.003 24.3074H25.7163V27.3463H30.003V24.3074Z" fill="#FFF9D7"/>
<path d="M34.2896 24.3074H30.003V27.3463H34.2896V24.3074Z" fill="#FFF9D7"/>
<path d="M38.5751 24.3074H34.2885V27.3463H38.5751V24.3074Z" fill="#FFF9D7"/>
<path d="M42.8617 24.3074H38.5751V27.3463H42.8617V24.3074Z" fill="#FFF9D7"/>
<path d="M47.1472 24.3074H42.8606V27.3463H47.1472V24.3074Z" fill="#FFF9D7"/>
<path d="M51.4338 24.3074H47.1472V27.3463H51.4338V24.3074Z" fill="#FFF9D7"/>
<path d="M55.7193 24.3074H51.4327V27.3463H55.7193V24.3074Z" fill="#FFF9D7"/>
<path d="M60.006 24.3074H55.7193V27.3463H60.006V24.3074Z" fill="#FFF9D7"/>
<path d="M64.2914 24.3074H60.0048V27.3463H64.2914V24.3074Z" fill="#FFF9D7"/>
<path d="M68.5781 24.3074H64.2914V27.3463H68.5781V24.3074Z" fill="#FFF9D7"/>
<path d="M80.8556 24.3074H76.5689V27.3463H80.8556V24.3074Z" fill="#FFF9D7"/>
<path d="M72.8635 24.3074H68.5769V27.3463H72.8635V24.3074Z" fill="#FFF9D7"/>
<path d="M85.141 24.3074H80.8544V27.3463H85.141V24.3074Z" fill="#FFF9D7"/>
<path d="M77.1502 24.3074H72.8636V27.3463H77.1502V24.3074Z" fill="#FFF9D7"/>
<path d="M89.4277 24.3074H85.1411V27.3463H89.4277V24.3074Z" fill="#FFF9D7"/>
<path d="M4.28664 27.3463H0V30.3852H4.28664V27.3463Z" fill="#2B2B2B"/>
<path d="M8.57329 27.3463H4.28665V30.3852H8.57329V27.3463Z" fill="#FFF271"/>
<path d="M12.8588 27.3463H8.57211V30.3852H12.8588V27.3463Z" fill="#FFF271"/>
<path d="M17.1454 27.3463H12.8588V30.3852H17.1454V27.3463Z" fill="#FFF9D7"/>
<path d="M21.4309 27.3463H17.1442V30.3852H21.4309V27.3463Z" fill="#FFF9D7"/>
<path d="M25.7175 27.3463H21.4309V30.3852H25.7175V27.3463Z" fill="#FFF9D7"/>
<path d="M30.003 27.3463H25.7163V30.3852H30.003V27.3463Z" fill="#FFF9D7"/>
<path d="M34.2896 27.3463H30.003V30.3852H34.2896V27.3463Z" fill="#FFF9D7"/>
<path d="M38.5751 27.3463H34.2885V30.3852H38.5751V27.3463Z" fill="#FFF9D7"/>
<path d="M42.8617 27.3463H38.5751V30.3852H42.8617V27.3463Z" fill="#FFF9D7"/>
<path d="M47.1472 27.3463H42.8606V30.3852H47.1472V27.3463Z" fill="#FFF9D7"/>
<path d="M51.4338 27.3463H47.1472V30.3852H51.4338V27.3463Z" fill="#FFF9D7"/>
<path d="M55.7193 27.3463H51.4327V30.3852H55.7193V27.3463Z" fill="#FFF9D7"/>
<path d="M60.006 27.3463H55.7193V30.3852H60.006V27.3463Z" fill="#FFF9D7"/>
<path d="M64.2914 27.3463H60.0048V30.3852H64.2914V27.3463Z" fill="#FFF9D7"/>
<path d="M68.5781 27.3463H64.2914V30.3851H68.5781V27.3463Z" fill="#FFF9D7"/>
<path d="M80.8556 27.3463H76.5689V30.3851H80.8556V27.3463Z" fill="#FFF9D7"/>
<path d="M72.8635 27.3463H68.5769V30.3851H72.8635V27.3463Z" fill="#FFF9D7"/>
<path d="M85.141 27.3463H80.8544V30.3851H85.141V27.3463Z" fill="#FFF9D7"/>
<path d="M77.1502 27.3463H72.8636V30.3851H77.1502V27.3463Z" fill="#FFF9D7"/>
<path d="M89.4277 27.3463H85.1411V30.3851H89.4277V27.3463Z" fill="#FFF9D7"/>
<path d="M4.28664 30.3843H0V33.4231H4.28664V30.3843Z" fill="#2B2B2B"/>
<path d="M8.57329 30.3843H4.28665V33.4231H8.57329V30.3843Z" fill="#FFF271"/>
<path d="M12.8588 30.3843H8.57211V33.4231H12.8588V30.3843Z" fill="#FFF271"/>
<path d="M17.1454 30.3843H12.8588V33.4231H17.1454V30.3843Z" fill="#FFF9D7"/>
<path d="M21.4309 30.3843H17.1442V33.4231H21.4309V30.3843Z" fill="#FFF9D7"/>
<path d="M25.7175 30.3843H21.4309V33.4231H25.7175V30.3843Z" fill="#FFF9D7"/>
<path d="M30.003 30.3843H25.7163V33.4231H30.003V30.3843Z" fill="#FFF9D7"/>
<path d="M34.2896 30.3843H30.003V33.4231H34.2896V30.3843Z" fill="#FFF9D7"/>
<path d="M38.5751 30.3843H34.2885V33.4231H38.5751V30.3843Z" fill="#FFF9D7"/>
<path d="M42.8617 30.3843H38.5751V33.4231H42.8617V30.3843Z" fill="#FFF9D7"/>
<path d="M47.1472 30.3843H42.8606V33.4231H47.1472V30.3843Z" fill="#FFF9D7"/>
<path d="M51.4338 30.3843H47.1472V33.4231H51.4338V30.3843Z" fill="#FFF9D7"/>
<path d="M55.7193 30.3843H51.4327V33.4231H55.7193V30.3843Z" fill="#FFF9D7"/>
<path d="M60.006 30.3843H55.7193V33.4231H60.006V30.3843Z" fill="#FFF9D7"/>
<path d="M64.2914 30.3843H60.0048V33.4231H64.2914V30.3843Z" fill="#FFF9D7"/>
<path d="M68.5781 30.3843H64.2914V33.4231H68.5781V30.3843Z" fill="#FFF9D7"/>
<path d="M80.8556 30.3843H76.5689V33.4231H80.8556V30.3843Z" fill="#FFF9D7"/>
<path d="M72.8635 30.3843H68.5769V33.4231H72.8635V30.3843Z" fill="#FFF9D7"/>
<path d="M85.141 30.3843H80.8544V33.4231H85.141V30.3843Z" fill="#FFF9D7"/>
<path d="M77.1502 30.3843H72.8636V33.4231H77.1502V30.3843Z" fill="#FFF9D7"/>
<path d="M89.4277 30.3843H85.1411V33.4231H89.4277V30.3843Z" fill="#FFF9D7"/>
<path d="M4.28664 33.4232H0V36.462H4.28664V33.4232Z" fill="#2B2B2B"/>
<path d="M8.57329 33.4232H4.28665V36.462H8.57329V33.4232Z" fill="#FFF271"/>
<path d="M12.8588 33.4232H8.57211V36.462H12.8588V33.4232Z" fill="#FFF271"/>
<path d="M17.1454 33.4232H12.8588V36.462H17.1454V33.4232Z" fill="#FFF9D7"/>
<path d="M21.4309 33.4232H17.1442V36.462H21.4309V33.4232Z" fill="#FFF9D7"/>
<path d="M25.7175 33.4232H21.4309V36.462H25.7175V33.4232Z" fill="#FFF9D7"/>
<path d="M30.003 33.4232H25.7163V36.462H30.003V33.4232Z" fill="#FFF9D7"/>
<path d="M34.2896 33.4232H30.003V36.462H34.2896V33.4232Z" fill="#FFF9D7"/>
<path d="M38.5751 33.4232H34.2885V36.462H38.5751V33.4232Z" fill="#FFF9D7"/>
<path d="M42.8617 33.4232H38.5751V36.462H42.8617V33.4232Z" fill="#FFF9D7"/>
<path d="M47.1472 33.4232H42.8606V36.462H47.1472V33.4232Z" fill="#FFF9D7"/>
<path d="M51.4338 33.4232H47.1472V36.462H51.4338V33.4232Z" fill="#FFF9D7"/>
<path d="M55.7193 33.4232H51.4327V36.462H55.7193V33.4232Z" fill="#FFF9D7"/>
<path d="M60.006 33.4232H55.7193V36.462H60.006V33.4232Z" fill="#FFF9D7"/>
<path d="M64.2914 33.4232H60.0048V36.462H64.2914V33.4232Z" fill="#FFF9D7"/>
<path d="M68.5781 33.4232H64.2914V36.462H68.5781V33.4232Z" fill="#FFF9D7"/>
<path d="M80.8556 33.4232H76.5689V36.462H80.8556V33.4232Z" fill="#FFF9D7"/>
<path d="M72.8635 33.4232H68.5769V36.462H72.8635V33.4232Z" fill="#FFF9D7"/>
<path d="M85.141 33.4232H80.8544V36.462H85.141V33.4232Z" fill="#FFF9D7"/>
<path d="M77.1502 33.4232H72.8636V36.462H77.1502V33.4232Z" fill="#FFF9D7"/>
<path d="M89.4277 33.4232H85.1411V36.462H89.4277V33.4232Z" fill="#FFF9D7"/>
<path d="M4.28664 36.4612H0V39.5H4.28664V36.4612Z" fill="#2B2B2B"/>
<path d="M8.57329 36.4612H4.28665V39.5H8.57329V36.4612Z" fill="#FFF271"/>
<path d="M12.8588 36.4612H8.57211V39.5H12.8588V36.4612Z" fill="#FFF271"/>
<path d="M17.1454 36.4612H12.8588V39.5H17.1454V36.4612Z" fill="#FFF9D7"/>
<path d="M21.4309 36.4612H17.1442V39.5H21.4309V36.4612Z" fill="#FFF9D7"/>
<path d="M25.7175 36.4612H21.4309V39.5H25.7175V36.4612Z" fill="#FFF9D7"/>
<path d="M30.003 36.4612H25.7163V39.5H30.003V36.4612Z" fill="#FFF9D7"/>
<path d="M34.2896 36.4612H30.003V39.5H34.2896V36.4612Z" fill="#FFF9D7"/>
<path d="M38.5751 36.4612H34.2885V39.5H38.5751V36.4612Z" fill="#FFF9D7"/>
<path d="M42.8617 36.4612H38.5751V39.5H42.8617V36.4612Z" fill="#FFF9D7"/>
<path d="M47.1472 36.4612H42.8606V39.5H47.1472V36.4612Z" fill="#FFF9D7"/>
<path d="M51.4338 36.4612H47.1472V39.5H51.4338V36.4612Z" fill="#FFF9D7"/>
<path d="M55.7193 36.4612H51.4327V39.5H55.7193V36.4612Z" fill="#FFF9D7"/>
<path d="M60.006 36.4612H55.7193V39.5H60.006V36.4612Z" fill="#FFF9D7"/>
<path d="M64.2914 36.4612H60.0048V39.5H64.2914V36.4612Z" fill="#FFF9D7"/>
<path d="M68.5781 36.4611H64.2914V39.5H68.5781V36.4611Z" fill="#FFF9D7"/>
<path d="M80.8556 36.4611H76.5689V39.5H80.8556V36.4611Z" fill="#FFF9D7"/>
<path d="M72.8635 36.4611H68.5769V39.5H72.8635V36.4611Z" fill="#FFF9D7"/>
<path d="M85.141 36.4611H80.8544V39.5H85.141V36.4611Z" fill="#FFF9D7"/>
<path d="M77.1502 36.4611H72.8636V39.5H77.1502V36.4611Z" fill="#FFF9D7"/>
<path d="M89.4277 36.4611H85.1411V39.5H89.4277V36.4611Z" fill="#FFF9D7"/>
<path d="M4.28664 39.5H0V42.5388H4.28664V39.5Z" fill="#2B2B2B"/>
<path d="M8.57329 39.5H4.28665V42.5388H8.57329V39.5Z" fill="#FFF271"/>
<path d="M12.8588 39.5H8.57211V42.5388H12.8588V39.5Z" fill="#FFF271"/>
<path d="M17.1454 39.5H12.8588V42.5388H17.1454V39.5Z" fill="#F5E982"/>
<path d="M21.4309 39.5H17.1442V42.5388H21.4309V39.5Z" fill="#FFF9D7"/>
<path d="M25.7175 39.5H21.4309V42.5388H25.7175V39.5Z" fill="#FFF9D7"/>
<path d="M30.003 39.5H25.7163V42.5388H30.003V39.5Z" fill="#FFF9D7"/>
<path d="M34.2896 39.5H30.003V42.5388H34.2896V39.5Z" fill="#FFF9D7"/>
<path d="M38.5751 39.5H34.2885V42.5388H38.5751V39.5Z" fill="#FFF9D7"/>
<path d="M42.8617 39.5H38.5751V42.5388H42.8617V39.5Z" fill="#FFF9D7"/>
<path d="M47.1472 39.5H42.8606V42.5388H47.1472V39.5Z" fill="#FFF9D7"/>
<path d="M51.4338 39.5H47.1472V42.5388H51.4338V39.5Z" fill="#FFF9D7"/>
<path d="M55.7193 39.5H51.4327V42.5388H55.7193V39.5Z" fill="#FFF9D7"/>
<path d="M60.006 39.5H55.7193V42.5388H60.006V39.5Z" fill="#FFF9D7"/>
<path d="M64.2914 39.5L58.1357 38.4958L60.0048 42.5389H64.2914V39.5Z" fill="#FFF9D7"/>
<path d="M68.5781 39.5H64.2914V42.5388H68.5781V39.5Z" fill="#FFF9D7"/>
<path d="M80.8556 39.5H76.5689V42.5388H80.8556V39.5Z" fill="#FFF9D7"/>
<path d="M72.8635 39.5H68.5769V42.5388H72.8635V39.5Z" fill="#FFF9D7"/>
<path d="M85.141 39.5H80.8544V42.5388H85.141V39.5Z" fill="#FFF9D7"/>
<path d="M77.1502 39.5H72.8636V42.5388H77.1502V39.5Z" fill="#FFF9D7"/>
<path d="M89.4277 39.5H85.1411V42.5388H89.4277V39.5Z" fill="#FFF9D7"/>
<path d="M4.28664 42.538H0V45.5769H4.28664V42.538Z" fill="#2B2B2B"/>
<path d="M8.57329 42.538H4.28665V45.5769H8.57329V42.538Z" fill="#FFF271"/>
<path d="M12.8588 42.538H8.57211V45.5769H12.8588V42.538Z" fill="#FFF271"/>
<path d="M17.1454 42.538H12.8588V45.5769H17.1454V42.538Z" fill="#E6844F"/>
<path d="M21.4309 42.538H17.1442V45.5769H21.4309V42.538Z" fill="#F5E982"/>
<path d="M25.7175 42.538H21.4309V45.5769H25.7175V42.538Z" fill="#F5E982"/>
<path d="M30.003 42.538H25.7163V45.5769H30.003V42.538Z" fill="#F5E982"/>
<path d="M34.2896 42.538H30.003V45.5769H34.2896V42.538Z" fill="#F5E982"/>
<path d="M38.5751 42.538H34.2885V45.5769H38.5751V42.538Z" fill="#F5E982"/>
<path d="M42.8617 42.538H38.5751V45.5769H42.8617V42.538Z" fill="#F5E982"/>
<path d="M47.1472 42.538H42.8606V45.5769H47.1472V42.538Z" fill="#F5E982"/>
<path d="M51.4338 42.538H47.1472V45.5769H51.4338V42.538Z" fill="#F5E982"/>
<path d="M55.7193 42.538H51.4327V45.5769H55.7193V42.538Z" fill="#F5E982"/>
<path d="M60.006 42.538H55.7193V45.5769H60.006V42.538Z" fill="#F5E982"/>
<path d="M64.2914 42.538H60.0048V45.5769H64.2914V42.538Z" fill="#F5E982"/>
<path d="M68.5781 42.538H64.2914V45.5769H68.5781V42.538Z" fill="#F5E982"/>
<path d="M80.8556 42.538H76.5689V45.5769H80.8556V42.538Z" fill="#F5E982"/>
<path d="M72.8635 42.538H68.5769V45.5769H72.8635V42.538Z" fill="#F5E982"/>
<path d="M85.141 42.538H80.8544V45.5769H85.141V42.538Z" fill="#F5E982"/>
<path d="M77.1502 42.538H72.8636V45.5769H77.1502V42.538Z" fill="#F5E982"/>
<path d="M89.4277 42.538H85.1411V45.5769H89.4277V42.538Z" fill="#F5E982"/>
<path d="M4.28664 45.5768H0V48.6157H4.28664V45.5768Z" fill="#2B2B2B"/>
<path d="M8.57329 45.5768H4.28665V48.6157H8.57329V45.5768Z" fill="#FFF271"/>
<path d="M12.8588 45.5768H8.57211V48.6157H12.8588V45.5768Z" fill="#FFF271"/>
<path d="M17.1454 45.5768H12.8588V48.6157H17.1454V45.5768Z" fill="#E6844F"/>
<path d="M21.4309 45.5768H17.1442V48.6157H21.4309V45.5768Z" fill="#E6844F"/>
<path d="M25.7175 45.5768H21.4309V48.6157H25.7175V45.5768Z" fill="#E6844F"/>
<path d="M30.003 45.5768H25.7163V48.6157H30.003V45.5768Z" fill="#E6844F"/>
<path d="M34.2896 45.5768H30.003V48.6157H34.2896V45.5768Z" fill="#E6844F"/>
<path d="M38.5751 45.5768H34.2885V48.6157H38.5751V45.5768Z" fill="#E6844F"/>
<path d="M42.8617 45.5768H38.5751V48.6157H42.8617V45.5768Z" fill="#E6844F"/>
<path d="M47.1472 45.5768H42.8606V48.6157H47.1472V45.5768Z" fill="#E6844F"/>
<path d="M51.4338 45.5768H47.1472V48.6157H51.4338V45.5768Z" fill="#E6844F"/>
<path d="M55.7193 45.5768H51.4327V48.6157H55.7193V45.5768Z" fill="#E6844F"/>
<path d="M60.006 45.5768H55.7193V48.6157H60.006V45.5768Z" fill="#E6844F"/>
<path d="M64.2914 45.5768H60.0048V48.6157H64.2914V45.5768Z" fill="#E6844F"/>
<path d="M68.5781 45.5768H64.2914V48.6157H68.5781V45.5768Z" fill="#E6844F"/>
<path d="M80.8556 45.5768H76.5689V48.6157H80.8556V45.5768Z" fill="#E6844F"/>
<path d="M72.8635 45.5768H68.5769V48.6157H72.8635V45.5768Z" fill="#E6844F"/>
<path d="M85.141 45.5768H80.8544V48.6157H85.141V45.5768Z" fill="#E6844F"/>
<path d="M77.1502 45.5768H72.8636V48.6157H77.1502V45.5768Z" fill="#E6844F"/>
<path d="M89.4277 45.5768H85.1411V48.6157H89.4277V45.5768Z" fill="#E6844F"/>
<path d="M4.28664 48.6149H0V51.6537H4.28664V48.6149Z" fill="#2B2B2B"/>
<path d="M8.57329 48.6149H4.28665V51.6537H8.57329V48.6149Z" fill="#FFF271"/>
<path d="M12.8588 48.6149H8.57211V51.6537H12.8588V48.6149Z" fill="#FFF271"/>
<path d="M17.1454 48.6149H12.8588V51.6537H17.1454V48.6149Z" fill="#E6844F"/>
<path d="M21.4309 48.6149H17.1442V51.6537H21.4309V48.6149Z" fill="#E6844F"/>
<path d="M25.7175 48.6149H21.4309V51.6537H25.7175V48.6149Z" fill="#E6844F"/>
<path d="M30.003 48.6149H25.7163V51.6537H30.003V48.6149Z" fill="#E6844F"/>
<path d="M34.2896 48.6149H30.003V51.6537H34.2896V48.6149Z" fill="#E6844F"/>
<path d="M38.5751 48.6149H34.2885V51.6537H38.5751V48.6149Z" fill="#E6844F"/>
<path d="M42.8617 48.6149H38.5751V51.6537H42.8617V48.6149Z" fill="#E6844F"/>
<path d="M47.1472 48.6149H42.8606V51.6537H47.1472V48.6149Z" fill="#E6844F"/>
<path d="M51.4338 48.6149H47.1472V51.6537H51.4338V48.6149Z" fill="#E6844F"/>
<path d="M55.7193 48.6149H51.4327V51.6537H55.7193V48.6149Z" fill="#E6844F"/>
<path d="M60.006 48.6149H55.7193V51.6537H60.006V48.6149Z" fill="#E6844F"/>
<path d="M64.2914 48.6149H60.0048V51.6537H64.2914V48.6149Z" fill="#E6844F"/>
<path d="M68.5781 48.6149H64.2914V51.6537H68.5781V48.6149Z" fill="#E6844F"/>
<path d="M80.8556 48.6149H76.5689V51.6537H80.8556V48.6149Z" fill="#E6844F"/>
<path d="M72.8635 48.6149H68.5769V51.6537H72.8635V48.6149Z" fill="#E6844F"/>
<path d="M85.141 48.6149H80.8544V51.6537H85.141V48.6149Z" fill="#E6844F"/>
<path d="M77.1502 48.6149H72.8636V51.6537H77.1502V48.6149Z" fill="#E6844F"/>
<path d="M89.4277 48.6149H85.1411V51.6537H89.4277V48.6149Z" fill="#E6844F"/>
<path d="M4.28664 51.6537H0V54.6925H4.28664V51.6537Z" fill="#2B2B2B"/>
<path d="M8.57329 51.6537H4.28665V54.6925H8.57329V51.6537Z" fill="#FFF271"/>
<path d="M12.8588 51.6537H8.57211V54.6925H12.8588V51.6537Z" fill="#FFF271"/>
<path d="M17.1454 51.6537H12.8588V54.6925H17.1454V51.6537Z" fill="#E6844F"/>
<path d="M21.4309 51.6537H17.1442V54.6925H21.4309V51.6537Z" fill="#E6844F"/>
<path d="M25.7175 51.6537H21.4309V54.6925H25.7175V51.6537Z" fill="#E6844F"/>
<path d="M30.003 51.6537H25.7163V54.6925H30.003V51.6537Z" fill="#E6844F"/>
<path d="M34.2896 51.6537H30.003V54.6925H34.2896V51.6537Z" fill="#E6844F"/>
<path d="M38.5751 51.6537H34.2885V54.6925H38.5751V51.6537Z" fill="#E6844F"/>
<path d="M42.8617 51.6537H38.5751V54.6925H42.8617V51.6537Z" fill="#E6844F"/>
<path d="M47.1472 51.6537H42.8606V54.6925H47.1472V51.6537Z" fill="#E6844F"/>
<path d="M51.4338 51.6537H47.1472V54.6925H51.4338V51.6537Z" fill="#E6844F"/>
<path d="M55.7193 51.6537H51.4327V54.6925H55.7193V51.6537Z" fill="#E6844F"/>
<path d="M60.006 51.6537H55.7193V54.6925H60.006V51.6537Z" fill="#E6844F"/>
<path d="M64.2914 51.6537H60.0048V54.6925H64.2914V51.6537Z" fill="#E6844F"/>
<path d="M68.5781 51.6537H64.2914V54.6925H68.5781V51.6537Z" fill="#E6844F"/>
<path d="M80.8556 51.6537H76.5689V54.6925H80.8556V51.6537Z" fill="#E6844F"/>
<path d="M72.8635 51.6537H68.5769V54.6925H72.8635V51.6537Z" fill="#E6844F"/>
<path d="M85.141 51.6537H80.8544V54.6925H85.141V51.6537Z" fill="#E6844F"/>
<path d="M77.1502 51.6537H72.8636V54.6925H77.1502V51.6537Z" fill="#E6844F"/>
<path d="M89.4277 51.6537H85.1411V54.6925H89.4277V51.6537Z" fill="#E6844F"/>
<path d="M4.28664 54.6917H0V57.7306H4.28664V54.6917Z" fill="#2B2B2B"/>
<path d="M8.57329 54.6917H4.28665V57.7306H8.57329V54.6917Z" fill="#FFF271"/>
<path d="M12.8588 54.6917H8.57211V57.7306H12.8588V54.6917Z" fill="#FFF271"/>
<path d="M17.1454 54.6917H12.8588V57.7306H17.1454V54.6917Z" fill="#E6844F"/>
<path d="M21.4309 54.6917H17.1442V57.7306H21.4309V54.6917Z" fill="#E6844F"/>
<path d="M25.7175 54.6917H21.4309V57.7306H25.7175V54.6917Z" fill="#E6844F"/>
<path d="M30.003 54.6917H25.7163V57.7306H30.003V54.6917Z" fill="#E6844F"/>
<path d="M34.2896 54.6917H30.003V57.7306H34.2896V54.6917Z" fill="#E6844F"/>
<path d="M38.5751 54.6917H34.2885V57.7306H38.5751V54.6917Z" fill="#E6844F"/>
<path d="M42.8617 54.6917H38.5751V57.7306H42.8617V54.6917Z" fill="#E6844F"/>
<path d="M47.1472 54.6917H42.8606V57.7306H47.1472V54.6917Z" fill="#E6844F"/>
<path d="M51.4338 54.6917H47.1472V57.7306H51.4338V54.6917Z" fill="#E6844F"/>
<path d="M55.7193 54.6917H51.4327V57.7306H55.7193V54.6917Z" fill="#E6844F"/>
<path d="M60.006 54.6917H55.7193V57.7306H60.006V54.6917Z" fill="#E6844F"/>
<path d="M64.2914 54.6917H60.0048V57.7306H64.2914V54.6917Z" fill="#E6844F"/>
<path d="M68.5781 54.6918H64.2914V57.7306H68.5781V54.6918Z" fill="#E6844F"/>
<path d="M80.8556 54.6918H76.5689V57.7306H80.8556V54.6918Z" fill="#E6844F"/>
<path d="M72.8635 54.6918H68.5769V57.7306H72.8635V54.6918Z" fill="#E6844F"/>
<path d="M85.141 54.6918H80.8544V57.7306H85.141V54.6918Z" fill="#E6844F"/>
<path d="M77.1502 54.6918H72.8636V57.7306H77.1502V54.6918Z" fill="#E6844F"/>
<path d="M89.4277 54.6918H85.1411V57.7306H89.4277V54.6918Z" fill="#E6844F"/>
<path d="M4.28664 57.7306H0V60.7694H4.28664V57.7306Z" fill="#2B2B2B"/>
<path d="M8.57329 57.7306H4.28665V60.7694H8.57329V57.7306Z" fill="#FFF271"/>
<path d="M12.8588 57.7306H8.57211V60.7694H12.8588V57.7306Z" fill="#FFF271"/>
<path d="M17.1454 57.7306H12.8588V60.7694H17.1454V57.7306Z" fill="#4F5180"/>
<path d="M21.4309 57.7306H17.1442V60.7694H21.4309V57.7306Z" fill="#E6844F"/>
<path d="M25.7175 57.7306H21.4309V60.7694H25.7175V57.7306Z" fill="#E6844F"/>
<path d="M30.003 57.7306H25.7163V60.7694H30.003V57.7306Z" fill="#E6844F"/>
<path d="M34.2896 57.7306H30.003V60.7694H34.2896V57.7306Z" fill="#E6844F"/>
<path d="M38.5751 57.7306H34.2885V60.7694H38.5751V57.7306Z" fill="#E6844F"/>
<path d="M42.8617 57.7306H38.5751V60.7694H42.8617V57.7306Z" fill="#E6844F"/>
<path d="M47.1472 57.7306H42.8606V60.7694H47.1472V57.7306Z" fill="#E6844F"/>
<path d="M51.4338 57.7306H47.1472V60.7694H51.4338V57.7306Z" fill="#E6844F"/>
<path d="M55.7193 57.7306H51.4327V60.7694H55.7193V57.7306Z" fill="#E6844F"/>
<path d="M60.006 57.7306H55.7193V60.7694H60.006V57.7306Z" fill="#E6844F"/>
<path d="M64.2914 57.7306H60.0048V60.7694H64.2914V57.7306Z" fill="#E6844F"/>
<path d="M68.5781 57.7306H64.2914V60.7694H68.5781V57.7306Z" fill="#E6844F"/>
<path d="M80.8556 57.7306H76.5689V60.7694H80.8556V57.7306Z" fill="#E6844F"/>
<path d="M72.8635 57.7306H68.5769V60.7694H72.8635V57.7306Z" fill="#E6844F"/>
<path d="M85.141 57.7306H80.8544V60.7694H85.141V57.7306Z" fill="#E6844F"/>
<path d="M77.1502 57.7306H72.8636V60.7694H77.1502V57.7306Z" fill="#E6844F"/>
<path d="M89.4277 57.7306H85.1411V60.7694H89.4277V57.7306Z" fill="#E6844F"/>
<path d="M4.28664 60.7686H0V63.8075H4.28664V60.7686Z" fill="#2B2B2B"/>
<path d="M8.57329 60.7686H4.28665V63.8075H8.57329V60.7686Z" fill="#FFF271"/>
<path d="M12.8588 60.7686H8.57211V63.8075H12.8588V60.7686Z" fill="#FFF271"/>
<path d="M17.1454 60.7686H12.8588V63.8075H17.1454V60.7686Z" fill="#FFF271"/>
<path d="M21.4309 60.7686H17.1442V63.8075H21.4309V60.7686Z" fill="#4F5180"/>
<path d="M25.7175 60.7686H21.4309V63.8075H25.7175V60.7686Z" fill="#4F5180"/>
<path d="M30.003 60.7686H25.7163V63.8075H30.003V60.7686Z" fill="#4F5180"/>
<path d="M34.2896 60.7686H30.003V63.8075H34.2896V60.7686Z" fill="#4F5180"/>
<path d="M38.5751 60.7686H34.2885V63.8075H38.5751V60.7686Z" fill="#4F5180"/>
<path d="M42.8617 60.7686H38.5751V63.8075H42.8617V60.7686Z" fill="#4F5180"/>
<path d="M47.1472 60.7686H42.8606V63.8075H47.1472V60.7686Z" fill="#4F5180"/>
<path d="M51.4338 60.7686H47.1472V63.8075H51.4338V60.7686Z" fill="#4F5180"/>
<path d="M55.7193 60.7686H51.4327V63.8075H55.7193V60.7686Z" fill="#4F5180"/>
<path d="M60.006 60.7686H55.7193V63.8075H60.006V60.7686Z" fill="#4F5180"/>
<path d="M64.2914 60.7686H60.0048V63.8075H64.2914V60.7686Z" fill="#4F5180"/>
<path d="M68.5781 60.7686H64.2914V63.8075H68.5781V60.7686Z" fill="#4F5180"/>
<path d="M80.8556 60.7686H76.5689V63.8075H80.8556V60.7686Z" fill="#4F5180"/>
<path d="M72.8635 60.7686H68.5769V63.8075H72.8635V60.7686Z" fill="#4F5180"/>
<path d="M85.141 60.7686H80.8544V63.8075H85.141V60.7686Z" fill="#4F5180"/>
<path d="M77.1502 60.7686H72.8636V63.8075H77.1502V60.7686Z" fill="#4F5180"/>
<path d="M89.4277 60.7686H85.1411V63.8075H89.4277V60.7686Z" fill="#4F5180"/>
<path d="M4.28664 63.8074H0V66.8463H4.28664V63.8074Z" fill="#2B2B2B"/>
<path d="M8.57329 63.8074H4.28665V66.8463H8.57329V63.8074Z" fill="#E6844F"/>
<path d="M12.8588 63.8074H8.57211V66.8463H12.8588V63.8074Z" fill="#FFF271"/>
<path d="M17.1454 63.8074H12.8588V66.8463H17.1454V63.8074Z" fill="#FFF271"/>
<path d="M21.4309 63.8074H17.1442V66.8463H21.4309V63.8074Z" fill="#FFF271"/>
<path d="M25.7175 63.8074H21.4309V66.8463H25.7175V63.8074Z" fill="#FFF271"/>
<path d="M30.003 63.8074H25.7163V66.8463H30.003V63.8074Z" fill="#FFF271"/>
<path d="M34.2896 63.8074H30.003V66.8463H34.2896V63.8074Z" fill="#FFF271"/>
<path d="M38.5751 63.8074H34.2885V66.8463H38.5751V63.8074Z" fill="#FFF271"/>
<path d="M42.8617 63.8074H38.5751V66.8463H42.8617V63.8074Z" fill="#FFF271"/>
<path d="M47.1472 63.8074H42.8606V66.8463H47.1472V63.8074Z" fill="#FFF271"/>
<path d="M51.4338 63.8074H47.1472V66.8463H51.4338V63.8074Z" fill="#FFF271"/>
<path d="M55.7193 63.8074H51.4327V66.8463H55.7193V63.8074Z" fill="#FFF271"/>
<path d="M60.006 63.8074H55.7193V66.8463H60.006V63.8074Z" fill="#FFF271"/>
<path d="M64.2914 63.8074H60.0048V66.8463H64.2914V63.8074Z" fill="#FFF271"/>
<path d="M68.5781 63.8074H64.2914V66.8463H68.5781V63.8074Z" fill="#FFF271"/>
<path d="M80.8556 63.8074H76.5689V66.8463H80.8556V63.8074Z" fill="#FFF271"/>
<path d="M72.8635 63.8074H68.5769V66.8463H72.8635V63.8074Z" fill="#FFF271"/>
<path d="M85.141 63.8074H80.8544V66.8463H85.141V63.8074Z" fill="#FFF271"/>
<path d="M77.1502 63.8074H72.8636V66.8463H77.1502V63.8074Z" fill="#FFF271"/>
<path d="M89.4277 63.8074H85.1411V66.8463H89.4277V63.8074Z" fill="#FFF271"/>
<path d="M4.28664 66.8455H0V69.8843H4.28664V66.8455Z" fill="#2B2B2B"/>
<path d="M8.57329 66.8455H4.28665V69.8843H8.57329V66.8455Z" fill="#4F5180"/>
<path d="M12.8588 66.8455H8.57211V69.8843H12.8588V66.8455Z" fill="#E6844F"/>
<path d="M17.1454 66.8455H12.8588V69.8843H17.1454V66.8455Z" fill="#E6844F"/>
<path d="M21.4309 66.8455H17.1442V69.8843H21.4309V66.8455Z" fill="#E6844F"/>
<path d="M25.7175 66.8455H21.4309V69.8843H25.7175V66.8455Z" fill="#E6844F"/>
<path d="M30.003 66.8455H25.7163V69.8843H30.003V66.8455Z" fill="#E6844F"/>
<path d="M34.2896 66.8455H30.003V69.8843H34.2896V66.8455Z" fill="#E6844F"/>
<path d="M38.5751 66.8455H34.2885V69.8843H38.5751V66.8455Z" fill="#E6844F"/>
<path d="M42.8617 66.8455H38.5751V69.8843H42.8617V66.8455Z" fill="#E6844F"/>
<path d="M47.1472 66.8455H42.8606V69.8843H47.1472V66.8455Z" fill="#E6844F"/>
<path d="M51.4338 66.8455H47.1472V69.8843H51.4338V66.8455Z" fill="#E6844F"/>
<path d="M55.7193 66.8455H51.4327V69.8843H55.7193V66.8455Z" fill="#E6844F"/>
<path d="M60.006 66.8455H55.7193V69.8843H60.006V66.8455Z" fill="#E6844F"/>
<path d="M64.2914 66.8455H60.0048V69.8843H64.2914V66.8455Z" fill="#E6844F"/>
<path d="M68.5781 66.8455H64.2914V69.8843H68.5781V66.8455Z" fill="#E6844F"/>
<path d="M80.8556 66.8455H76.5689V69.8843H80.8556V66.8455Z" fill="#E6844F"/>
<path d="M72.8635 66.8455H68.5769V69.8843H72.8635V66.8455Z" fill="#E6844F"/>
<path d="M85.141 66.8455H80.8544V69.8843H85.141V66.8455Z" fill="#E6844F"/>
<path d="M77.1502 66.8455H72.8636V69.8843H77.1502V66.8455Z" fill="#E6844F"/>
<path d="M89.4277 66.8455H85.1411V69.8843H89.4277V66.8455Z" fill="#E6844F"/>
<path d="M4.28664 69.8843H0V72.9231H4.28664V69.8843Z" fill="#2B2B2B"/>
<path d="M8.57329 69.8843H4.28665V72.9231H8.57329V69.8843Z" fill="#4F5180"/>
<path d="M12.8588 69.8843H8.57211V72.9231H12.8588V69.8843Z" fill="#4F5180"/>
<path d="M17.1454 69.8843H12.8588V72.9231H17.1454V69.8843Z" fill="#4F5180"/>
<path d="M21.4309 69.8843H17.1442V72.9231H21.4309V69.8843Z" fill="#4F5180"/>
<path d="M25.7175 69.8843H21.4309V72.9231H25.7175V69.8843Z" fill="#4F5180"/>
<path d="M30.003 69.8843H25.7163V72.9231H30.003V69.8843Z" fill="#4F5180"/>
<path d="M34.2896 69.8843H30.003V72.9231H34.2896V69.8843Z" fill="#4F5180"/>
<path d="M38.5751 69.8843H34.2885V72.9231H38.5751V69.8843Z" fill="#4F5180"/>
<path d="M42.8617 69.8843H38.5751V72.9231H42.8617V69.8843Z" fill="#4F5180"/>
<path d="M47.1472 69.8843H42.8606V72.9231H47.1472V69.8843Z" fill="#4F5180"/>
<path d="M51.4338 69.8843H47.1472V72.9231H51.4338V69.8843Z" fill="#4F5180"/>
<path d="M55.7193 69.8843H51.4327V72.9231H55.7193V69.8843Z" fill="#4F5180"/>
<path d="M60.006 69.8843H55.7193V72.9231H60.006V69.8843Z" fill="#4F5180"/>
<path d="M64.2914 69.8843H60.0048V72.9231H64.2914V69.8843Z" fill="#4F5180"/>
<path d="M68.5781 69.8843H64.2914V72.9231H68.5781V69.8843Z" fill="#4F5180"/>
<path d="M80.8556 69.8843H76.5689V72.9231H80.8556V69.8843Z" fill="#4F5180"/>
<path d="M72.8635 69.8843H68.5769V72.9231H72.8635V69.8843Z" fill="#4F5180"/>
<path d="M85.141 69.8843H80.8544V72.9231H85.141V69.8843Z" fill="#4F5180"/>
<path d="M89.3632 69.8843H85.0766V72.9231H89.3632V69.8843Z" fill="#4F5180"/>
<path d="M77.1502 69.8843H72.8636V72.9231H77.1502V69.8843Z" fill="#4F5180"/>
<path d="M8.57329 72.9232H4.28665V75.962H8.57329V72.9232Z" fill="#2B2B2B"/>
<path d="M12.8588 72.9232H8.57211V75.962H12.8588V72.9232Z" fill="#4F5180"/>
<path d="M17.1454 72.9232H12.8588V75.962H17.1454V72.9232Z" fill="#4F5180"/>
<path d="M21.4309 72.9232H17.1442V75.962H21.4309V72.9232Z" fill="#4F5180"/>
<path d="M25.7175 72.9232H21.4309V75.962H25.7175V72.9232Z" fill="#4F5180"/>
<path d="M30.003 72.9232H25.7163V75.962H30.003V72.9232Z" fill="#4F5180"/>
<path d="M34.2896 72.9232H30.003V75.962H34.2896V72.9232Z" fill="#4F5180"/>
<path d="M38.5751 72.9232H34.2885V75.962H38.5751V72.9232Z" fill="#4F5180"/>
<path d="M42.8617 72.9232H38.5751V75.962H42.8617V72.9232Z" fill="#4F5180"/>
<path d="M47.1472 72.9232H42.8606V75.962H47.1472V72.9232Z" fill="#4F5180"/>
<path d="M51.4338 72.9232H47.1472V75.962H51.4338V72.9232Z" fill="#4F5180"/>
<path d="M55.7193 72.9232H51.4327V75.962H55.7193V72.9232Z" fill="#4F5180"/>
<path d="M60.006 72.9232H55.7193V75.962H60.006V72.9232Z" fill="#4F5180"/>
<path d="M64.2914 72.9232H60.0048V75.962H64.2914V72.9232Z" fill="#4F5180"/>
<path d="M68.5781 72.9232H64.2914V75.962H68.5781V72.9232Z" fill="#4F5180"/>
<path d="M80.8556 72.9232H76.5689V75.962H80.8556V72.9232Z" fill="#4F5180"/>
<path d="M72.8635 72.9232H68.5769V75.962H72.8635V72.9232Z" fill="#4F5180"/>
<path d="M85.141 72.9232H80.8544V75.962H85.141V72.9232Z" fill="#4F5180"/>
<path d="M77.1502 72.9232H72.8636V75.962H77.1502V72.9232Z" fill="#4F5180"/>
<path d="M89.4277 72.9232H85.1411V75.962H89.4277V72.9232Z" fill="#4F5180"/>
<path d="M12.8588 75.9612H8.57211V79H12.8588V75.9612Z" fill="#2B2B2B"/>
<path d="M17.1454 75.9612H12.8588V79H17.1454V75.9612Z" fill="#2B2B2B"/>
<path d="M21.4309 75.9612H17.1442V79H21.4309V75.9612Z" fill="#2B2B2B"/>
<path d="M25.7175 75.9612H21.4309V79H25.7175V75.9612Z" fill="#2B2B2B"/>
<path d="M30.003 75.9612H25.7163V79H30.003V75.9612Z" fill="#2B2B2B"/>
<path d="M34.2896 75.9612H30.003V79H34.2896V75.9612Z" fill="#2B2B2B"/>
<path d="M38.5751 75.9612H34.2885V79H38.5751V75.9612Z" fill="#2B2B2B"/>
<path d="M42.8617 75.9612H38.5751V79H42.8617V75.9612Z" fill="#2B2B2B"/>
<path d="M47.1472 75.9612H42.8606V79H47.1472V75.9612Z" fill="#2B2B2B"/>
<path d="M51.4338 75.9612H47.1472V79H51.4338V75.9612Z" fill="#2B2B2B"/>
<path d="M55.7193 75.9612H51.4327V79H55.7193V75.9612Z" fill="#2B2B2B"/>
<path d="M60.006 75.9612H55.7193V79H60.006V75.9612Z" fill="#2B2B2B"/>
<path d="M64.2914 75.9612H60.0048V79H64.2914V75.9612Z" fill="#2B2B2B"/>
<path d="M68.5781 75.9611H64.2914V79H68.5781V75.9611Z" fill="#2B2B2B"/>
<path d="M80.8556 75.9611H76.5689V79H80.8556V75.9611Z" fill="#2B2B2B"/>
<path d="M72.8635 75.9611H68.5769V79H72.8635V75.9611Z" fill="#2B2B2B"/>
<path d="M85.141 75.9611H80.8544V79H85.141V75.9611Z" fill="#2B2B2B"/>
<path d="M77.1502 75.9611H72.8636V79H77.1502V75.9611Z" fill="#2B2B2B"/>
<path d="M89.4277 75.9611H85.1411V79H89.4277V75.9611Z" fill="#2B2B2B"/>
<path d="M93.617 0H89.3304V3.03884H93.617V0Z" fill="#2B2B2B"/>
<path d="M106.379 0H102.092V3.03884H106.379V0Z" fill="#2B2B2B"/>
<path d="M97.9026 0H93.6159V3.03884H97.9026V0Z" fill="#2B2B2B"/>
<path d="M110.664 0H106.377V3.03884H110.664V0Z" fill="#2B2B2B"/>
<path d="M102.189 0H97.9026V3.03884H102.189V0Z" fill="#2B2B2B"/>
<path d="M114.951 0H110.664V3.03884H114.951V0Z" fill="#2B2B2B"/>
<path d="M93.617 3.03888H89.3304V6.07772H93.617V3.03888Z" fill="#F5E982"/>
<path d="M106.379 3.03888H102.092V6.07772H106.379V3.03888Z" fill="#F5E982"/>
<path d="M97.9026 3.03888H93.6159V6.07772H97.9026V3.03888Z" fill="#F5E982"/>
<path d="M110.664 3.03888H106.377V6.07772H110.664V3.03888Z" fill="#F5E982"/>
<path d="M102.189 3.03888H97.9026V6.07772H102.189V3.03888Z" fill="#F5E982"/>
<path d="M114.951 3.03888H110.664V6.07772H114.951V3.03888Z" fill="#F5E982"/>
<path d="M93.617 6.0769H89.3304V9.11575H93.617V6.0769Z" fill="#FFF9D7"/>
<path d="M106.379 6.0769H102.092V9.11575H106.379V6.0769Z" fill="#FFF9D7"/>
<path d="M97.9026 6.0769H93.6159V9.11575H97.9026V6.0769Z" fill="#FFF9D7"/>
<path d="M110.664 6.0769H106.377V9.11575H110.664V6.0769Z" fill="#FFF9D7"/>
<path d="M102.189 6.0769H97.9026V9.11575H102.189V6.0769Z" fill="#FFF9D7"/>
<path d="M114.951 6.0769H110.664V9.11575H114.951V6.0769Z" fill="#FFF9D7"/>
<path d="M93.617 9.11572H89.3304V12.1546H93.617V9.11572Z" fill="#FFF9D7"/>
<path d="M106.379 9.11572H102.092V12.1546H106.379V9.11572Z" fill="#FFF9D7"/>
<path d="M97.9026 9.11572H93.6159V12.1546H97.9026V9.11572Z" fill="#FFF9D7"/>
<path d="M110.664 9.11572H106.377V12.1546H110.664V9.11572Z" fill="#FFF9D7"/>
<path d="M102.189 9.11572H97.9026V12.1546H102.189V9.11572Z" fill="#FFF9D7"/>
<path d="M114.951 9.11572H110.664V12.1546H114.951V9.11572Z" fill="#FFF9D7"/>
<path d="M93.617 12.1537H89.3304V15.1926H93.617V12.1537Z" fill="#FFF9D7"/>
<path d="M106.379 12.1537H102.092V15.1926H106.379V12.1537Z" fill="#FFF9D7"/>
<path d="M97.9026 12.1537H93.6159V15.1926H97.9026V12.1537Z" fill="#FFF9D7"/>
<path d="M110.664 12.1537H106.377V15.1926H110.664V12.1537Z" fill="#FFF9D7"/>
<path d="M102.189 12.1537H97.9026V15.1926H102.189V12.1537Z" fill="#FFF9D7"/>
<path d="M114.951 12.1537H110.664V15.1926H114.951V12.1537Z" fill="#FFF9D7"/>
<path d="M93.617 15.1925H89.3304V18.2314H93.617V15.1925Z" fill="#FFF9D7"/>
<path d="M106.379 15.1925H102.092V18.2314H106.379V15.1925Z" fill="#FFF9D7"/>
<path d="M97.9026 15.1925H93.6159V18.2314H97.9026V15.1925Z" fill="#FFF9D7"/>
<path d="M110.664 15.1925H106.377V18.2314H110.664V15.1925Z" fill="#FFF9D7"/>
<path d="M102.189 15.1925H97.9026V18.2314H102.189V15.1925Z" fill="#FFF9D7"/>
<path d="M114.951 15.1925H110.664V18.2314H114.951V15.1925Z" fill="#FFF9D7"/>
<path d="M93.617 18.2306H89.3304V21.2694H93.617V18.2306Z" fill="#FFF9D7"/>
<path d="M106.379 18.2306H102.092V21.2694H106.379V18.2306Z" fill="#FFF9D7"/>
<path d="M97.9026 18.2306H93.6159V21.2694H97.9026V18.2306Z" fill="#FFF9D7"/>
<path d="M110.664 18.2306H106.377V21.2694H110.664V18.2306Z" fill="#FFF9D7"/>
<path d="M102.189 18.2306H97.9026V21.2694H102.189V18.2306Z" fill="#FFF9D7"/>
<path d="M114.951 18.2306H110.664V21.2694H114.951V18.2306Z" fill="#FFF9D7"/>
<path d="M93.617 21.2694H89.3304V24.3083H93.617V21.2694Z" fill="#FFF9D7"/>
<path d="M106.379 21.2694H102.092V24.3083H106.379V21.2694Z" fill="#FFF9D7"/>
<path d="M97.9026 21.2694H93.6159V24.3083H97.9026V21.2694Z" fill="#FFF9D7"/>
<path d="M110.664 21.2694H106.377V24.3083H110.664V21.2694Z" fill="#FFF9D7"/>
<path d="M102.189 21.2694H97.9026V24.3083H102.189V21.2694Z" fill="#FFF9D7"/>
<path d="M114.951 21.2694H110.664V24.3083H114.951V21.2694Z" fill="#FFF9D7"/>
<path d="M93.617 24.3075H89.3304V27.3463H93.617V24.3075Z" fill="#FFF9D7"/>
<path d="M106.379 24.3075H102.092V27.3463H106.379V24.3075Z" fill="#FFF9D7"/>
<path d="M97.9026 24.3075H93.6159V27.3463H97.9026V24.3075Z" fill="#FFF9D7"/>
<path d="M110.664 24.3075H106.377V27.3463H110.664V24.3075Z" fill="#FFF9D7"/>
<path d="M102.189 24.3075H97.9026V27.3463H102.189V24.3075Z" fill="#FFF9D7"/>
<path d="M114.951 24.3075H110.664V27.3463H114.951V24.3075Z" fill="#FFF9D7"/>
<path d="M93.617 27.3463H89.3304V30.3851H93.617V27.3463Z" fill="#FFF9D7"/>
<path d="M106.379 27.3463H102.092V30.3851H106.379V27.3463Z" fill="#FFF9D7"/>
<path d="M97.9026 27.3463H93.6159V30.3851H97.9026V27.3463Z" fill="#FFF9D7"/>
<path d="M110.664 27.3463H106.377V30.3851H110.664V27.3463Z" fill="#FFF9D7"/>
<path d="M102.189 27.3463H97.9026V30.3851H102.189V27.3463Z" fill="#FFF9D7"/>
<path d="M114.951 27.3463H110.664V30.3851H114.951V27.3463Z" fill="#FFF9D7"/>
<path d="M93.617 30.3843H89.3304V33.4231H93.617V30.3843Z" fill="#FFF9D7"/>
<path d="M106.379 30.3843H102.092V33.4231H106.379V30.3843Z" fill="#FFF9D7"/>
<path d="M97.9026 30.3843H93.6159V33.4231H97.9026V30.3843Z" fill="#FFF9D7"/>
<path d="M110.664 30.3843H106.377V33.4231H110.664V30.3843Z" fill="#FFF9D7"/>
<path d="M102.189 30.3843H97.9026V33.4231H102.189V30.3843Z" fill="#FFF9D7"/>
<path d="M114.951 30.3843H110.664V33.4231H114.951V30.3843Z" fill="#FFF9D7"/>
<path d="M93.617 33.4231H89.3304V36.4619H93.617V33.4231Z" fill="#FFF9D7"/>
<path d="M106.379 33.4231H102.092V36.4619H106.379V33.4231Z" fill="#FFF9D7"/>
<path d="M97.9026 33.4231H93.6159V36.4619H97.9026V33.4231Z" fill="#FFF9D7"/>
<path d="M110.664 33.4231H106.377V36.4619H110.664V33.4231Z" fill="#FFF9D7"/>
<path d="M102.189 33.4231H97.9026V36.4619H102.189V33.4231Z" fill="#FFF9D7"/>
<path d="M114.951 33.4231H110.664V36.4619H114.951V33.4231Z" fill="#FFF9D7"/>
<path d="M93.617 36.4611H89.3304V39.5H93.617V36.4611Z" fill="#FFF9D7"/>
<path d="M106.379 36.4611H102.092V39.5H106.379V36.4611Z" fill="#FFF9D7"/>
<path d="M97.9026 36.4611H93.6159V39.5H97.9026V36.4611Z" fill="#FFF9D7"/>
<path d="M110.664 36.4611H106.377V39.5H110.664V36.4611Z" fill="#FFF9D7"/>
<path d="M102.189 36.4611H97.9026V39.5H102.189V36.4611Z" fill="#FFF9D7"/>
<path d="M114.951 36.4611H110.664V39.5H114.951V36.4611Z" fill="#FFF9D7"/>
<path d="M93.617 39.5H89.3304V42.5388H93.617V39.5Z" fill="#FFF9D7"/>
<path d="M106.379 39.5H102.092V42.5388H106.379V39.5Z" fill="#FFF9D7"/>
<path d="M97.9026 39.5H93.6159V42.5388H97.9026V39.5Z" fill="#FFF9D7"/>
<path d="M110.664 39.5H106.377V42.5388H110.664V39.5Z" fill="#FFF9D7"/>
<path d="M102.189 39.5H97.9026V42.5388H102.189V39.5Z" fill="#FFF9D7"/>
<path d="M114.951 39.5H110.664V42.5388H114.951V39.5Z" fill="#FFF9D7"/>
<path d="M93.617 42.538H89.3304V45.5769H93.617V42.538Z" fill="#F5E982"/>
<path d="M106.379 42.538H102.092V45.5769H106.379V42.538Z" fill="#F5E982"/>
<path d="M97.9026 42.538H93.6159V45.5769H97.9026V42.538Z" fill="#F5E982"/>
<path d="M110.664 42.538H106.377V45.5769H110.664V42.538Z" fill="#F5E982"/>
<path d="M102.189 42.538H97.9026V45.5769H102.189V42.538Z" fill="#F5E982"/>
<path d="M114.951 42.538H110.664V45.5769H114.951V42.538Z" fill="#F5E982"/>
<path d="M93.617 45.5769H89.3304V48.6157H93.617V45.5769Z" fill="#E6844F"/>
<path d="M106.379 45.5769H102.092V48.6157H106.379V45.5769Z" fill="#E6844F"/>
<path d="M97.9026 45.5769H93.6159V48.6157H97.9026V45.5769Z" fill="#E6844F"/>
<path d="M110.664 45.5769H106.377V48.6157H110.664V45.5769Z" fill="#E6844F"/>
<path d="M102.189 45.5769H97.9026V48.6157H102.189V45.5769Z" fill="#E6844F"/>
<path d="M114.951 45.5769H110.664V48.6157H114.951V45.5769Z" fill="#E6844F"/>
<path d="M93.617 48.6149H89.3304V51.6538H93.617V48.6149Z" fill="#E6844F"/>
<path d="M106.379 48.6149H102.092V51.6538H106.379V48.6149Z" fill="#E6844F"/>
<path d="M97.9026 48.6149H93.6159V51.6538H97.9026V48.6149Z" fill="#E6844F"/>
<path d="M110.664 48.6149H106.377V51.6538H110.664V48.6149Z" fill="#E6844F"/>
<path d="M102.189 48.6149H97.9026V51.6538H102.189V48.6149Z" fill="#E6844F"/>
<path d="M114.951 48.6149H110.664V51.6538H114.951V48.6149Z" fill="#E6844F"/>
<path d="M93.617 51.6537H89.3304V54.6925H93.617V51.6537Z" fill="#E6844F"/>
<path d="M106.379 51.6537H102.092V54.6925H106.379V51.6537Z" fill="#E6844F"/>
<path d="M97.9026 51.6537H93.6159V54.6925H97.9026V51.6537Z" fill="#E6844F"/>
<path d="M110.664 51.6537H106.377V54.6925H110.664V51.6537Z" fill="#E6844F"/>
<path d="M102.189 51.6537H97.9026V54.6925H102.189V51.6537Z" fill="#E6844F"/>
<path d="M114.951 51.6537H110.664V54.6925H114.951V51.6537Z" fill="#E6844F"/>
<path d="M93.617 54.6917H89.3304V57.7305H93.617V54.6917Z" fill="#E6844F"/>
<path d="M106.379 54.6917H102.092V57.7305H106.379V54.6917Z" fill="#E6844F"/>
<path d="M97.9026 54.6917H93.6159V57.7305H97.9026V54.6917Z" fill="#E6844F"/>
<path d="M110.664 54.6917H106.377V57.7305H110.664V54.6917Z" fill="#E6844F"/>
<path d="M102.189 54.6917H97.9026V57.7305H102.189V54.6917Z" fill="#E6844F"/>
<path d="M114.951 54.6917H110.664V57.7305H114.951V54.6917Z" fill="#E6844F"/>
<path d="M93.617 57.7306H89.3304V60.7694H93.617V57.7306Z" fill="#E6844F"/>
<path d="M106.379 57.7306H102.092V60.7694H106.379V57.7306Z" fill="#E6844F"/>
<path d="M97.9026 57.7306H93.6159V60.7694H97.9026V57.7306Z" fill="#E6844F"/>
<path d="M110.664 57.7306H106.377V60.7694H110.664V57.7306Z" fill="#E6844F"/>
<path d="M102.189 57.7306H97.9026V60.7694H102.189V57.7306Z" fill="#E6844F"/>
<path d="M114.951 57.7306H110.664V60.7694H114.951V57.7306Z" fill="#E6844F"/>
<path d="M93.617 60.7686H89.3304V63.8074H93.617V60.7686Z" fill="#4F5180"/>
<path d="M106.379 60.7686H102.092V63.8074H106.379V60.7686Z" fill="#4F5180"/>
<path d="M97.9026 60.7686H93.6159V63.8074H97.9026V60.7686Z" fill="#4F5180"/>
<path d="M110.664 60.7686H106.377V63.8074H110.664V60.7686Z" fill="#4F5180"/>
<path d="M102.189 60.7686H97.9026V63.8074H102.189V60.7686Z" fill="#4F5180"/>
<path d="M114.951 60.7686H110.664V63.8074H114.951V60.7686Z" fill="#4F5180"/>
<path d="M93.617 63.8075H89.3304V66.8463H93.617V63.8075Z" fill="#FFF271"/>
<path d="M106.379 63.8075H102.092V66.8463H106.379V63.8075Z" fill="#FFF271"/>
<path d="M97.9026 63.8075H93.6159V66.8463H97.9026V63.8075Z" fill="#FFF271"/>
<path d="M110.664 63.8075H106.377V66.8463H110.664V63.8075Z" fill="#FFF271"/>
<path d="M102.189 63.8075H97.9026V66.8463H102.189V63.8075Z" fill="#FFF271"/>
<path d="M114.951 63.8075H110.664V66.8463H114.951V63.8075Z" fill="#FFF271"/>
<path d="M93.617 66.8455H89.3304V69.8843H93.617V66.8455Z" fill="#E6844F"/>
<path d="M106.379 66.8455H102.092V69.8843H106.379V66.8455Z" fill="#E6844F"/>
<path d="M97.9026 66.8455H93.6159V69.8843H97.9026V66.8455Z" fill="#E6844F"/>
<path d="M110.664 66.8455H106.377V69.8843H110.664V66.8455Z" fill="#E6844F"/>
<path d="M102.189 66.8455H97.9026V69.8843H102.189V66.8455Z" fill="#E6844F"/>
<path d="M114.951 66.8455H110.664V69.8843H114.951V66.8455Z" fill="#E6844F"/>
<path d="M93.617 69.8843H89.3304V72.9231H93.617V69.8843Z" fill="#4F5180"/>
<path d="M106.379 69.8843H102.092V72.9231H106.379V69.8843Z" fill="#4F5180"/>
<path d="M97.9026 69.8843H93.6159V72.9231H97.9026V69.8843Z" fill="#4F5180"/>
<path d="M102.125 69.8843H97.8381V72.9231H102.125V69.8843Z" fill="#4F5180"/>
<path d="M110.664 69.8843H106.377V72.9231H110.664V69.8843Z" fill="#4F5180"/>
<path d="M114.886 69.8843H110.6V72.9231H114.886V69.8843Z" fill="#4F5180"/>
<path d="M93.617 72.923H89.3304V75.9619H93.617V72.923Z" fill="#4F5180"/>
<path d="M106.379 72.923H102.092V75.9619H106.379V72.923Z" fill="#4F5180"/>
<path d="M97.9026 72.923H93.6159V75.9619H97.9026V72.923Z" fill="#4F5180"/>
<path d="M110.664 72.923H106.377V75.9619H110.664V72.923Z" fill="#4F5180"/>
<path d="M102.189 72.923H97.9026V75.9619H102.189V72.923Z" fill="#4F5180"/>
<path d="M114.951 72.923H110.664V75.9619H114.951V72.923Z" fill="#4F5180"/>
<path d="M93.617 75.9611H89.3304V79H93.617V75.9611Z" fill="#2B2B2B"/>
<path d="M106.379 75.9611H102.092V79H106.379V75.9611Z" fill="#2B2B2B"/>
<path d="M97.9026 75.9611H93.6159V79H97.9026V75.9611Z" fill="#2B2B2B"/>
<path d="M110.664 75.9611H106.377V79H110.664V75.9611Z" fill="#2B2B2B"/>
<path d="M102.189 75.9611H97.9026V79H102.189V75.9611Z" fill="#2B2B2B"/>
<path d="M114.951 75.9611H110.664V79H114.951V75.9611Z" fill="#2B2B2B"/>
<path d="M119.14 2.67798H114.853V5.71682H119.14V2.67798Z" fill="#2B2B2B"/>
<path d="M119.14 5.71686H114.853V8.7557H119.14V5.71686Z" fill="#F5E982"/>
<path d="M123.427 5.71686H119.14V8.7557H123.427V5.71686Z" fill="#2B2B2B"/>
<path d="M119.14 8.75568H114.853V11.7945H119.14V8.75568Z" fill="#FFF9D7"/>
<path d="M123.427 8.75568H119.14V11.7945H123.427V8.75568Z" fill="#2B2B2B"/>
<path d="M119.14 11.7945H114.853V14.8333H119.14V11.7945Z" fill="#FFF9D7"/>
<path d="M123.427 11.7945H119.14V14.8333H123.427V11.7945Z" fill="#2B2B2B"/>
<path d="M119.14 14.8333H114.853V17.8722H119.14V14.8333Z" fill="#FFF9D7"/>
<path d="M123.427 14.8333H119.14V17.8722H123.427V14.8333Z" fill="#E6844F"/>
<path d="M127.713 14.8333H123.427V17.8722H127.713V14.8333Z" fill="#2B2B2B"/>
<path d="M119.14 17.8722H114.853V20.911H119.14V17.8722Z" fill="#FFF9D7"/>
<path d="M123.427 17.8722H119.14V20.911H123.427V17.8722Z" fill="#FFF271"/>
<path d="M127.713 17.8722H123.427V20.911H127.713V17.8722Z" fill="#E6844F"/>
<path d="M132 17.8722H127.713V20.911H132V17.8722Z" fill="#2B2B2B"/>
<path d="M119.14 20.911H114.853V23.9499H119.14V20.911Z" fill="#FFF9D7"/>
<path d="M123.427 20.911H119.14V23.9499H123.427V20.911Z" fill="#FFF271"/>
<path d="M127.713 20.911H123.427V23.9499H127.713V20.911Z" fill="#FFF271"/>
<path d="M132 20.911H127.713V23.9499H132V20.911Z" fill="#2B2B2B"/>
<path d="M119.14 23.9499H114.853V26.9887H119.14V23.9499Z" fill="#FFF9D7"/>
<path d="M123.427 23.9499H119.14V26.9887H123.427V23.9499Z" fill="#FFF271"/>
<path d="M127.713 23.9499H123.427V26.9887H127.713V23.9499Z" fill="#FFF271"/>
<path d="M132 23.9499H127.713V26.9887H132V23.9499Z" fill="#2B2B2B"/>
<path d="M119.14 26.9887H114.853V30.0276H119.14V26.9887Z" fill="#FFF9D7"/>
<path d="M123.427 26.9887H119.14V30.0276H123.427V26.9887Z" fill="#FFF271"/>
<path d="M127.713 26.9887H123.427V30.0276H127.713V26.9887Z" fill="#FFF271"/>
<path d="M132 26.9887H127.713V30.0276H132V26.9887Z" fill="#2B2B2B"/>
<path d="M119.14 30.0276H114.853V33.0664H119.14V30.0276Z" fill="#FFF9D7"/>
<path d="M123.427 30.0276H119.14V33.0664H123.427V30.0276Z" fill="#FFF271"/>
<path d="M127.713 30.0276H123.427V33.0664H127.713V30.0276Z" fill="#FFF271"/>
<path d="M132 30.0276H127.713V33.0664H132V30.0276Z" fill="#2B2B2B"/>
<path d="M119.14 33.0664H114.853V36.1053H119.14V33.0664Z" fill="#FFF9D7"/>
<path d="M123.427 33.0664H119.14V36.1053H123.427V33.0664Z" fill="#FFF271"/>
<path d="M127.713 33.0664H123.427V36.1053H127.713V33.0664Z" fill="#FFF271"/>
<path d="M132 33.0664H127.713V36.1053H132V33.0664Z" fill="#2B2B2B"/>
<path d="M119.14 36.1053H114.853V39.1441H119.14V36.1053Z" fill="#FFF9D7"/>
<path d="M123.427 36.1053H119.14V39.1441H123.427V36.1053Z" fill="#FFF271"/>
<path d="M127.713 36.1053H123.427V39.1441H127.713V36.1053Z" fill="#FFF271"/>
<path d="M132 36.1053H127.713V39.1441H132V36.1053Z" fill="#2B2B2B"/>
<path d="M119.14 39.1441H114.853V42.1829H119.14V39.1441Z" fill="#F5E982"/>
<path d="M123.427 39.1441H119.14V42.1829H123.427V39.1441Z" fill="#FFF271"/>
<path d="M127.713 39.1441H123.427V42.1829H127.713V39.1441Z" fill="#FFF271"/>
<path d="M132 39.1441H127.713V42.1829H132V39.1441Z" fill="#2B2B2B"/>
<path d="M119.14 42.1829H114.853V45.2218H119.14V42.1829Z" fill="#E6844F"/>
<path d="M123.427 42.1829H119.14V45.2218H123.427V42.1829Z" fill="#FFF271"/>
<path d="M127.713 42.1829H123.427V45.2218H127.713V42.1829Z" fill="#FFF271"/>
<path d="M132 42.1829H127.713V45.2218H132V42.1829Z" fill="#2B2B2B"/>
<path d="M119.14 45.2217H114.853V48.2606H119.14V45.2217Z" fill="#E6844F"/>
<path d="M123.427 45.2217H119.14V48.2606H123.427V45.2217Z" fill="#FFF271"/>
<path d="M127.713 45.2217H123.427V48.2606H127.713V45.2217Z" fill="#FFF271"/>
<path d="M132 45.2217H127.713V48.2606H132V45.2217Z" fill="#2B2B2B"/>
<path d="M119.14 48.2606H114.853V51.2995H119.14V48.2606Z" fill="#E6844F"/>
<path d="M123.427 48.2606H119.14V51.2995H123.427V48.2606Z" fill="#FFF271"/>
<path d="M127.713 48.2606H123.427V51.2995H127.713V48.2606Z" fill="#FFF271"/>
<path d="M132 48.2606H127.713V51.2995H132V48.2606Z" fill="#2B2B2B"/>
<path d="M119.14 51.2994H114.853V54.3383H119.14V51.2994Z" fill="#E6844F"/>
<path d="M123.427 51.2994H119.14V54.3383H123.427V51.2994Z" fill="#FFF271"/>
<path d="M127.713 51.2994H123.427V54.3383H127.713V51.2994Z" fill="#FFF271"/>
<path d="M132 51.2994H127.713V54.3383H132V51.2994Z" fill="#2B2B2B"/>
<path d="M119.14 54.3384H114.853V57.3772H119.14V54.3384Z" fill="#E6844F"/>
<path d="M123.427 54.3384H119.14V57.3772H123.427V54.3384Z" fill="#FFF271"/>
<path d="M127.713 54.3384H123.427V57.3772H127.713V54.3384Z" fill="#FFF271"/>
<path d="M132 54.3384H127.713V57.3772H132V54.3384Z" fill="#2B2B2B"/>
<path d="M119.14 57.3772H114.853V60.416H119.14V57.3772Z" fill="#4F5180"/>
<path d="M123.427 57.3772H119.14V60.416H123.427V57.3772Z" fill="#FFF271"/>
<path d="M127.713 57.3772H123.427V60.416H127.713V57.3772Z" fill="#FFF271"/>
<path d="M132 57.3772H127.713V60.416H132V57.3772Z" fill="#2B2B2B"/>
<path d="M119.14 60.416H114.853V63.4549H119.14V60.416Z" fill="#FFF271"/>
<path d="M123.427 60.416H119.14V63.4549H123.427V60.416Z" fill="#FFF271"/>
<path d="M127.713 60.416H123.427V63.4549H127.713V60.416Z" fill="#FFF271"/>
<path d="M132 60.416H127.713V63.4549H132V60.416Z" fill="#2B2B2B"/>
<path d="M119.14 63.4549H114.853V66.4937H119.14V63.4549Z" fill="#FFF271"/>
<path d="M123.427 63.4549H119.14V66.4937H123.427V63.4549Z" fill="#FFF271"/>
<path d="M127.713 63.4549H123.427V66.4937H127.713V63.4549Z" fill="#E6844F"/>
<path d="M132 63.4549H127.713V66.4937H132V63.4549Z" fill="#2B2B2B"/>
<path d="M119.14 66.4937H114.853V69.5326H119.14V66.4937Z" fill="#E6844F"/>
<path d="M123.427 66.4937H119.14V69.5326H123.427V66.4937Z" fill="#E6844F"/>
<path d="M127.713 66.4937H123.427V69.5326H127.713V66.4937Z" fill="#4F5180"/>
<path d="M132 66.4937H127.713V69.5326H132V66.4937Z" fill="#2B2B2B"/>
<path d="M119.14 69.5326H114.853V72.5714H119.14V69.5326Z" fill="#4F5180"/>
<path d="M123.427 69.5326H119.14V72.5714H123.427V69.5326Z" fill="#4F5180"/>
<path d="M127.713 69.5326H123.427V72.5714H127.713V69.5326Z" fill="#4F5180"/>
<path d="M132 69.5326H127.713V72.5714H132V69.5326Z" fill="#2B2B2B"/>
<path d="M119.14 72.5714H114.853V75.6102H119.14V72.5714Z" fill="#4F5180"/>
<path d="M123.427 72.5714H119.14V75.6102H123.427V72.5714Z" fill="#4F5180"/>
<path d="M127.713 72.5714H123.427V75.6102H127.713V72.5714Z" fill="#2B2B2B"/>
<path d="M119.14 75.6102H114.853V78.649H119.14V75.6102Z" fill="#2B2B2B"/>
<path d="M123.427 75.6102H119.14V78.6491H123.427V75.6102Z" fill="#2B2B2B"/>
</svg>
