<svg width="17" height="17" viewBox="0 0 17 17" fill="none" xmlns="http://www.w3.org/2000/svg">
<path d="M16.5963 1.21124H15.7834V13.3556H16.5963V1.21124Z" fill="#000001"/>
<path d="M13.3557 16.5962V15.7834H14.1632V14.1631H15.7835V13.3556H3.63912V14.1631H4.45193V14.9759H5.25943V14.1631H6.87974V14.9759H7.68724V14.1631H9.30755V14.9759H10.1151V14.1631H11.7354V14.9759H12.5482V14.1631H13.3557V14.9759H12.5482V15.7834H10.9279V14.9759H10.1151V15.7834H8.50005V14.9759H7.68724V15.7834H6.07224V14.9759H5.25943V15.7834H3.63912V14.9759H2.83162V15.7834H1.2113V16.5962H13.3557Z" fill="#000001"/>
<path d="M15.7835 0.403748H3.63916V1.21125H15.7835V0.403748Z" fill="#000001"/>
<path d="M2.83167 14.1631H2.02417V14.9759H2.83167V14.1631Z" fill="#000001"/>
<path d="M2.02412 14.1631V13.3556H1.21131V11.7353H2.02412V10.9278H1.21131V9.30749H2.02412V8.49999H1.21131V6.87968H2.02412V6.07218H1.21131V4.45187H2.02412V3.63906H2.83162V4.45187H2.02412V5.25937H2.83162V6.87968H2.02412V7.68718H2.83162V9.30749H2.02412V10.1203H2.83162V11.7353H2.02412V12.5481H2.83162V13.3556H3.63912V1.21124H2.83162V2.83156H1.21131V3.63906H0.403809V15.7834H1.21131V14.1631H2.02412Z" fill="#000001"/>
</svg>
