<svg width="618" height="72" viewBox="0 0 618 72" fill="none" xmlns="http://www.w3.org/2000/svg">
<path d="M8.20508 71.1262V69.0918H6.15179V67.0573H4.0985V65.0308H2.05329V62.9964H0V0H57.4275V2.03447H59.4808V4.06092H61.526V6.09539H63.5793V8.12985H65.6326V10.1643H67.6778V12.1908H69.7311V14.2252H71.7844V16.2597H73.8296V18.2862H75.8829V20.3206H77.9362V58.9354H71.7844V65.0308H65.6326V71.1262H8.20508Z" fill="#2A3138"/>
<path d="M4.09855 62.9964H6.15184V65.0308H8.20514V67.0573H10.2584V69.0917H63.5793V62.9964H69.7311V56.901H75.8829V22.3551H73.8296V20.3206H71.7844V18.2862H69.7311V16.2597H67.6778V14.2252H65.6326V12.1908H63.5793V10.1643H61.5261V8.12985H59.4808V6.09538H57.4276V4.06092H55.3743V2.03446H2.05334V60.9619H4.09855V62.9964Z" fill="#E6844F"/>
<path d="M61.5261 14.2252V8.12985H55.3743V2.03446H2.05334V60.9699H55.3743V54.8665H61.5261V48.7711H67.6778V14.2252H61.5261ZM38.9641 44.7102H30.7671V18.2862H38.9641V44.7102Z" fill="white"/>
<path d="M34.8656 22.3551H36.9188V24.3896H38.9721V18.2942H32.8203V20.3286H34.8736V22.3551H34.8656ZM67.6778 58.9354H65.6245V56.901H63.5712V54.8665H57.4194V56.901H59.4727V58.9354H61.526V60.9699H63.5793V63.0044H69.7311V60.9699H67.6778V58.9354ZM69.7311 48.7711H63.5793V50.8056H69.7311V48.7711ZM73.8296 54.8665V52.832H71.7844V50.7976H65.6326V52.832H67.6859V54.8665H69.7392V56.901H75.891V54.8665H73.8296ZM61.526 65.0308H59.4727V62.9964H57.4194V60.9619H4.09851V62.9964H6.1518V65.0308H8.20509V67.0653H10.2584V69.0998H63.5793V67.0653H61.526V65.0308Z" fill="#FFBC98"/>
<path d="M59.4808 50.8056V46.7447H65.6326V16.2597H59.4808V10.1643H53.329V4.06092H4.09851V58.9274H53.3209V52.832H59.4727V50.8056H59.4808ZM41.0173 18.2862V46.7366H28.7138V16.2597H41.0173V18.2862Z" fill="#FFE100"/>
<path opacity="0.55" d="M45.1239 50.8056H34.8655V52.8401H47.1691V22.3551H45.1158V50.8056H45.1239ZM8.20508 8.12986V58.9354H10.2584V10.1643H53.329V8.12986H8.20508Z" fill="#FFF687"/>
<path d="M41.0173 46.7366H30.7671V48.7711H43.0706V18.2862H41.0173V46.7366ZM4.09851 58.9354H6.1518V6.09539H53.3209V4.06092H4.09851V58.9354ZM63.5793 16.2597H61.526V18.2942H65.6245V16.2597H63.5793ZM55.3742 10.1643V12.1988H59.4727V10.1643H55.3742Z" fill="#FFF687"/>
<path opacity="0.78" d="M43.0707 48.7711H32.8123V50.8056H45.1159V20.3206H43.0626V48.7711H43.0707ZM6.15186 58.9354H8.20515V8.12985H53.3291V6.09538H6.15186V58.9354ZM57.4276 14.2252H59.4809V12.1908H57.4276V14.2252ZM63.5794 18.2862V20.3206H65.6327V18.2862H63.5794Z" fill="#FFF687"/>
<path opacity="0.33" d="M47.1692 52.832H36.9189V54.8665H49.2225V24.3816H47.1692V52.832ZM10.2584 10.1643V58.9354H12.3117V12.1908H55.3743V10.1563H10.2584V10.1643ZM63.5793 16.2597H61.5261V18.2942H65.6245V16.2597H63.5793Z" fill="#FFF687"/>
<path opacity="0.1" d="M49.2224 54.8665H38.964V56.901H51.2676V26.416H49.2143V54.8665H49.2224ZM12.3036 12.1908V58.9274H14.3569V14.2252H57.4275V12.1908H12.3036ZM63.5793 18.2862V20.3206H65.6326V18.2862H63.5793Z" fill="#FFF687"/>
<path d="M141.318 72V69.9691H139.263V67.9383H137.208V65.9154H135.161V63.8846H133.106V61.8537H131.051V72H98.2118V69.9691H96.1568V67.9383H94.1019V65.9154H92.055V63.8846H90V1H153.631V3.03086H155.686V5.05372H157.733V7.08457H159.788V9.11543H161.843V11.1463H163.89V13.1691H165.945V15.2H168V41.5691H161.843V47.6537H163.89V49.6846H165.945V51.7154H168V72H141.318Z" fill="#2A3138"/>
<path d="M159.788 45.6309V39.5383H165.945V17.2309H163.89V15.2H161.843V13.1691H159.788V11.1463H157.733V9.11542H155.686V7.08457H153.631V5.05371H151.576V3.03085H92.055V61.8537H94.1019V63.8846H96.1568V65.9154H98.2118V67.9383H100.267V69.9691H128.996V55.7691H131.051V57.8H133.106V59.8309H135.161V61.8537H137.208V63.8846H139.263V65.9154H141.318V67.9383H143.365V69.9691H165.945V53.7383H163.89V51.7154H161.843V49.6846H159.788V47.6537H157.733V45.6309H155.686H159.788Z" fill="#E6844F"/>
<path d="M151.576 37.5154V31.4309H157.733V9.11542H151.576V3.03085H92.055V61.8617H120.792V43.6H122.847V49.6846H129.004V55.7691H135.161V61.8537H157.741V45.6229H151.585V39.5383H145.42V37.5074H151.576V37.5154ZM128.996 27.3691H120.792V19.2537H128.996V27.3691Z" fill="white"/>
<path d="M122.839 21.2846H124.894V23.3154H126.949V25.3463H129.004V19.2617H122.847V21.2846H122.839ZM163.89 37.5154V35.4846H161.843V33.4537H159.788V31.4229H153.631V33.4537H155.686V35.4846H157.741V37.5154H159.796V39.5463H165.953V37.5154H163.89ZM131.051 57.8H133.106V59.8309H135.161V55.7691H131.059V57.8H131.051ZM124.894 51.7154H126.949V53.7463H129.004V49.6926H124.902V51.7154H124.894ZM126.949 65.9154H124.894V63.8846H122.839V61.8537H94.1019V63.8846H96.1568V65.9154H98.2118V67.9463H100.267V69.9771H128.996V67.9463H126.941V65.9154H126.949ZM163.89 65.9154H161.843V63.8846H159.788V61.8537H137.208V63.8846H139.263V65.9154H141.318V67.9463H143.373V69.9771H165.953V67.9463H163.898V65.9154H163.89ZM151.576 41.5691H153.631V43.6H155.686V45.6309H159.788V43.6H157.733V41.5691H155.678V39.5383H153.623V37.5074H147.466V39.5383H151.568V41.5691H151.576Z" fill="#FFBC98"/>
<path d="M98.2118 59.8309H118.737V41.5691H124.894V47.6537H131.051V53.7383H137.208V59.8229H155.678V47.6537H149.521V41.5691H143.365V35.4846H149.521V29.4H155.678V11.1463H149.521V5.05372H94.1019V59.8229H98.2118V59.8309ZM118.737 27.3691V17.2309H131.051V29.4H118.737V27.3691Z" fill="#FFE100"/>
<path opacity="0.55" d="M135.161 33.4537H124.894V35.4846H137.208V23.3154H135.153V33.4537H135.161ZM98.2118 9.11543V59.8309H100.267V11.1463H149.529V9.11543H98.2118Z" fill="#FFF687"/>
<path opacity="0.33" d="M151.576 11.1463H100.267V59.8309H102.322V13.1691H151.584V11.1463H151.576ZM137.208 35.4846H126.949V37.5154H139.263V25.3383H137.208V35.4846ZM153.631 47.6537H151.576V49.6846H155.678V47.6537H153.631Z" fill="#FFF687"/>
<path opacity="0.1" d="M139.263 37.5154H128.996V39.5463H141.31V27.3691H139.255V37.5154H139.263ZM153.631 13.1691H102.314V59.8229H104.369V15.2H153.631V13.1691ZM153.631 49.6846V51.7154H155.686V49.6846H153.631Z" fill="#FFF687"/>
<path d="M131.051 29.4H120.792V31.4309H133.106V19.2537H131.051V29.4ZM124.894 47.6537H126.949V43.6H124.894V47.6537ZM131.051 53.7383H133.106V49.6846H131.051V53.7383ZM137.208 59.8309H139.263V55.7691H137.208V59.8309ZM151.576 49.6846H155.678V47.6537H151.576V49.6846ZM153.631 11.1463H151.576V13.1771H155.678V11.1463H153.631ZM145.42 43.6H149.521V41.5691H145.42V43.6ZM94.1019 59.8309H96.1568V7.08457H149.521V5.05372H94.1019V59.8309Z" fill="#FFF687"/>
<path opacity="0.78" d="M133.106 31.4309H122.839V33.4617H135.153V21.2846H133.098V31.4309H133.106ZM147.475 45.6309H149.53V43.6H147.475V45.6309ZM153.631 13.1691V15.2H155.686V13.1691H153.631ZM96.1569 59.8309H98.2118V9.11543H149.53V7.08457H96.1569V59.8309ZM153.631 51.7154H155.686V49.6846H153.631V51.7154ZM126.949 47.6537H129.004V45.6229H126.949V47.6537ZM133.106 53.7383H135.161V51.7074H133.106V53.7383ZM139.263 59.8309H141.318V57.8H139.263V59.8309Z" fill="#FFF687"/>
<path d="M191.896 70V68.0264H189.92V66.0527H187.944V64.0868H185.976V62.1132H184V1H245.184V2.97365H247.16V4.93953H249.128V6.91318H251.104V8.88682H253.08V10.8605H255.048V12.8264H257.024V14.8H259V52.2527H253.08V58.1736H223.472V70H191.896Z" fill="#2A3138"/>
<path d="M185.976 2.97365V60.1395H187.944V62.1132H189.92V64.0868H191.896V66.0527H193.872V68.0264H221.496V56.2H251.104V50.2868H257.024V16.7736H255.048V14.8H253.08V12.8264H251.104V10.8605H249.128V8.88682H247.16V6.91318H245.184V4.93953H243.208V2.97365H185.976Z" fill="#FFBC98"/>
<path d="M243.208 8.88682V2.97365H185.976V60.1473H213.608V48.3132H243.216V42.4H249.136V8.88682H243.208ZM221.496 32.5395H213.608V18.7395H221.496V32.5395Z" fill="white"/>
<path d="M217.552 22.6868H219.528V24.6605H221.504V18.7473H215.584V20.7209H217.56V22.6868H217.552ZM255.048 48.3132V46.3395H253.08V44.3659H251.104V42.3922H245.184V44.3659H247.16V46.3395H249.136V48.3132H251.112V50.2868H257.032V48.3132H255.048ZM219.528 64.0868H217.552V62.1132H215.576V60.1395H187.944V62.1132H189.92V64.0868H191.896V66.0605H193.872V68.0341H221.496V66.0605H219.52V64.0868H219.528ZM249.128 52.2527H247.152V50.2791H245.176V48.3054H215.576V50.2791H217.552V52.2527H219.528V54.2264H221.504V56.2H251.112V54.2264H249.136V52.2527H249.128Z" fill="#E6844F"/>
<path d="M191.896 58.1736H211.632V46.3395H241.24V40.4264H247.16V10.8605H241.24V4.93953H187.944V58.1659H191.896V58.1736ZM211.632 32.5395V16.7736H223.472V34.5132H211.632V32.5395Z" fill="#FFE100"/>
<path opacity="0.55" d="M227.424 38.4527H217.552V40.4264H229.392V22.6868H227.416V38.4527H227.424ZM191.896 8.88683V58.1737H193.872V10.8605H241.24V8.88683H191.896Z" fill="#FFF687"/>
<path opacity="0.33" d="M241.24 10.8605H193.872V58.1736H195.848V12.8264H243.216V10.8527H241.24V10.8605ZM229.392 40.4264H219.528V42.4H231.368V24.6527H229.392V40.4264Z" fill="#FFF687"/>
<path d="M223.472 34.5132H213.608V36.4868H225.448V18.7395H223.472V34.5132ZM187.944 58.1736H189.92V6.91318H241.232V4.93953H187.944V58.1736ZM245.184 10.8605H243.208V12.8341H247.152V10.8605H245.184Z" fill="#FFF687"/>
<path opacity="0.1" d="M243.208 12.8264H195.84V58.1659H197.816V14.8H245.184V12.8264H243.208ZM231.368 42.4H221.496V44.3736H233.336V26.6264H231.36V42.4H231.368Z" fill="#FFF687"/>
<path opacity="0.78" d="M189.92 58.1737H191.896V8.88683H241.24V6.91318H189.92V58.1737ZM225.448 36.4868H215.576V38.4605H227.416V20.7132H225.44V36.4868H225.448ZM245.184 12.8264V14.8H247.16V12.8264H245.184Z" fill="#FFF687"/>
<g clip-path="url(#clip0_17_935)">
<path d="M429.776 68V66.9503H428.722V65.9047H427.668V68H417.142V66.9503H416.093V65.9047H415.039V64.855H413.985V63.8053H412.935V62.7556H411.882V61.71H410.828V60.6603H409.774V59.6106H408.724V58.5651H407.67V57.5154H406.617V31.3017H442.405V32.3514H443.459V33.4011H444.513V34.4467H445.567V35.4964H446.616V61.71H443.459V64.855H440.302V68H429.776Z" fill="#2A3138"/>
<path d="M439.248 66.9503V63.8053H442.405V60.6603H445.567V36.5461H444.513V35.4964H443.459V34.4467H442.405V33.4011H441.356V32.3514H429.776V34.4467V33.4011H428.722V32.3514H420.304V34.4467V33.4011H419.25V32.3514H407.67V56.4657H408.724V57.5154H409.774V58.5651H410.828V59.6106H411.882V60.6603H412.935V61.71H413.985V62.7556H415.039V63.8053H416.093V64.855H417.142V65.9047H418.196V66.9503H426.619V63.8053H428.722V64.855H429.776V65.9047H430.83V66.9503H439.248Z" fill="#E6844F"/>
<path d="M410.828 59.6106H413.985V62.7556H422.407V59.6106H426.619V62.7556H435.037V59.6106H438.198V56.4657H441.356V32.3514H429.776V51.2254H428.722V32.3514H420.304V51.2254H419.25V32.3514H407.67V56.4657H410.828V59.6106Z" fill="white"/>
<path d="M441.356 61.71H440.302V60.6603H439.248V59.6106H436.091V60.6603H437.144V61.71H438.198V62.7597H439.252V63.8094H442.409V62.7597H441.356V61.71ZM444.513 59.6106V58.5651H443.459V57.5154H442.405V56.4657H439.248V57.5154H440.302V58.5651H441.356V59.6148H442.409V60.6645H445.567V59.6148H444.513V59.6106ZM411.882 60.6603H412.935V61.71H413.989V59.6148H411.886V60.6603H411.882ZM408.724 57.5154H409.778V58.5651H410.832V56.4698H408.728V57.5154H408.724ZM438.198 64.855H437.144V63.8053H436.091V62.7556H427.668V63.8053H428.722V64.855H429.776V65.9047H430.83V66.9544H439.252V65.9047H438.198V64.855ZM425.565 64.855H424.511V63.8053H423.457V62.7556H415.035V63.8053H416.089V64.855H417.142V65.9047H418.196V66.9544H426.619V65.9047H425.565V64.855Z" fill="#FFBC98"/>
<path d="M410.828 55.416H411.882V58.5651H415.039V61.71H421.354V58.5651H427.668V61.71H433.987V58.5651H437.144V55.416H440.302V33.4011H430.83V52.271H427.668V33.4011H421.354V52.271H418.196V33.4011H408.724V55.416H410.828Z" fill="#FFE100"/>
<path opacity="0.55" d="M410.828 55.416H411.882V36.5461H418.196V35.4964H410.828V55.416ZM423.461 54.3704H421.358V55.4201H424.515V36.5461H427.672V35.4964H423.461V54.3704ZM432.933 35.4964V54.3704H430.83V55.4201H433.987V36.5461H440.302V35.4964H432.933Z" fill="#FFF687"/>
<path opacity="0.33" d="M411.882 55.416V56.4657H412.935V37.5917H418.2V36.5419H411.886V55.416H411.882ZM424.511 55.416H422.407V56.4657H425.565V37.5917H427.668V36.5419H424.511V55.416ZM433.987 36.5461V55.4201H431.884V56.4698H435.041V37.5917H440.306V36.5419H433.987V36.5461Z" fill="#FFF687"/>
<path opacity="0.1" d="M412.935 57.5154H413.989V38.6414H418.2V37.5917H412.935V57.5154ZM425.565 56.4657H423.461V57.5154H426.619V38.6414H427.672V37.5917H425.569V56.4657H425.565ZM435.037 37.5917V56.4657H432.933V57.5154H436.091V38.6414H440.302V37.5917H435.037Z" fill="#FFF687"/>
<path d="M427.668 33.4011H421.354V36.5461V52.2751H419.25V53.3248H422.407V34.4467H427.672V33.4011H427.668ZM408.724 55.416H409.778V34.4467H418.2V33.4011H408.728V55.416H408.724ZM430.83 33.4011V52.2751H428.726V53.3248H431.884V34.4467H440.306V33.4011H430.83ZM411.882 58.5651H412.935V56.4698H411.882V58.5651ZM415.039 61.71H416.093V59.6148H415.039V61.71ZM427.668 61.71H428.722V59.6148H427.668V61.71Z" fill="#FFF687"/>
<path opacity="0.78" d="M422.407 37.5916V53.3207H420.304V54.3704H423.461V35.4964H427.672V34.4467H422.407V37.5916ZM409.774 55.416H410.828V35.4964H418.196V34.4467H409.774V55.416ZM431.879 34.4467V53.3207H429.776V54.3704H432.933V35.4964H440.302V34.4467H431.879ZM412.935 58.5651H413.989V57.5154H412.935V58.5651ZM416.093 61.71H417.147V60.6603H416.093V61.71ZM428.722 61.71H429.776V60.6603H428.722V61.71Z" fill="#FFF687"/>
<path d="M539.39 68V66.9503H538.337V65.9047H537.283V64.855H536.233V63.8053H535.179V53.3207H543.602V52.271H539.39V51.2254H538.337V50.1757H537.283V49.126H536.233V48.0763H535.179V34.4467H538.337V31.3017H570.968V32.3514H572.022V33.4011H573.071V34.4467H574.125V35.4964H575.179V45.981H566.757V47.0307H570.968V48.0763H572.022V49.126H573.071V50.1757H574.125V51.2254H575.179V64.855H572.022V68H539.39Z" fill="#2A3138"/>
<path d="M574.125 44.9313V36.5461H573.071V35.4964H572.022V34.4467H570.968V33.4011H569.914V32.3514H539.39V35.4964H536.233V47.0307H537.283V48.0763H538.337V49.126H539.39V50.1757H540.444V51.2254H544.651V52.271H545.705V53.3207H546.759V54.3704H536.233V62.7556H537.283V63.8053H538.337V64.855H539.39V65.9047H540.444V66.9503H570.968V63.8053H574.125V52.271H573.071V51.2254H572.022V50.1757H570.968V49.126H569.914V48.0763H565.707V47.0307H564.653V45.981H563.599V44.9313H574.125Z" fill="#E6844F"/>
<path d="M566.757 59.6106H569.914V48.0763H563.599V44.9313H557.285V41.7863H550.97V40.7408H569.914V32.3514H539.39V35.4964H536.233V47.0307H542.548V50.1757H548.862V53.3207H555.177V54.3704H536.233V62.7556H566.757V59.6106Z" fill="white"/>
<path d="M573.071 61.71H572.017V60.6603H570.964V59.6106H567.806V60.6603H568.86V61.71H569.914V62.7597H570.968V63.8095H574.125V62.7597H573.071V61.71ZM538.337 49.126H539.39V50.1757H540.444V51.2254H544.655V52.2751H545.709V53.3248H546.763V54.3745H555.185V53.3248H548.871V50.1757H542.556V47.0307H537.291V48.0804H538.345V49.126H538.337ZM569.914 64.855H568.86V63.8053H567.806V62.7556H537.279V63.8053H538.332V64.855H539.386V65.9047H540.44V66.9544H570.968V65.9047H569.914V64.855ZM573.071 43.8857V42.836H572.017V41.7863H570.964V40.7366H552.016V41.7863H557.281V42.836H558.334V43.8857H559.388V44.9354H574.125V43.8857H573.071Z" fill="#FFBC98"/>
<path d="M539.39 61.71H565.707V58.5651H568.864V49.126H562.546V45.981H556.231V42.836H549.916V39.6911H568.864V33.4011H540.444V36.5461H537.283V45.981H543.602V49.126H549.916V52.271H556.231V55.416H537.283V61.71H539.39Z" fill="#FFE100"/>
<path opacity="0.55" d="M558.339 57.5154H539.39V61.71H540.444V58.5651H559.392V55.4201H558.339V57.5154ZM565.707 52.271H568.864V51.2213H565.707V52.271ZM542.548 35.4964V38.6414H539.39V45.981H540.444V39.6911H543.602V36.5461H568.864V35.4964H542.548ZM553.074 44.9313V45.981H556.231V44.9313H553.074ZM559.388 49.126H562.546V48.0763H559.388V49.126Z" fill="#FFF687"/>
<path opacity="0.33" d="M557.285 45.981H554.127V47.0307H557.285V45.981ZM560.442 49.126V50.1757H563.599V49.126H560.442ZM566.757 53.3207H568.86V52.271H566.757V53.3207ZM543.602 36.5461V39.6911H540.444V45.981H541.498V40.7408H544.655V37.5958H568.864V36.5461H543.602ZM559.388 58.5651H540.44V61.71H541.494V59.6148H560.442V56.4698H559.388V58.5651Z" fill="#FFF687"/>
<path opacity="0.1" d="M544.651 37.5917V40.7366H541.494V45.981H542.548V41.7863H545.705V38.6414H568.864V37.5917H544.651ZM557.285 47.0307H555.181V48.0804H558.339V47.0307H557.285ZM561.496 50.1757V51.2254H564.653V50.1757H561.496ZM560.442 59.6106H541.494V61.7059H542.548V60.6562H561.496V57.5112H560.442V59.6106ZM567.811 54.3704H568.864V53.3207H567.811V54.3704Z" fill="#FFF687"/>
<path d="M556.231 42.836H550.966V43.8857H556.231V42.836ZM556.231 55.416H537.283V61.7059H538.337V56.4657H557.285V53.3207H556.231V55.416ZM557.285 47.0307H562.55V45.981H557.285V47.0307ZM540.444 33.4011V36.5461H537.287V45.981H538.341V37.5917H541.498V34.4467H568.864V33.4011H540.444ZM563.599 50.1757H568.864V49.126H563.599V50.1757ZM543.602 47.0307V49.126H544.655V47.0307H543.602ZM549.916 50.1757V52.271H550.97V50.1757H549.916Z" fill="#FFF687"/>
<path opacity="0.78" d="M557.285 56.4657H538.337V61.71H539.39V57.5154H558.339V54.3704H557.285V56.4657ZM552.02 43.8857V44.9354H556.231V43.8857H552.02ZM541.494 34.4467V37.5916H538.337V45.981H539.39V38.6414H542.548V35.4964H568.864V34.4467H541.494ZM558.339 47.0307V48.0804H562.55V47.0307H559.392H558.339ZM564.653 50.1757V51.2254H568.864V50.1757H565.707H564.653ZM544.651 48.0763V49.126H545.705V48.0763H544.651ZM550.97 51.2254V52.2751H552.024V51.2254H550.97Z" fill="#FFF687"/>
<path d="M282.211 67.8884V66.8387H281.157V65.7931H280.104V64.7434H279.054V63.6937H278V53.2091H286.422V52.1594H282.211V51.1138H281.157V50.0641H280.104V49.0144H279.054V47.9688H278V34.3351H281.157V31.1901H313.789V32.2398H314.842V33.2895H315.892V34.3351H316.946V35.3848H318V45.8694H309.577V46.9191H313.789V47.9688H314.842V49.0144H315.892V50.0641H316.946V51.1138H318V64.7434H314.842V67.8884H282.211Z" fill="#2A3138"/>
<path d="M316.946 44.8197V36.4345H315.892V35.3848H314.842V34.3351H313.789V33.2895H312.735V32.2398H282.211V35.3848H279.054V46.9191H280.104V47.9688H281.157V49.0144H282.211V50.0641H283.265V51.1138H287.472V52.1594H288.526V53.2091H289.58V54.2588H279.054V62.6482H280.104V63.6937H281.157V64.7434H282.211V65.7931H283.265V66.8387H313.789V63.6937H316.946V52.1594H315.892V51.1138H314.842V50.0641H313.789V49.0144H312.735V47.9688H308.528V46.9191H307.474V45.8694H306.42V44.8197H316.946Z" fill="#E6844F"/>
<path d="M309.577 59.4991H312.735V47.9688H306.42V44.8197H300.105V41.6747H293.791V40.6292H312.735V32.2398H282.211V35.3848H279.054V46.9191H285.368V50.0641H291.683V53.2091H297.998V54.2588H279.054V62.6482H309.577V59.4991Z" fill="white"/>
<path d="M315.892 61.5985H314.842V60.5488H313.789V59.499H310.631V60.5488H311.685V61.5985H312.739V62.6482H313.793V63.6979H316.95V62.6482H315.896V61.5985H315.892ZM281.157 49.0144H282.211V50.0641H283.265V51.1138H287.476V52.1635H288.53V53.2132H289.584V54.2629H298.006V53.2132H291.683V50.0682H285.368V46.9233H280.104V47.973H281.157V49.0144ZM312.735 64.7434H311.681V63.6937H310.627V62.644H280.104V63.6937H281.157V64.7434H282.211V65.7931H283.265V66.8428H313.793V65.7931H312.739V64.7434H312.735ZM315.892 43.7742V42.7244H314.842V41.6747H313.789V40.6292H294.84V41.6789H300.105V42.7286H301.159V43.7783H302.213V44.828H316.95V43.7783H315.892V43.7742Z" fill="#FFBC98"/>
<path d="M282.211 61.5985H308.528V58.4535H311.685V49.0144H305.366V45.8694H299.052V42.7245H292.737V39.5795H311.685V33.2895H283.265V36.4345H280.104V45.8694H286.422V49.0144H292.737V52.1594H299.052V55.3085H280.104V61.5985H282.211Z" fill="#FFE100"/>
<path opacity="0.55" d="M301.159 57.4038H282.211V61.5985H283.265V58.4535H302.213V55.3085H301.159V57.4038ZM308.528 52.1594H311.685V51.1097H308.528V52.1594ZM285.369 35.3848V38.5298H282.211V45.8694H283.265V39.5795H286.422V36.4345H311.685V35.3848H285.369ZM295.894 44.8197V45.8694H299.052V44.8197H295.894ZM302.209 49.0144H305.366V47.9647H302.209V49.0144Z" fill="#FFF687"/>
<path opacity="0.33" d="M300.105 45.8694H296.948V46.9191H300.105V45.8694ZM303.263 49.0144V50.0641H306.42V49.0144H303.263ZM309.577 53.2091H311.681V52.1594H309.577V53.2091ZM286.422 36.4345V39.5795H283.265V45.8694H284.319V40.6292H287.476V37.4842H311.685V36.4345H286.422ZM302.209 58.4535H283.265V61.5985H284.319V59.5032H303.267V56.3582H302.213V58.4535H302.209Z" fill="#FFF687"/>
<path opacity="0.1" d="M287.472 37.4842V40.6292H284.315V45.8736H285.369V41.6747H288.526V38.5298H311.685V37.4801H287.472V37.4842ZM300.105 46.9191H297.998V47.9688H301.155V46.9191H300.105ZM304.317 50.0641V51.1138H307.474V50.0641H304.317ZM303.263 59.4991H284.315V61.5943H285.369V60.5488H304.317V57.4038H303.263V59.4991ZM310.631 54.2588H311.685V53.2091H310.631V54.2588Z" fill="#FFF687"/>
<path d="M299.052 42.7245H293.791V43.7742H299.056V42.7245H299.052ZM299.052 55.3085H280.104V61.5985H281.157V56.3541H300.105V53.2091H299.052V55.3085ZM300.105 46.9191H305.37V45.8694H300.105V46.9191ZM283.265 33.2895V36.4345H280.104V45.8694H281.157V37.4801H284.315V34.3351H311.681V33.2895H283.265ZM306.42 50.0641H311.685V49.0144H306.42V50.0641ZM286.422 46.9191V49.0144H287.476V46.9191H286.422ZM292.737 50.0641V52.1594H293.791V50.0641H292.737Z" fill="#FFF687"/>
<path opacity="0.78" d="M300.105 56.3541H281.157V61.5985H282.211V57.4038H301.159V54.2588H300.105V56.3541ZM294.84 43.7742V44.8239H299.052V43.7742H294.84ZM284.315 34.3351V37.4801H281.157V45.8694H282.211V38.5298H285.369V35.3848H311.685V34.3351H284.315ZM301.159 46.9191V47.9688H305.37V46.9191H302.213H301.159ZM307.474 50.0641V51.1138H311.685V50.0641H308.528H307.474ZM287.472 47.9688V49.0185H288.526V47.9688H287.472ZM293.791 51.1138V52.1635H294.845V51.1138H293.791Z" fill="#FFF687"/>
<path d="M371.243 68V66.9503H370.193V65.9047H369.139V64.855H368.086V63.8053H367.032V62.7556H365.982V61.71H364.928V60.6603H363.874V34.4467H367.032V31.3017H396.506V32.3514H397.559V33.4011H398.613V34.4467H399.663V35.4964H400.717V36.5461H401.771V37.5916H402.82V38.6414H403.874V64.855H400.717V68H371.243Z" fill="#2A3138"/>
<path d="M399.663 66.9503V63.8053H402.82V39.6911H401.771V38.6414H400.717V37.5916H399.663V36.5461H398.613V35.4964H397.559V34.4467H396.506V33.4011H395.456V32.3514H368.086V35.4964H364.928V59.6106H365.982V60.6603H367.032V61.71H368.086V62.7556H369.139V63.8053H370.193V64.855H371.243V65.9047H372.297V66.9503H399.663Z" fill="#E6844F"/>
<path d="M395.456 35.4964V32.3514H368.09V35.4964H364.932V59.6106H368.09V62.7556H395.456V59.6106H398.613V35.4964H395.456ZM383.876 54.3704H379.665V40.7408H383.876V54.3704Z" fill="white"/>
<path d="M381.769 42.836H382.823V43.8857H383.876V40.7408H380.719V41.7905H381.773V42.836H381.769ZM365.982 60.6603H367.036V61.71H368.09V59.6148H365.986V60.6603H365.982ZM401.771 62.7556V61.7059H400.717V60.6562H399.663V59.6065H396.506V60.6562H397.56V61.7059H398.613V62.7556H399.667V63.8053H402.824V62.7556H401.771ZM398.613 64.855H397.56V63.8053H396.506V62.7556H369.139V63.8053H370.193V64.855H371.247V65.9047H372.301V66.9544H399.667V65.9047H398.613V64.855Z" fill="#FFBC98"/>
<path d="M371.243 33.4011H369.139V36.5461H365.982V58.5651H369.139V61.71H394.402V58.5651H397.56V36.5461H394.402V33.4011H371.243ZM378.611 54.3704V39.6911H384.926V55.4201H378.611V54.3704Z" fill="#FFE100"/>
<path opacity="0.33" d="M394.402 36.5461H372.297V39.6911H369.139V59.6106H370.193V40.7408H373.351V37.5958H395.456V36.5461H394.402ZM388.088 58.5651H382.823V59.6148H389.137V43.8857H388.083V58.5651H388.088Z" fill="#FFF687"/>
<path d="M384.926 55.416H379.661V56.4657H385.976V40.7408H384.922V55.416H384.926ZM369.139 33.4011V36.5461H365.982V58.5651H367.036V37.5917H370.193V34.4467H394.402V33.4011H369.139ZM369.139 60.6603V61.71H370.193V59.6148H369.139V60.6603ZM396.506 36.5461H395.452V37.5958H397.555V36.5461H396.506Z" fill="#FFF687"/>
<path opacity="0.78" d="M385.98 56.4657H380.715V57.5154H387.03V41.7863H385.976V56.4657H385.98ZM370.193 37.5916H367.036V58.5651H368.09V38.6455H371.247V35.5005H394.406V34.4467H370.197V37.5916H370.193ZM396.506 37.5916V38.6414H397.56V37.5916H396.506ZM370.193 61.71H371.247V60.6603H370.193V61.71Z" fill="#FFF687"/>
<path opacity="0.55" d="M371.243 35.4964V38.6414H368.086V58.5609H369.139V39.6911H372.297V36.5461H394.402V35.4964H371.243ZM387.034 57.5154H381.769V58.5651H388.083V42.836H387.03V57.5154H387.034Z" fill="#FFF687"/>
<path opacity="0.1" d="M395.456 37.5917H373.351V40.7366H370.193V60.6562H371.247V41.7863H374.404V38.6414H396.51V37.5917H395.456ZM389.137 59.6106H383.872V60.6603H390.187V44.9313H389.133V59.6106H389.137Z" fill="#FFF687"/>
<path d="M582.211 67.8884V66.8387H581.162V65.7931H580.108V64.7434H579.054V63.6937H578V31.1901H613.793V32.2398H614.843V33.2895H615.896V34.3351H616.95V35.3848H618V45.8694H608.528H609.582V46.9191H610.632V47.9688H611.685V53.2091H613.793V54.2588H614.843V55.3085H615.896V56.3541H616.95V57.4038H618V67.8884H582.211Z" fill="#2A3138"/>
<path d="M580.108 63.6937H581.162V64.7434H582.211V65.7931H583.265V66.8387H616.95V58.4535H615.896V57.4038H614.843V56.3541H613.793V55.3085H612.739V54.2588H610.632V49.0144H609.582V47.9688H608.528V46.9191H607.474V45.8694H606.425V44.8239H616.95V36.4345H615.896V35.3848H614.843V34.3351H613.793V33.2895H612.739V32.2398H579.054V62.6482H580.108V63.6937Z" fill="#E6844F"/>
<path d="M612.739 54.2588H593.791V50.0641H606.425V44.8239H593.791V40.6292H612.739V32.2398H579.054V62.6482H612.739V54.2588Z" fill="white"/>
<path d="M615.896 64.7434H614.843V63.6937H613.789V62.644H580.104V63.6937H581.158V64.7434H582.211V65.7931H583.265V66.8428H616.95V65.7931H615.896V64.7434ZM595.895 52.1594H596.948V53.2091H598.002V54.2588H610.632V53.2091H609.578V52.1594H608.524V51.1097H607.47V50.06H594.841V51.1097H595.895V52.1594ZM615.896 43.7742V42.7244H614.843V41.6747H613.789V40.6292H594.841V41.6789H595.895V42.7286H596.948V43.7783H598.002V44.828H616.95V43.7783H615.896V43.7742Z" fill="#FFBC98"/>
<path d="M609.582 61.5985H611.685V55.3085H592.737V49.0144H605.371V45.8694H592.737V39.5795H611.685V33.2895H580.108V61.5985H609.582Z" fill="#FFE100"/>
<path d="M580.108 33.2895V61.5985H581.162V34.3351H611.69V33.2895H580.108ZM593.791 56.3541H611.685V55.3044H593.791V56.3541ZM605.371 45.8694H593.791V46.9191H605.371V45.8694Z" fill="#FFF687"/>
<path opacity="0.78" d="M594.845 57.4038H611.685V56.3541H594.845V57.4038ZM581.162 34.3351V61.5943H582.216V35.3848H611.69V34.3351H581.162ZM605.371 47.9688V46.9191H594.845V47.9688H605.371Z" fill="#FFF687"/>
<path opacity="0.55" d="M595.895 57.4038V58.4535H611.685V57.4038H595.895ZM605.371 47.9688H595.899V49.0185H605.371V47.9688ZM582.211 35.3848V61.5985H583.265V36.4345H611.685V35.3848H582.211Z" fill="#FFF687"/>
<path opacity="0.33" d="M583.265 36.4345V61.5985H584.319V37.4842H611.685V36.4345H583.265ZM596.948 59.4991H611.685V58.4493H596.948V59.4991Z" fill="#FFF687"/>
<path opacity="0.1" d="M598.002 60.5488H611.685V59.4991H598.002V60.5488ZM584.319 37.4842V61.5985H585.373V38.5298H611.69V37.4801H584.319V37.4842Z" fill="#FFF687"/>
<path d="M515.181 67.8884V66.8387H514.128V65.7931H513.074V67.8884H496.233V66.8387H495.179V65.7931H494.126V64.7434H493.076V63.6937H492.022V43.7742H495.179V40.6292H498.337V37.4842H501.494V34.3351H504.651V31.1901H527.811V32.2398H528.865V33.2895H529.914V34.3351H530.968V35.3848H532.022V67.8884H515.181Z" fill="#2A3138"/>
<path d="M512.02 66.8387V62.6482H513.074V63.6937H514.128V64.7434H515.181V65.7931H516.231V66.8387H530.968V36.4345H529.914V35.3848H528.865V34.3351H527.811V33.2895H526.757V32.2398H505.705V35.3848H502.548V38.5298H499.391V41.6747H496.233V44.8197H493.076V62.6482H494.126V63.6937H495.179V64.7434H496.233V65.7931H497.283V66.8387H512.02Z" fill="#E6844F"/>
<path d="M505.705 32.2398V35.3848H502.548V38.5298H499.391V41.6747H496.233V44.8197H493.076V62.644H507.813V56.3541H512.024V62.644H526.761V32.2398H505.705ZM512.02 51.1138H507.809V46.9191H510.966V43.7742H512.02V51.1138Z" fill="white"/>
<path d="M508.863 57.4038H509.916V58.4535H510.97V59.5032H512.024V56.3582H508.867V57.4038H508.863ZM508.863 47.9688H509.916V49.0185H510.97V50.0682H512.024V46.9233H508.867V47.9688H508.863ZM510.97 64.7434H509.916V63.6937H508.863V62.644H494.126V63.6937H495.179V64.7434H496.233V65.7931H497.287V66.8428H512.024V65.7931H510.97V64.7434ZM529.914 65.7931V64.7434H528.86V63.6937H527.807V62.644H513.07V63.6937H514.123V64.7434H515.177V65.7931H516.231V66.8428H530.968V65.7931H529.914Z" fill="#FFBC98"/>
<path d="M504.651 61.5985H506.755V55.3085H513.07V61.5985H525.699V33.2895H506.751V36.4345H503.593V39.5795H500.436V42.7245H497.279V45.8694H494.121V61.5985H504.651ZM506.759 51.1138V45.8694H509.916V42.7245H513.074V52.1594H506.759V51.1138Z" fill="#FFE100"/>
<path opacity="0.78" d="M514.128 53.2091H508.863V54.2588H515.177V44.8197H514.123V53.2091H514.128ZM514.128 61.5985H515.181V57.4038H514.128V61.5985ZM507.813 34.3351V37.4801H504.656V40.625H501.498V43.77H498.341V46.915H495.184V61.5943H496.233V47.9688H499.391V44.8239H502.548V41.6789H505.705V38.5339H508.863V35.3889H525.703V34.3351H507.813Z" fill="#FFF687"/>
<path opacity="0.55" d="M508.863 35.3848V38.5298H505.705V41.6747H502.548V44.8197H499.391V47.9647H496.233V61.5943H497.287V49.0144H500.444V45.8694H503.602V42.7245H506.759V39.5795H509.916V36.4345H525.707V35.3848H508.863ZM515.181 61.5985H516.235V58.4535H515.181V61.5985ZM515.181 54.2588H509.916V55.3085H516.231V45.8694H515.177V54.2588H515.181Z" fill="#FFF687"/>
<path opacity="0.33" d="M516.231 61.5985H517.285V59.5032H516.231V61.5985ZM509.916 36.4345V39.5795H506.759V42.7245H503.602V45.8694H500.444V49.0144H497.287V61.5943H498.341V50.0641H501.498V46.9191H504.656V43.7742H507.813V40.6292H510.97V37.4842H525.707V36.4345H509.916ZM516.231 55.3085H513.074V56.3582H517.285V46.9191H516.231V55.3085Z" fill="#FFF687"/>
<path opacity="0.1" d="M517.285 61.5985H518.339V60.5488H517.285V61.5985ZM510.97 37.4842V40.6292H507.813V43.7742H504.656V46.9191H501.498V50.0641H498.341V61.5985H499.395V51.1138H502.552V47.9688H505.709V44.8239H508.867V41.6789H512.024V38.5339H525.707V37.4842H510.97ZM517.285 56.3541H514.128V57.4038H518.339V47.9688H517.285V56.3541Z" fill="#FFF687"/>
<path d="M506.759 33.2895V36.4345H503.602V39.5795H500.444V42.7245H497.287V45.8694H494.13V61.5985H495.184V46.9191H498.341V43.7742H501.498V40.6292H504.656V37.4842H507.813V34.3351H525.707V33.2895H506.759ZM513.074 52.1594H507.809V53.2091H514.123V43.7742H513.07V52.1594H513.074ZM513.074 57.4038V61.5985H514.128V56.3541H513.074V57.4038Z" fill="#FFF687"/>
<path d="M344.262 67.6983V66.6486H343.209V65.5989H342.155V67.6983H325.314V66.6486H324.26V65.5989H323.211V64.5533H322.157V63.5036H321.103V31H337.948V32.0497H338.997V33.0953H340.051V34.145V31H356.892V32.0497H357.946V33.0953H358.999V34.145H360.049V35.1947H361.103V67.6983H344.262Z" fill="#2A3138"/>
<path d="M360.049 66.6486V36.2444H358.999V35.1947H357.946V34.145H356.892V33.0953H355.842V32.0497H341.105V36.2444H340.051V35.1947H338.997V34.145H337.948V33.0953H336.894V32.0497H322.157V62.4539H323.211V63.5036H324.26V64.5533H325.314V65.5989H326.368V66.6486H341.105V62.4539H342.155V63.5036H343.209V64.5533H344.262V65.5989H345.316V66.6486H360.049Z" fill="#E6844F"/>
<path d="M355.842 62.4539V32.0497H341.105V44.6296H336.894V32.0497H322.157V62.4539H336.894V49.874H341.105V62.4539H355.842Z" fill="white"/>
<path d="M337.948 50.9196H339.002V51.9693H340.055V53.019H341.109V49.874H337.952V50.9196H337.948ZM358.999 65.5989V64.5492H357.946V63.4995H356.892V62.4498H342.155V63.4995H343.209V64.5492H344.262V65.5989H345.316V66.6486H360.053V65.5989H358.999ZM340.051 64.5533H338.997V63.5036H337.944V62.4539H323.207V63.5036H324.26V64.5533H325.314V65.603H326.368V66.6527H341.105V65.603H340.051V64.5533Z" fill="#FFBC98"/>
<path d="M349.523 61.4084H354.788V33.0953H342.155V45.6793H335.84V33.0953H323.211V61.4084H335.84V48.8243H342.155V61.4084H349.523Z" fill="#FFE100"/>
<path opacity="0.78" d="M324.26 61.4084H325.314V35.1947H335.84V34.145H324.26V61.4084ZM343.209 34.145V46.7249H337.944V47.7746H344.258V35.1947H354.784V34.145H343.209ZM343.209 61.4084H344.262V50.9196H343.209V61.4084Z" fill="#FFF687"/>
<path opacity="0.55" d="M325.314 61.4084H326.368V36.2444H335.84V35.1947H325.314V61.4084ZM344.262 35.1947V47.7746H338.997V48.8243H345.312V36.2444H354.784V35.1947H344.262ZM344.262 61.4084H345.316V51.9693H344.262V61.4084Z" fill="#FFF687"/>
<path d="M323.211 61.4084H324.265V34.145H335.844V33.0953H323.215V61.4084H323.211ZM342.155 33.0953V45.6752H336.89V46.7249H343.204V34.145H354.784V33.0953H342.155ZM342.155 50.9196V61.4042H343.209V49.874H342.155V50.9196Z" fill="#FFF687"/>
<path opacity="0.33" d="M345.316 61.4084H346.37V53.019H345.316V61.4084ZM326.368 61.4084H327.422V37.29H335.844V36.2403H326.372V61.4084H326.368ZM345.316 36.2444V48.8243H342.159V49.874H346.37V37.29H354.792V36.2403H345.316V36.2444Z" fill="#FFF687"/>
<path opacity="0.1" d="M346.366 37.29V49.8699H343.209V50.9196H347.42V38.3397H354.788V37.29H346.366ZM327.422 61.4084H328.476V38.3397H335.844V37.29H327.422V61.4084ZM346.366 61.4084H347.42V54.0687H346.366V61.4084Z" fill="#FFF687"/>
<path d="M456.648 67.7768V66.7271H455.595V65.6816H454.541V64.6319H453.491V63.5821H452.437V62.5366H451.383V61.4869H450.334V60.4372H449.28V34.2276H452.437V31.0785H485.069V32.1282H486.122V33.1779H487.172V34.2276H488.226V35.2732H489.28V45.7578H470.332V53.0975H485.069V54.1472H486.122V55.1969H487.172V56.2425H488.226V57.2922H489.28V67.7768H456.648Z" fill="#2A3138"/>
<path d="M451.383 60.4372H452.437V61.4869H453.491V62.5366H454.541V63.5822H455.595V64.6319H456.648V65.6816H457.702V66.7271H488.226V58.3419H487.172V57.2922H486.122V56.2425H485.069V55.1969H484.015V54.1472H469.278V44.7123H488.226V36.3229H487.172V35.2732H486.122V34.2276H485.069V33.1779H484.015V32.1282H453.491V35.2732H450.334V59.3916H451.383V60.4372Z" fill="#E6844F"/>
<path d="M484.015 40.5176V32.1282H453.491V35.2732H450.334V59.3916H453.491V62.5366H484.015V54.1472H465.071V40.5176H484.015Z" fill="white"/>
<path d="M487.172 64.6319H486.118V63.5822H485.064V62.5324H454.537V63.5822H455.59V64.6319H456.644V65.6816H457.698V66.7313H488.226V65.6816H487.172V64.6319ZM451.383 60.4372H452.437V61.4869H453.491V59.3916H451.388V60.4372H451.383ZM487.172 43.6626V42.6129H486.118V41.5632H485.064V40.5135H466.116V41.5632H467.17V42.6129H468.224V43.6626H469.278V44.7123H488.226V43.6626H487.172Z" fill="#FFBC98"/>
<path d="M480.857 61.4869H482.965V55.1969H464.017V39.4679H482.965V33.1779H454.541V36.3229H451.383V58.3419H454.541V61.4869H480.857Z" fill="#FFE100"/>
<path d="M454.541 33.1779V36.3229H451.383V58.3419H452.437V37.3726H455.595V34.2276H482.961V33.1779H454.541ZM465.071 56.2425H482.965V55.1928H465.071V56.2425ZM454.541 60.4372V61.4869H455.595V59.3916H454.541V60.4372Z" fill="#FFF687"/>
<path opacity="0.55" d="M456.648 35.2732V38.4182H453.491V58.3378H454.545V39.4679H457.702V36.3229H482.965V35.2732H456.648ZM467.174 57.2922V58.3419H482.965V57.2922H467.174Z" fill="#FFF687"/>
<path opacity="0.78" d="M466.12 57.2922H482.961V56.2425H466.12V57.2922ZM455.595 34.2276V37.3726H452.437V58.3419H453.491V38.4223H456.648V35.2773H482.965V34.2276H455.595ZM455.595 61.4869H456.648V60.4372H455.595V61.4869Z" fill="#FFF687"/>
<path opacity="0.33" d="M468.228 59.3916H482.965V58.3419H468.228V59.3916ZM457.702 36.3229V39.4679H454.545V59.3875H455.599V40.5176H458.756V37.3726H482.965V36.3229H457.702Z" fill="#FFF687"/>
<path opacity="0.1" d="M458.752 37.3726V40.5176H455.595V60.4372H456.648V41.5673H459.806V38.4223H482.965V37.3726H458.752ZM469.278 60.4372H482.961V59.3916H469.278V60.4372Z" fill="#FFF687"/>
</g>
<defs>
<clipPath id="clip0_17_935">
<rect width="340" height="37" fill="white" transform="translate(278 31)"/>
</clipPath>
</defs>
</svg>
