<svg width="108" height="27" viewBox="0 0 108 27" fill="none" xmlns="http://www.w3.org/2000/svg" shape-rendering="crispEdges" preserveAspectRatio="none">
<rect x="37.8337" y="8.73087" width="2.91029" height="2.91029" fill="#F99ECF"/>
<rect x="40.744" y="8.73087" width="2.91029" height="2.91029" fill="#F99ECF"/>
<rect x="40.744" y="11.6412" width="2.91029" height="2.91029" fill="#F99ECF"/>
<rect x="37.8337" y="11.6412" width="2.91029" height="2.91029" fill="#F99ECF"/>
<rect x="40.744" y="14.5514" width="2.91029" height="2.91029" fill="#F99ECF"/>
<rect x="37.8337" y="14.5514" width="2.91029" height="2.91029" fill="#F99ECF"/>
<rect x="34.9235" y="14.5514" width="2.91029" height="2.91029" fill="#F99ECF"/>
<rect x="43.6543" y="8.73087" width="2.91029" height="2.91029" fill="#F99ECF"/>
<rect x="43.6543" y="11.6412" width="2.91029" height="2.91029" fill="#F99ECF"/>
<rect x="43.6543" y="14.5514" width="2.91029" height="2.91029" fill="#F99ECF"/>
<rect x="46.5646" y="8.73087" width="2.91029" height="2.91029" fill="#F99ECF"/>
<rect x="46.5646" y="11.6412" width="2.91029" height="2.91029" fill="#F99ECF"/>
<rect x="46.5646" y="14.5514" width="2.91029" height="2.91029" fill="#F99ECF"/>
<rect x="49.4749" y="8.73087" width="2.91029" height="2.91029" fill="#F99ECF"/>
<rect x="49.4749" y="11.6412" width="2.91029" height="2.91029" fill="#F99ECF"/>
<rect x="49.4749" y="14.5514" width="2.91029" height="2.91029" fill="#F99ECF"/>
<rect x="52.3853" y="8.73087" width="2.91029" height="2.91029" fill="#F99ECF"/>
<rect x="52.3853" y="11.6412" width="2.91029" height="2.91029" fill="#F99ECF"/>
<rect x="52.3853" y="14.5514" width="2.91029" height="2.91029" fill="#F99ECF"/>
<rect x="55.2955" y="8.73087" width="2.91029" height="2.91029" fill="#F99ECF"/>
<rect x="55.2955" y="11.6412" width="2.91029" height="2.91029" fill="#F99ECF"/>
<rect x="55.2955" y="14.5514" width="2.91029" height="2.91029" fill="#F99ECF"/>
<rect x="58.2058" y="8.73087" width="2.91029" height="2.91029" fill="#F99ECF"/>
<rect x="58.2058" y="11.6412" width="2.91029" height="2.91029" fill="#F99ECF"/>
<rect x="58.2058" y="14.5514" width="2.91029" height="2.91029" fill="#F99ECF"/>
<rect x="61.1161" y="8.73087" width="2.91029" height="2.91029" fill="#F99ECF"/>
<rect x="61.1161" y="11.6412" width="2.91029" height="2.91029" fill="#F99ECF"/>
<rect x="61.1161" y="14.5514" width="2.91029" height="2.91029" fill="#F99ECF"/>
<rect x="64.0264" y="8.73087" width="2.91029" height="2.91029" fill="#F99ECF"/>
<rect x="66.9366" y="8.73087" width="2.91029" height="2.91029" fill="#F99ECF"/>
<rect x="66.9366" y="11.6412" width="2.91029" height="2.91029" fill="#F99ECF"/>
<rect x="69.8469" y="11.6412" width="2.91029" height="2.91029" fill="#F99ECF"/>
<rect x="72.7572" y="11.6412" width="2.91029" height="2.91029" fill="#F99ECF"/>
<rect x="75.6675" y="11.6412" width="2.91029" height="2.91029" fill="#F99ECF"/>
<rect x="72.7572" y="14.5514" width="2.91029" height="2.91029" fill="#F99ECF"/>
<rect x="69.8469" y="14.5514" width="2.91029" height="2.91029" fill="#F99ECF"/>
<rect x="66.9366" y="14.5514" width="2.91029" height="2.91029" fill="#F99ECF"/>
<rect x="69.8469" y="8.73087" width="2.91029" height="2.91029" fill="#F99ECF"/>
<rect x="72.7572" y="8.73087" width="2.91029" height="2.91029" fill="#F99ECF"/>
<rect x="75.6675" y="8.73087" width="2.91029" height="2.91029" fill="#F99ECF"/>
<rect x="78.5778" y="8.73087" width="2.91029" height="2.91029" fill="#F99ECF"/>
<rect x="64.0264" y="11.6412" width="2.91029" height="2.91029" fill="#F99ECF"/>
<rect x="64.0264" y="14.5514" width="2.91029" height="2.91029" fill="#F99ECF"/>
<rect x="81.488" y="8.73087" width="2.91029" height="2.91029" fill="#F99ECF"/>
<rect x="11.6411" y="14.5514" width="2.91029" height="2.91029" fill="#FF00C7"/>
<rect x="14.5514" y="14.5514" width="2.91029" height="2.91029" fill="#FF00C7"/>
<rect x="17.4617" y="14.5514" width="2.91029" height="2.91029" fill="#FF00C7"/>
<rect x="17.4617" y="11.6412" width="2.91029" height="2.91029" fill="#FF00C7"/>
<rect x="17.4617" y="8.73087" width="2.91029" height="2.91029" fill="#FF00C7"/>
<rect x="14.5514" y="3.10431" width="2.91029" height="2.91029" fill="#E30CB4"/>
<rect x="11.6411" y="0.194016" width="2.91029" height="2.91029" fill="#E30CB4"/>
<rect x="8.73083" y="0.194016" width="2.91029" height="2.91029" fill="#E30CB4"/>
<rect x="5.82056" y="2.91029" width="2.91029" height="2.91029" fill="#E30CB4"/>
<rect x="2.91028" y="6.0146" width="2.91029" height="2.91029" fill="#E30CB4"/>
<rect x="2.91028" y="8.73087" width="2.91029" height="2.91029" fill="#E30CB4"/>
<rect x="5.82056" y="11.6412" width="2.91029" height="2.91029" fill="#E30CB4"/>
<rect x="8.73083" y="14.5514" width="2.91029" height="2.91029" fill="#E30CB4"/>
<rect x="11.6411" y="17.4617" width="2.91029" height="2.91029" fill="#E30CB4"/>
<rect x="14.5514" y="20.372" width="2.91029" height="2.91029" fill="#E30CB4"/>
<rect x="17.4617" y="23.2823" width="2.91029" height="2.91029" fill="#E30CB4"/>
<rect x="20.3721" y="20.372" width="2.91029" height="2.91029" fill="#E30CB4"/>
<rect x="23.2823" y="17.4617" width="2.91029" height="2.91029" fill="#E30CB4"/>
<rect x="23.2823" y="20.372" width="2.91029" height="2.91029" fill="#E30CB4"/>
<rect x="26.1926" y="20.372" width="2.91029" height="2.91029" fill="#E30CB4"/>
<rect x="64.0264" y="20.372" width="2.91029" height="2.91029" fill="#E30CB4"/>
<rect x="96.0396" y="20.372" width="2.91029" height="2.91029" fill="#E30CB4"/>
<rect x="104.77" y="20.372" width="2.91029" height="2.91029" fill="#E30CB4"/>
<rect x="104.77" y="17.4617" width="2.91029" height="2.91029" fill="#E30CB4"/>
<rect x="104.77" y="14.5514" width="2.91029" height="2.91029" fill="#E30CB4"/>
<rect x="104.77" y="11.6412" width="2.91029" height="2.91029" fill="#E30CB4"/>
<rect x="104.77" y="8.92488" width="2.91029" height="2.91029" fill="#E30CB4"/>
<rect x="61.1161" y="20.372" width="2.91029" height="2.91029" fill="#E30CB4"/>
<rect x="93.1293" y="20.372" width="2.91029" height="2.91029" fill="#E30CB4"/>
<rect x="61.1161" y="6.0146" width="2.91029" height="2.91029" fill="#E30CB4"/>
<rect x="93.1293" y="6.0146" width="2.91029" height="2.91029" fill="#E30CB4"/>
<rect x="58.2058" y="20.372" width="2.91029" height="2.91029" fill="#E30CB4"/>
<rect x="90.219" y="20.372" width="2.91029" height="2.91029" fill="#E30CB4"/>
<rect x="58.2058" y="6.0146" width="2.91029" height="2.91029" fill="#E30CB4"/>
<rect x="90.219" y="6.0146" width="2.91029" height="2.91029" fill="#E30CB4"/>
<rect x="55.2955" y="20.372" width="2.91029" height="2.91029" fill="#E30CB4"/>
<rect x="87.3086" y="20.372" width="2.91029" height="2.91029" fill="#E30CB4"/>
<rect x="55.2955" y="6.0146" width="2.91029" height="2.91029" fill="#E30CB4"/>
<rect x="87.3086" y="6.0146" width="2.91029" height="2.91029" fill="#E30CB4"/>
<rect x="52.3853" y="20.372" width="2.91029" height="2.91029" fill="#E30CB4"/>
<rect x="84.3983" y="20.372" width="2.91029" height="2.91029" fill="#E30CB4"/>
<rect x="52.3853" y="6.0146" width="2.91029" height="2.91029" fill="#E30CB4"/>
<rect x="84.3983" y="6.0146" width="2.91029" height="2.91029" fill="#E30CB4"/>
<rect x="49.4749" y="20.372" width="2.91029" height="2.91029" fill="#E30CB4"/>
<rect x="81.488" y="20.372" width="2.91029" height="2.91029" fill="#E30CB4"/>
<rect x="49.4749" y="6.0146" width="2.91029" height="2.91029" fill="#E30CB4"/>
<rect x="81.488" y="6.0146" width="2.91029" height="2.91029" fill="#E30CB4"/>
<rect x="46.5646" y="20.372" width="2.91029" height="2.91029" fill="#E30CB4"/>
<rect x="78.5778" y="20.372" width="2.91029" height="2.91029" fill="#E30CB4"/>
<rect x="46.5646" y="6.0146" width="2.91029" height="2.91029" fill="#E30CB4"/>
<rect x="78.5778" y="6.0146" width="2.91029" height="2.91029" fill="#E30CB4"/>
<rect x="43.6543" y="20.372" width="2.91029" height="2.91029" fill="#E30CB4"/>
<rect x="75.6675" y="20.372" width="2.91029" height="2.91029" fill="#E30CB4"/>
<rect x="43.6543" y="6.0146" width="2.91029" height="2.91029" fill="#E30CB4"/>
<rect x="75.6675" y="6.0146" width="2.91029" height="2.91029" fill="#E30CB4"/>
<rect x="40.744" y="20.372" width="2.91029" height="2.91029" fill="#E30CB4"/>
<rect x="72.7572" y="20.372" width="2.91029" height="2.91029" fill="#E30CB4"/>
<rect x="104.77" y="20.372" width="2.91029" height="2.91029" fill="#E30CB4"/>
<rect x="40.744" y="6.0146" width="2.91029" height="2.91029" fill="#E30CB4"/>
<rect x="72.7572" y="6.0146" width="2.91029" height="2.91029" fill="#E30CB4"/>
<rect x="104.77" y="6.0146" width="2.91029" height="2.91029" fill="#E30CB4"/>
<rect x="37.8337" y="20.372" width="2.91029" height="2.91029" fill="#E30CB4"/>
<rect x="69.8469" y="20.372" width="2.91029" height="2.91029" fill="#E30CB4"/>
<rect x="101.86" y="20.372" width="2.91029" height="2.91029" fill="#E30CB4"/>
<rect x="34.9235" y="20.372" width="2.91029" height="2.91029" fill="#E30CB4"/>
<rect x="66.9366" y="20.372" width="2.91029" height="2.91029" fill="#E30CB4"/>
<rect x="98.9498" y="20.372" width="2.91029" height="2.91029" fill="#E30CB4"/>
<rect x="32.0132" y="20.372" width="2.91029" height="2.91029" fill="#E30CB4"/>
<rect x="29.1029" y="20.372" width="2.91029" height="2.91029" fill="#E30CB4"/>
<rect x="64.0264" y="6.0146" width="2.91029" height="2.91029" fill="#E30CB4"/>
<rect x="96.0396" y="6.0146" width="2.91029" height="2.91029" fill="#E30CB4"/>
<rect x="104.77" y="6.0146" width="2.91029" height="2.91029" fill="#E30CB4"/>
<rect x="26.1926" y="14.5514" width="2.91029" height="2.91029" fill="#E30CB4"/>
<rect x="29.1029" y="11.6412" width="2.91029" height="2.91029" fill="#E30CB4"/>
<rect x="32.0132" y="8.73087" width="2.91029" height="2.91029" fill="#E30CB4"/>
<rect x="32.0132" y="6.0146" width="2.91029" height="2.91029" fill="#E30CB4"/>
<rect x="34.9235" y="6.0146" width="2.91029" height="2.91029" fill="#E30CB4"/>
<rect x="66.9366" y="6.0146" width="2.91029" height="2.91029" fill="#E30CB4"/>
<rect x="98.9498" y="6.0146" width="2.91029" height="2.91029" fill="#E30CB4"/>
<rect x="37.8337" y="6.0146" width="2.91029" height="2.91029" fill="#E30CB4"/>
<rect x="69.8469" y="6.0146" width="2.91029" height="2.91029" fill="#E30CB4"/>
<rect x="101.86" y="6.0146" width="2.91029" height="2.91029" fill="#E30CB4"/>
<rect x="29.1029" y="2.91029" width="2.91029" height="2.91029" fill="#E30CB4"/>
<rect x="26.1926" width="2.91029" height="2.91029" fill="#E30CB4"/>
<rect x="23.2823" width="2.91029" height="2.91029" fill="#E30CB4"/>
<rect x="20.3721" y="2.91029" width="2.91029" height="2.91029" fill="#E30CB4"/>
<rect x="17.4617" y="6.0146" width="2.91029" height="2.91029" fill="#E30CB4"/>
<rect x="11.6411" y="3.10431" width="2.91029" height="2.91029" fill="#FF00C7"/>
<rect x="8.73083" y="3.10431" width="2.91029" height="2.91029" fill="#FF00C7"/>
<rect x="5.82056" y="5.82057" width="2.91029" height="2.91029" fill="#FF00C7"/>
<rect x="11.6411" y="5.82057" width="2.91029" height="2.91029" fill="#FFDBF7"/>
<rect x="8.73083" y="8.73087" width="2.91029" height="2.91029" fill="#FFDBF7"/>
<rect x="8.73083" y="5.82057" width="2.91029" height="2.91029" fill="#FF00C7"/>
<rect x="14.5514" y="6.0146" width="2.91029" height="2.91029" fill="#FF00C7"/>
<rect x="14.5514" y="8.73087" width="2.91029" height="2.91029" fill="#FF00C7"/>
<rect x="14.5514" y="11.6412" width="2.91029" height="2.91029" fill="#FF00C7"/>
<rect x="11.6411" y="11.6412" width="2.91029" height="2.91029" fill="#FF00C7"/>
<rect x="11.6411" y="8.73087" width="2.91029" height="2.91029" fill="#FF00C7"/>
<rect x="8.73083" y="11.6412" width="2.91029" height="2.91029" fill="#FF00C7"/>
<rect x="5.82056" y="8.73087" width="2.91029" height="2.91029" fill="#FF00C7"/>
<rect x="17.4617" y="20.372" width="2.91029" height="2.91029" fill="#FF00C7"/>
<rect x="20.3721" y="17.4617" width="2.91029" height="2.91029" fill="#FF00C7"/>
<rect x="17.4617" y="17.4617" width="2.91029" height="2.91029" fill="#FF00C7"/>
<rect x="14.5514" y="17.4617" width="2.91029" height="2.91029" fill="#FF00C7"/>
<rect x="23.2823" y="14.5514" width="2.91029" height="2.91029" fill="#FF00C7"/>
<rect x="23.2823" y="11.6412" width="2.91029" height="2.91029" fill="#FF00C7"/>
<rect x="23.2823" y="8.73087" width="2.91029" height="2.91029" fill="#FF00C7"/>
<rect x="20.3721" y="5.82057" width="2.91029" height="2.91029" fill="#FF00C7"/>
<rect x="20.3721" y="8.73087" width="2.91029" height="2.91029" fill="#FF00C7"/>
<rect x="20.3721" y="11.6412" width="2.91029" height="2.91029" fill="#FF00C7"/>
<rect x="20.3721" y="14.5514" width="2.91029" height="2.91029" fill="#FF00C7"/>
<rect x="23.2823" y="5.82057" width="2.91029" height="2.91029" fill="#FF00C7"/>
<rect x="23.2823" y="2.91029" width="2.91029" height="2.91029" fill="#FF00C7"/>
<rect x="26.1926" y="2.91029" width="2.91029" height="2.91029" fill="#FF00C7"/>
<rect x="26.1926" y="5.82057" width="2.91029" height="2.91029" fill="#FF00C7"/>
<rect x="26.1926" y="8.73087" width="2.91029" height="2.91029" fill="#FF00C7"/>
<rect x="26.1926" y="11.6412" width="2.91029" height="2.91029" fill="#FF00C7"/>
<rect x="29.1029" y="5.82057" width="2.91029" height="2.91029" fill="#FF00C7"/>
<rect x="29.1029" y="8.73087" width="2.91029" height="2.91029" fill="#FF00C7"/>
<rect x="14.5514" y="23.2823" width="2.91029" height="2.91029" fill="#F99ECF"/>
<rect x="11.6411" y="20.372" width="2.91029" height="2.91029" fill="#F99ECF"/>
<rect x="17.4617" y="3.10431" width="2.91029" height="2.91029" fill="#F99ECF"/>
<rect x="8.73083" y="17.4617" width="2.91029" height="2.91029" fill="#F99ECF"/>
<rect x="5.82056" y="14.5514" width="2.91029" height="2.91029" fill="#F99ECF"/>
<rect x="2.91028" y="11.6412" width="2.91029" height="2.91029" fill="#F99ECF"/>
<rect y="8.73087" width="2.91029" height="2.91029" fill="#F99ECF"/>
<rect y="6.0146" width="2.91029" height="2.91029" fill="#F99ECF"/>
<rect x="2.91028" y="3.10431" width="2.91029" height="2.91029" fill="#F99ECF"/>
<rect x="5.82056" y="0.194016" width="2.91029" height="2.91029" fill="#F99ECF"/>
<rect x="20.3721" width="2.91029" height="2.91029" fill="#F99ECF"/>
<rect x="34.9235" y="8.92488" width="2.91029" height="2.91029" fill="#F99ECF"/>
<rect x="34.9235" y="11.6412" width="2.91029" height="2.91029" fill="#F99ECF"/>
<rect x="32.0132" y="11.6412" width="2.91029" height="2.91029" fill="#F99ECF"/>
<rect x="32.0132" y="14.5514" width="2.91029" height="2.91029" fill="#F99ECF"/>
<rect x="32.0132" y="17.4617" width="2.91029" height="2.91029" fill="#F99ECF"/>
<rect x="78.5778" y="11.6412" width="2.91029" height="2.91029" fill="#F99ECF"/>
<rect x="75.6675" y="14.5514" width="2.91029" height="2.91029" fill="#F99ECF"/>
<rect x="72.7572" y="17.4617" width="2.91029" height="2.91029" fill="#F99ECF"/>
<rect x="69.8469" y="17.4617" width="2.91029" height="2.91029" fill="#F99ECF"/>
<rect x="66.9366" y="17.4617" width="2.91029" height="2.91029" fill="#F99ECF"/>
<rect x="64.0264" y="17.4617" width="2.91029" height="2.91029" fill="#F99ECF"/>
<rect x="61.1161" y="17.4617" width="2.91029" height="2.91029" fill="#F99ECF"/>
<rect x="58.2058" y="17.4617" width="2.91029" height="2.91029" fill="#F99ECF"/>
<rect x="55.2955" y="17.4617" width="2.91029" height="2.91029" fill="#F99ECF"/>
<rect x="52.3853" y="17.4617" width="2.91029" height="2.91029" fill="#F99ECF"/>
<rect x="49.4749" y="17.4617" width="2.91029" height="2.91029" fill="#F99ECF"/>
<rect x="46.5646" y="17.4617" width="2.91029" height="2.91029" fill="#F99ECF"/>
<rect x="43.6543" y="17.4617" width="2.91029" height="2.91029" fill="#F99ECF"/>
<rect x="40.744" y="17.4617" width="2.91029" height="2.91029" fill="#F99ECF"/>
<rect x="37.8337" y="17.4617" width="2.91029" height="2.91029" fill="#F99ECF"/>
<rect x="34.9235" y="17.4617" width="2.91029" height="2.91029" fill="#F99ECF"/>
<rect x="29.1029" y="14.5514" width="2.91029" height="2.91029" fill="#F99ECF"/>
<rect x="29.1029" y="17.4617" width="2.91029" height="2.91029" fill="#F99ECF"/>
<rect x="26.1926" y="17.4617" width="2.91029" height="2.91029" fill="#F99ECF"/>
</svg>
