<svg width="326" height="82" viewBox="0 0 326 82" fill="none" xmlns="http://www.w3.org/2000/svg" preserveAspectRatio="none">
<path d="M320.856 58.3445V52.51V46.6756V40.8411V35.0067V29.1723V23.3378V17.5034V11.6689H315.842V5.83447H310.829H305.816H300.802H295.789H290.776H285.762H280.749H275.735H270.722H265.709H260.695H255.682H250.669H245.655H240.642H235.628H230.615H225.602H220.588H215.575H210.562H205.548H200.535H195.521H190.508H185.495H180.481H175.468H170.455H165.441H160.428H155.414H150.401H145.388H140.374H135.361H130.348H125.334H120.321H115.308H110.294H105.281H100.267H95.254H90.2407H85.2273H80.2139H75.2006H70.1872H65.1738H60.1604H55.1471H50.1337H45.1203H40.107H35.0936H30.0802H25.0669H20.0535H15.0401H10.0267V11.6689H5.01337V17.5034V23.3378V29.1723V35.0067V40.8411V46.6756V52.51V58.3445V64.1789V70.0134H10.0267V75.8478H15.0401H20.0535H25.0669H30.0802H35.0936H40.107H45.1203H50.1337H55.1471H60.1604H65.1738H70.1872H75.2006H80.2139H85.2273H90.2407H95.254H100.267H105.281H110.294H115.308H120.321H125.334H130.348H135.361H140.374H145.388H150.401H155.414H160.428H165.441H170.455H175.468H180.481H185.495H190.508H195.521H200.535H205.548H210.562H215.575H220.588H225.602H230.615H235.628H240.642H245.655H250.669H255.682H260.695H265.709H270.722H275.735H280.749H285.762H290.776H295.789H300.802H305.816H310.829H315.842V70.0134H320.856V64.1789V58.3445Z" fill="#FFF9D7"/>
<path d="M5.01337 40.8411H0V46.6756H5.01337V40.8411Z" fill="#E6844F"/>
<path d="M5.01337 46.6756H0V52.51H5.01337V46.6756Z" fill="#E6844F"/>
<path d="M5.01337 52.51H0V58.3445H5.01337V52.51Z" fill="#E6844F"/>
<path d="M5.01337 58.3445H0V64.1789H5.01337V58.3445Z" fill="#E6844F"/>
<path d="M5.01337 64.1789H0V70.0133H5.01337V64.1789Z" fill="#E6844F"/>
<path d="M10.0267 5.83447H5.01337V11.6689H10.0267V5.83447Z" fill="#E6844F"/>
<path d="M5.01337 17.5034H0V23.3378H5.01337V17.5034Z" fill="#E6844F"/>
<path d="M5.01337 11.6689H0V17.5033H5.01337V11.6689Z" fill="#E6844F"/>
<path d="M5.01337 23.3378H0V29.1722H5.01337V23.3378Z" fill="#E6844F"/>
<path d="M5.01337 29.1722H0V35.0067H5.01337V29.1722Z" fill="#E6844F"/>
<path d="M5.01337 35.0067H0V40.8412H5.01337V35.0067Z" fill="#E6844F"/>
<path d="M10.0267 70.0134H5.01337V75.8478H10.0267V70.0134Z" fill="#E6844F"/>
<path d="M20.0535 75.8478H15.0401V81.6823H20.0535V75.8478Z" fill="#E6844F"/>
<path d="M15.0401 75.8478H10.0267V81.6823H15.0401V75.8478Z" fill="#E6844F"/>
<path d="M25.0668 75.8478H20.0535V81.6823H25.0668V75.8478Z" fill="#E6844F"/>
<path d="M30.0802 75.8478H25.0668V81.6823H30.0802V75.8478Z" fill="#E6844F"/>
<path d="M35.0936 75.8478H30.0803V81.6823H35.0936V75.8478Z" fill="#E6844F"/>
<path d="M40.107 75.8478H35.0936V81.6823H40.107V75.8478Z" fill="#E6844F"/>
<path d="M45.1203 75.8478H40.1069V81.6823H45.1203V75.8478Z" fill="#E6844F"/>
<path d="M50.1337 75.8478H45.1203V81.6823H50.1337V75.8478Z" fill="#E6844F"/>
<path d="M55.1471 75.8478H50.1337V81.6823H55.1471V75.8478Z" fill="#E6844F"/>
<path d="M60.1605 75.8478H55.1471V81.6823H60.1605V75.8478Z" fill="#E6844F"/>
<path d="M65.1738 75.8478H60.1605V81.6823H65.1738V75.8478Z" fill="#E6844F"/>
<path d="M70.1872 75.8478H65.1738V81.6823H70.1872V75.8478Z" fill="#E6844F"/>
<path d="M75.2006 75.8478H70.1872V81.6823H75.2006V75.8478Z" fill="#E6844F"/>
<path d="M95.2541 75.8478H90.2407V81.6823H95.2541V75.8478Z" fill="#E6844F"/>
<path d="M80.2139 75.8478H75.2006V81.6823H80.2139V75.8478Z" fill="#E6844F"/>
<path d="M85.2273 75.8478H80.2139V81.6823H85.2273V75.8478Z" fill="#E6844F"/>
<path d="M90.2407 75.8478H85.2274V81.6823H90.2407V75.8478Z" fill="#E6844F"/>
<path d="M100.267 75.8478H95.254V81.6823H100.267V75.8478Z" fill="#E6844F"/>
<path d="M105.281 75.8478H100.267V81.6823H105.281V75.8478Z" fill="#E6844F"/>
<path d="M110.294 75.8478H105.281V81.6823H110.294V75.8478Z" fill="#E6844F"/>
<path d="M115.308 75.8478H110.294V81.6823H115.308V75.8478Z" fill="#E6844F"/>
<path d="M120.321 75.8478H115.307V81.6823H120.321V75.8478Z" fill="#E6844F"/>
<path d="M125.334 75.8478H120.321V81.6823H125.334V75.8478Z" fill="#E6844F"/>
<path d="M130.348 75.8478H125.334V81.6823H130.348V75.8478Z" fill="#E6844F"/>
<path d="M135.361 75.8478H130.348V81.6823H135.361V75.8478Z" fill="#E6844F"/>
<path d="M140.374 75.8478H135.361V81.6823H140.374V75.8478Z" fill="#E6844F"/>
<path d="M145.388 75.8478H140.374V81.6823H145.388V75.8478Z" fill="#E6844F"/>
<path d="M150.401 75.8478H145.388V81.6823H150.401V75.8478Z" fill="#E6844F"/>
<path d="M155.414 75.8478H150.401V81.6823H155.414V75.8478Z" fill="#E6844F"/>
<path d="M160.428 75.8478H155.414V81.6823H160.428V75.8478Z" fill="#E6844F"/>
<path d="M165.441 75.8478H160.428V81.6823H165.441V75.8478Z" fill="#E6844F"/>
<path d="M170.455 75.8478H165.441V81.6823H170.455V75.8478Z" fill="#E6844F"/>
<path d="M175.468 75.8478H170.455V81.6823H175.468V75.8478Z" fill="#E6844F"/>
<path d="M180.481 75.8478H175.468V81.6823H180.481V75.8478Z" fill="#E6844F"/>
<path d="M185.495 75.8478H180.481V81.6823H185.495V75.8478Z" fill="#E6844F"/>
<path d="M190.508 75.8478H185.495V81.6823H190.508V75.8478Z" fill="#E6844F"/>
<path d="M195.521 75.8478H190.508V81.6823H195.521V75.8478Z" fill="#E6844F"/>
<path d="M235.628 75.8478H230.615V81.6823H235.628V75.8478Z" fill="#E6844F"/>
<path d="M290.776 75.8478H285.762V81.6823H290.776V75.8478Z" fill="#E6844F"/>
<path d="M240.642 75.8478H235.628V81.6823H240.642V75.8478Z" fill="#E6844F"/>
<path d="M245.655 75.8478H240.642V81.6823H245.655V75.8478Z" fill="#E6844F"/>
<path d="M250.669 75.8478H245.655V81.6823H250.669V75.8478Z" fill="#E6844F"/>
<path d="M325.869 46.6756H320.856V52.51H325.869V46.6756Z" fill="#E6844F"/>
<path d="M325.869 52.51H320.856V58.3445H325.869V52.51Z" fill="#E6844F"/>
<path d="M325.869 58.3445H320.856V64.1789H325.869V58.3445Z" fill="#E6844F"/>
<path d="M325.869 64.1789H320.856V70.0133H325.869V64.1789Z" fill="#E6844F"/>
<path d="M325.869 40.8411H320.856V46.6756H325.869V40.8411Z" fill="#E6844F"/>
<path d="M325.869 23.3378H320.856V29.1722H325.869V23.3378Z" fill="#E6844F"/>
<path d="M325.869 29.1722H320.856V35.0067H325.869V29.1722Z" fill="#E6844F"/>
<path d="M325.869 35.0067H320.856V40.8412H325.869V35.0067Z" fill="#E6844F"/>
<path d="M325.869 17.5034H320.856V23.3378H325.869V17.5034Z" fill="#E6844F"/>
<path d="M325.869 11.6689H320.856V17.5033H325.869V11.6689Z" fill="#E6844F"/>
<path d="M320.856 5.83447H315.842V11.6689H320.856V5.83447Z" fill="#E6844F"/>
<path d="M320.856 70.0134H315.842V75.8478H320.856V70.0134Z" fill="#E6844F"/>
<path d="M310.829 75.8478H305.816V81.6823H310.829V75.8478Z" fill="#E6844F"/>
<path d="M315.842 75.8478H310.829V81.6823H315.842V75.8478Z" fill="#E6844F"/>
<path d="M295.789 75.8478H290.776V81.6823H295.789V75.8478Z" fill="#E6844F"/>
<path d="M300.802 75.8478H295.789V81.6823H300.802V75.8478Z" fill="#E6844F"/>
<path d="M305.816 75.8478H300.802V81.6823H305.816V75.8478Z" fill="#E6844F"/>
<path d="M20.0535 0H15.0401V5.83445H20.0535V0Z" fill="#E6844F"/>
<path d="M15.0401 0H10.0267V5.83445H15.0401V0Z" fill="#E6844F"/>
<path d="M25.0668 0H20.0535V5.83445H25.0668V0Z" fill="#E6844F"/>
<path d="M30.0802 0H25.0668V5.83445H30.0802V0Z" fill="#E6844F"/>
<path d="M35.0936 0H30.0803V5.83445H35.0936V0Z" fill="#E6844F"/>
<path d="M40.107 0H35.0936V5.83445H40.107V0Z" fill="#E6844F"/>
<path d="M45.1203 0H40.1069V5.83445H45.1203V0Z" fill="#E6844F"/>
<path d="M50.1337 0H45.1203V5.83445H50.1337V0Z" fill="#E6844F"/>
<path d="M55.1471 0H50.1337V5.83445H55.1471V0Z" fill="#E6844F"/>
<path d="M60.1605 0H55.1471V5.83445H60.1605V0Z" fill="#E6844F"/>
<path d="M65.1738 0H60.1605V5.83445H65.1738V0Z" fill="#E6844F"/>
<path d="M70.1872 0H65.1738V5.83445H70.1872V0Z" fill="#E6844F"/>
<path d="M75.2006 0H70.1872V5.83445H75.2006V0Z" fill="#E6844F"/>
<path d="M95.2541 0H90.2407V5.83445H95.2541V0Z" fill="#E6844F"/>
<path d="M80.2139 0H75.2006V5.83445H80.2139V0Z" fill="#E6844F"/>
<path d="M85.2273 0H80.2139V5.83445H85.2273V0Z" fill="#E6844F"/>
<path d="M90.2407 0H85.2274V5.83445H90.2407V0Z" fill="#E6844F"/>
<path d="M100.267 0H95.254V5.83445H100.267V0Z" fill="#E6844F"/>
<path d="M105.281 0H100.267V5.83445H105.281V0Z" fill="#E6844F"/>
<path d="M110.294 0H105.281V5.83445H110.294V0Z" fill="#E6844F"/>
<path d="M115.308 0H110.294V5.83445H115.308V0Z" fill="#E6844F"/>
<path d="M120.321 0H115.307V5.83445H120.321V0Z" fill="#E6844F"/>
<path d="M125.334 0H120.321V5.83445H125.334V0Z" fill="#E6844F"/>
<path d="M130.348 0H125.334V5.83445H130.348V0Z" fill="#E6844F"/>
<path d="M135.361 0H130.348V5.83445H135.361V0Z" fill="#E6844F"/>
<path d="M140.374 0H135.361V5.83445H140.374V0Z" fill="#E6844F"/>
<path d="M145.388 0H140.374V5.83445H145.388V0Z" fill="#E6844F"/>
<path d="M150.401 0H145.388V5.83445H150.401V0Z" fill="#E6844F"/>
<path d="M155.414 0H150.401V5.83445H155.414V0Z" fill="#E6844F"/>
<path d="M160.428 0H155.414V5.83445H160.428V0Z" fill="#E6844F"/>
<path d="M165.441 0H160.428V5.83445H165.441V0Z" fill="#E6844F"/>
<path d="M170.455 0H165.441V5.83445H170.455V0Z" fill="#E6844F"/>
<path d="M175.468 0H170.455V5.83445H175.468V0Z" fill="#E6844F"/>
<path d="M180.481 0H175.468V5.83445H180.481V0Z" fill="#E6844F"/>
<path d="M185.495 0H180.481V5.83445H185.495V0Z" fill="#E6844F"/>
<path d="M190.508 0H185.495V5.83445H190.508V0Z" fill="#E6844F"/>
<path d="M195.521 0H190.508V5.83445H195.521V0Z" fill="#E6844F"/>
<path d="M200.535 75.8478H195.521V81.6823H200.535V75.8478Z" fill="#E6844F"/>
<path d="M205.548 75.8478H200.535V81.6823H205.548V75.8478Z" fill="#E6844F"/>
<path d="M210.562 75.8478H205.548V81.6823H210.562V75.8478Z" fill="#E6844F"/>
<path d="M215.575 75.8478H210.562V81.6823H215.575V75.8478Z" fill="#E6844F"/>
<path d="M220.588 75.8478H215.575V81.6823H220.588V75.8478Z" fill="#E6844F"/>
<path d="M225.602 75.8478H220.588V81.6823H225.602V75.8478Z" fill="#E6844F"/>
<path d="M230.615 75.8478H225.602V81.6823H230.615V75.8478Z" fill="#E6844F"/>
<path d="M200.535 0H195.521V5.83445H200.535V0Z" fill="#E6844F"/>
<path d="M205.548 0H200.535V5.83445H205.548V0Z" fill="#E6844F"/>
<path d="M210.562 0H205.548V5.83445H210.562V0Z" fill="#E6844F"/>
<path d="M215.575 0H210.562V5.83445H215.575V0Z" fill="#E6844F"/>
<path d="M220.588 0H215.575V5.83445H220.588V0Z" fill="#E6844F"/>
<path d="M225.602 0H220.588V5.83445H225.602V0Z" fill="#E6844F"/>
<path d="M230.615 0H225.602V5.83445H230.615V0Z" fill="#E6844F"/>
<path d="M235.628 0H230.615V5.83445H235.628V0Z" fill="#E6844F"/>
<path d="M290.776 0H285.762V5.83445H290.776V0Z" fill="#E6844F"/>
<path d="M240.642 0H235.628V5.83445H240.642V0Z" fill="#E6844F"/>
<path d="M245.655 0H240.642V5.83445H245.655V0Z" fill="#E6844F"/>
<path d="M250.669 0H245.655V5.83445H250.669V0Z" fill="#E6844F"/>
<path d="M270.722 75.8478H265.709V81.6823H270.722V75.8478Z" fill="#E6844F"/>
<path d="M275.735 75.8478H270.722V81.6823H275.735V75.8478Z" fill="#E6844F"/>
<path d="M280.749 75.8478H275.735V81.6823H280.749V75.8478Z" fill="#E6844F"/>
<path d="M285.762 75.8478H280.749V81.6823H285.762V75.8478Z" fill="#E6844F"/>
<path d="M255.682 75.8478H250.669V81.6823H255.682V75.8478Z" fill="#E6844F"/>
<path d="M260.695 75.8478H255.682V81.6823H260.695V75.8478Z" fill="#E6844F"/>
<path d="M265.709 75.8478H260.695V81.6823H265.709V75.8478Z" fill="#E6844F"/>
<path d="M255.682 0H250.669V5.83445H255.682V0Z" fill="#E6844F"/>
<path d="M260.695 0H255.682V5.83445H260.695V0Z" fill="#E6844F"/>
<path d="M265.709 0H260.695V5.83445H265.709V0Z" fill="#E6844F"/>
<path d="M270.722 0H265.709V5.83445H270.722V0Z" fill="#E6844F"/>
<path d="M275.735 0H270.722V5.83445H275.735V0Z" fill="#E6844F"/>
<path d="M280.749 0H275.735V5.83445H280.749V0Z" fill="#E6844F"/>
<path d="M285.762 0H280.749V5.83445H285.762V0Z" fill="#E6844F"/>
<path d="M310.829 0H305.816V5.83445H310.829V0Z" fill="#E6844F"/>
<path d="M315.842 0H310.829V5.83445H315.842V0Z" fill="#E6844F"/>
<path d="M295.789 0H290.776V5.83445H295.789V0Z" fill="#E6844F"/>
<path d="M300.802 0H295.789V5.83445H300.802V0Z" fill="#E6844F"/>
<path d="M305.816 0H300.802V5.83445H305.816V0Z" fill="#E6844F"/>
<path d="M120.321 5.83447H115.307V11.6689H120.321V5.83447Z" fill="#F5E982"/>
<path d="M125.334 5.83447H120.321V11.6689H125.334V5.83447Z" fill="#F5E982"/>
<path d="M130.348 5.83447H125.334V11.6689H130.348V5.83447Z" fill="#F5E982"/>
<path d="M135.361 5.83447H130.348V11.6689H135.361V5.83447Z" fill="#F5E982"/>
<path d="M20.0535 5.83447H15.0401V11.6689H20.0535V5.83447Z" fill="#F5E982"/>
<path d="M15.0401 5.83447H10.0267V11.6689H15.0401V5.83447Z" fill="#F5E982"/>
<path d="M10.0267 11.6689H5.01337V17.5034H10.0267V11.6689Z" fill="#F5E982"/>
<path d="M25.0668 5.83447H20.0535V11.6689H25.0668V5.83447Z" fill="#F5E982"/>
<path d="M30.0802 5.83447H25.0668V11.6689H30.0802V5.83447Z" fill="#F5E982"/>
<path d="M35.0936 5.83447H30.0802V11.6689H35.0936V5.83447Z" fill="#F5E982"/>
<path d="M40.1069 5.83447H35.0936V11.6689H40.1069V5.83447Z" fill="#F5E982"/>
<path d="M45.1203 5.83447H40.1069V11.6689H45.1203V5.83447Z" fill="#F5E982"/>
<path d="M50.1337 5.83447H45.1203V11.6689H50.1337V5.83447Z" fill="#F5E982"/>
<path d="M55.147 5.83447H50.1337V11.6689H55.147V5.83447Z" fill="#F5E982"/>
<path d="M60.1605 5.83447H55.1471V11.6689H60.1605V5.83447Z" fill="#F5E982"/>
<path d="M65.1738 5.83447H60.1605V11.6689H65.1738V5.83447Z" fill="#F5E982"/>
<path d="M70.1872 5.83447H65.1738V11.6689H70.1872V5.83447Z" fill="#F5E982"/>
<path d="M75.2006 5.83447H70.1872V11.6689H75.2006V5.83447Z" fill="#F5E982"/>
<path d="M190.508 5.83447H185.495V11.6689H190.508V5.83447Z" fill="#FFF271"/>
<path d="M195.521 5.83447H190.508V11.6689H195.521V5.83447Z" fill="#FFF271"/>
<path d="M200.535 5.83447H195.521V11.6689H200.535V5.83447Z" fill="#FFF271"/>
<path d="M140.374 5.83447H135.361V11.6689H140.374V5.83447Z" fill="#FFF271"/>
<path d="M145.388 5.83447H140.374V11.6689H145.388V5.83447Z" fill="#FFF271"/>
<path d="M150.401 5.83447H145.388V11.6689H150.401V5.83447Z" fill="#FFF271"/>
<path d="M155.414 5.83447H150.401V11.6689H155.414V5.83447Z" fill="#FFF271"/>
<path d="M165.441 5.83447H160.428V11.6689H165.441V5.83447Z" fill="#FFF271"/>
<path d="M170.455 5.83447H165.441V11.6689H170.455V5.83447Z" fill="#FFF271"/>
<path d="M175.468 5.83447H170.455V11.6689H175.468V5.83447Z" fill="#FFF271"/>
<path d="M180.481 5.83447H175.468V11.6689H180.481V5.83447Z" fill="#FFF271"/>
<path d="M185.495 5.83447H180.481V11.6689H185.495V5.83447Z" fill="#FFF271"/>
<path d="M205.548 5.83447H200.535V11.6689H205.548V5.83447Z" fill="#FFF271"/>
<path d="M210.562 5.83447H205.548V11.6689H210.562V5.83447Z" fill="#FFF271"/>
<path d="M215.575 5.83447H210.562V11.6689H215.575V5.83447Z" fill="#FFF271"/>
<path d="M220.588 5.83447H215.575V11.6689H220.588V5.83447Z" fill="#FFF271"/>
<path d="M225.602 5.83447H220.588V11.6689H225.602V5.83447Z" fill="#FFF271"/>
<path d="M230.615 5.83447H225.602V11.6689H230.615V5.83447Z" fill="#FFF271"/>
<path d="M235.628 5.83447H230.615V11.6689H235.628V5.83447Z" fill="#FFF271"/>
<path d="M240.642 5.83447H235.628V11.6689H240.642V5.83447Z" fill="#FFF271"/>
<path d="M245.655 5.83447H240.642V11.6689H245.655V5.83447Z" fill="#FFF271"/>
<path d="M250.669 5.83447H245.655V11.6689H250.669V5.83447Z" fill="#FFF271"/>
<path d="M255.682 5.83447H250.669V11.6689H255.682V5.83447Z" fill="#FFF271"/>
<path d="M260.695 5.83447H255.682V11.6689H260.695V5.83447Z" fill="#FFF271"/>
<path d="M265.709 5.83447H260.695V11.6689H265.709V5.83447Z" fill="#FFF271"/>
<path d="M270.722 5.83447H265.709V11.6689H270.722V5.83447Z" fill="#FFF271"/>
<path d="M275.735 5.83447H270.722V11.6689H275.735V5.83447Z" fill="#FFF271"/>
<path d="M280.749 5.83447H275.735V11.6689H280.749V5.83447Z" fill="#FFF271"/>
<path d="M285.762 5.83447H280.749V11.6689H285.762V5.83447Z" fill="#FFF271"/>
<path d="M290.776 5.83447H285.762V11.6689H290.776V5.83447Z" fill="#FFF271"/>
<path d="M295.789 5.83447H290.776V11.6689H295.789V5.83447Z" fill="#FFF271"/>
<path d="M300.802 5.83447H295.789V11.6689H300.802V5.83447Z" fill="#FFF271"/>
<path d="M305.816 5.83447H300.802V11.6689H305.816V5.83447Z" fill="#FFF271"/>
<path d="M90.2407 5.83447H85.2273V11.6689H90.2407V5.83447Z" fill="#FFF271"/>
<path d="M95.254 5.83447H90.2407V11.6689H95.254V5.83447Z" fill="#FFF271"/>
<path d="M100.267 5.83447H95.254V11.6689H100.267V5.83447Z" fill="#FFF271"/>
<path d="M105.281 5.83447H100.267V11.6689H105.281V5.83447Z" fill="#FFF271"/>
<path d="M110.294 5.83447H105.281V11.6689H110.294V5.83447Z" fill="#FFF271"/>
<path d="M115.308 5.83447H110.294V11.6689H115.308V5.83447Z" fill="#FFF271"/>
<path d="M160.428 5.83447H155.414V11.6689H160.428V5.83447Z" fill="#FFF271"/>
<path d="M80.2139 5.83447H75.2006V11.6689H80.2139V5.83447Z" fill="#FFF271"/>
<path d="M85.2273 5.83447H80.2139V11.6689H85.2273V5.83447Z" fill="#FFF271"/>
<path d="M165.441 70.0134H160.428V75.8478H165.441V70.0134Z" fill="#FFF9D7"/>
<path d="M15.0401 64.179H10.0267V70.0134H15.0401V64.179Z" fill="#FFF9D7"/>
<path d="M10.0267 64.179H5.01337V70.0134H10.0267V64.179Z" fill="#FFF9D7"/>
<path d="M10.0267 58.3445H5.01337V64.1789H10.0267V58.3445Z" fill="#FFF9D7"/>
<path d="M320.856 58.3445H315.842V64.1789H320.856V58.3445Z" fill="#FFF9D7"/>
<path d="M315.842 64.179H310.829V70.0134H315.842V64.179Z" fill="#FFF9D7"/>
<path d="M170.455 70.0134H165.441V75.8478H170.455V70.0134Z" fill="#FFF9D7"/>
<path d="M175.468 70.0134H170.455V75.8478H175.468V70.0134Z" fill="#FFF9D7"/>
<path d="M180.481 70.0134H175.468V75.8478H180.481V70.0134Z" fill="#FFF9D7"/>
<path d="M185.495 70.0134H180.481V75.8478H185.495V70.0134Z" fill="#FFF9D7"/>
<path d="M190.508 70.0134H185.495V75.8478H190.508V70.0134Z" fill="#FFF9D7"/>
<path d="M195.521 70.0134H190.508V75.8478H195.521V70.0134Z" fill="#FFF9D7"/>
<path d="M200.535 70.0134H195.521V75.8478H200.535V70.0134Z" fill="#FFF9D7"/>
<path d="M205.548 70.0134H200.535V75.8478H205.548V70.0134Z" fill="#FFF9D7"/>
<path d="M210.562 70.0134H205.548V75.8478H210.562V70.0134Z" fill="#FFF9D7"/>
<path d="M215.575 70.0134H210.562V75.8478H215.575V70.0134Z" fill="#FFF9D7"/>
<path d="M290.776 70.0134H285.762V75.8478H290.776V70.0134Z" fill="#FFF9D7"/>
<path d="M310.829 70.0134H305.816V75.8478H310.829V70.0134Z" fill="#FFF9D7"/>
<path d="M320.856 64.179H315.842V70.0134H320.856V64.179Z" fill="#FFF9D7"/>
<path d="M315.842 70.0134H310.829V75.8478H315.842V70.0134Z" fill="#FFF9D7"/>
<path d="M295.789 70.0134H290.776V75.8478H295.789V70.0134Z" fill="#FFF9D7"/>
<path d="M300.802 70.0134H295.789V75.8478H300.802V70.0134Z" fill="#FFF9D7"/>
<path d="M305.816 70.0134H300.802V75.8478H305.816V70.0134Z" fill="#FFF9D7"/>
<path d="M90.2407 70.0134H85.2273V75.8478H90.2407V70.0134Z" fill="#FFF9D7"/>
<path d="M95.254 70.0134H90.2407V75.8478H95.254V70.0134Z" fill="#FFF9D7"/>
<path d="M100.267 70.0134H95.254V75.8478H100.267V70.0134Z" fill="#FFF9D7"/>
<path d="M105.281 70.0134H100.267V75.8478H105.281V70.0134Z" fill="#FFF9D7"/>
<path d="M110.294 70.0134H105.281V75.8478H110.294V70.0134Z" fill="#FFF9D7"/>
<path d="M115.308 70.0134H110.294V75.8478H115.308V70.0134Z" fill="#FFF9D7"/>
<path d="M120.321 70.0134H115.307V75.8478H120.321V70.0134Z" fill="#FFF9D7"/>
<path d="M125.334 70.0134H120.321V75.8478H125.334V70.0134Z" fill="#FFF9D7"/>
<path d="M130.348 70.0134H125.334V75.8478H130.348V70.0134Z" fill="#FFF9D7"/>
<path d="M135.361 70.0134H130.348V75.8478H135.361V70.0134Z" fill="#FFF9D7"/>
<path d="M140.374 70.0134H135.361V75.8478H140.374V70.0134Z" fill="#FFF9D7"/>
<path d="M145.388 70.0134H140.374V75.8478H145.388V70.0134Z" fill="#FFF9D7"/>
<path d="M150.401 70.0134H145.388V75.8478H150.401V70.0134Z" fill="#FFF9D7"/>
<path d="M155.414 70.0134H150.401V75.8478H155.414V70.0134Z" fill="#FFF9D7"/>
<path d="M160.428 70.0134H155.414V75.8478H160.428V70.0134Z" fill="#FFF9D7"/>
<path d="M20.0535 70.0134H15.0401V75.8478H20.0535V70.0134Z" fill="#FFF9D7"/>
<path d="M15.0401 70.0134H10.0267V75.8478H15.0401V70.0134Z" fill="#FFF9D7"/>
<path d="M25.0668 70.0134H20.0535V75.8478H25.0668V70.0134Z" fill="#FFF9D7"/>
<path d="M30.0802 70.0134H25.0668V75.8478H30.0802V70.0134Z" fill="#FFF9D7"/>
<path d="M35.0936 70.0134H30.0802V75.8478H35.0936V70.0134Z" fill="#FFF9D7"/>
<path d="M40.1069 70.0134H35.0936V75.8478H40.1069V70.0134Z" fill="#FFF9D7"/>
<path d="M45.1203 70.0134H40.1069V75.8478H45.1203V70.0134Z" fill="#FFF9D7"/>
<path d="M50.1337 70.0134H45.1203V75.8478H50.1337V70.0134Z" fill="#FFF9D7"/>
<path d="M55.147 70.0134H50.1337V75.8478H55.147V70.0134Z" fill="#FFF9D7"/>
<path d="M60.1605 70.0134H55.1471V75.8478H60.1605V70.0134Z" fill="#FFF9D7"/>
<path d="M65.1738 70.0134H60.1605V75.8478H65.1738V70.0134Z" fill="#FFF9D7"/>
<path d="M70.1872 70.0134H65.1738V75.8478H70.1872V70.0134Z" fill="#FFF9D7"/>
<path d="M75.2006 70.0134H70.1872V75.8478H75.2006V70.0134Z" fill="#FFF9D7"/>
<path d="M80.2139 70.0134H75.2006V75.8478H80.2139V70.0134Z" fill="#FFF9D7"/>
<path d="M85.2273 70.0134H80.2139V75.8478H85.2273V70.0134Z" fill="#FFF9D7"/>
<path d="M310.829 5.83447H305.816V11.6689H310.829V5.83447Z" fill="#FFF9D7"/>
<path d="M315.842 5.83447H310.829V11.6689H315.842V5.83447Z" fill="#FFF9D7"/>
<path d="M320.856 11.6689H315.842V17.5034H320.856V11.6689Z" fill="#FFF9D7"/>
<path d="M165.441 64.179H160.428V70.0134H165.441V64.179Z" fill="#FFF9D7"/>
<path d="M15.0401 58.3445H10.0267V64.1789H15.0401V58.3445Z" fill="#FFF9D7"/>
<path d="M10.0267 52.51H5.01337V58.3445H10.0267V52.51Z" fill="#FFF9D7"/>
<path d="M320.856 52.51H315.842V58.3445H320.856V52.51Z" fill="#FFF9D7"/>
<path d="M315.842 58.3445H310.829V64.1789H315.842V58.3445Z" fill="#FFF9D7"/>
<path d="M170.455 64.179H165.441V70.0134H170.455V64.179Z" fill="#FFF9D7"/>
<path d="M175.468 64.179H170.455V70.0134H175.468V64.179Z" fill="#FFF9D7"/>
<path d="M180.481 64.179H175.468V70.0134H180.481V64.179Z" fill="#FFF9D7"/>
<path d="M185.495 64.179H180.481V70.0134H185.495V64.179Z" fill="#FFF9D7"/>
<path d="M190.508 64.179H185.495V70.0134H190.508V64.179Z" fill="#FFF9D7"/>
<path d="M195.521 64.179H190.508V70.0134H195.521V64.179Z" fill="#FFF9D7"/>
<path d="M200.535 64.179H195.521V70.0134H200.535V64.179Z" fill="#FFF9D7"/>
<path d="M205.548 64.179H200.535V70.0134H205.548V64.179Z" fill="#FFF9D7"/>
<path d="M210.562 64.179H205.548V70.0134H210.562V64.179Z" fill="#FFF9D7"/>
<path d="M215.575 64.179H210.562V70.0134H215.575V64.179Z" fill="#FFF9D7"/>
<path d="M220.588 70.0134H215.575V75.8478H220.588V70.0134Z" fill="#FFF9D7"/>
<path d="M225.602 70.0134H220.588V75.8478H225.602V70.0134Z" fill="#FFF9D7"/>
<path d="M230.615 70.0134H225.602V75.8478H230.615V70.0134Z" fill="#FFF9D7"/>
<path d="M235.628 70.0134H230.615V75.8478H235.628V70.0134Z" fill="#FFF9D7"/>
<path d="M240.642 70.0134H235.628V75.8478H240.642V70.0134Z" fill="#FFF9D7"/>
<path d="M245.655 70.0134H240.642V75.8478H245.655V70.0134Z" fill="#FFF9D7"/>
<path d="M220.588 64.179H215.575V70.0134H220.588V64.179Z" fill="#FFF9D7"/>
<path d="M225.602 64.179H220.588V70.0134H225.602V64.179Z" fill="#FFF9D7"/>
<path d="M230.615 64.179H225.602V70.0134H230.615V64.179Z" fill="#FFF9D7"/>
<path d="M235.628 64.179H230.615V70.0134H235.628V64.179Z" fill="#FFF9D7"/>
<path d="M240.642 64.179H235.628V70.0134H240.642V64.179Z" fill="#FFF9D7"/>
<path d="M245.655 64.179H240.642V70.0134H245.655V64.179Z" fill="#FFF9D7"/>
<path d="M250.669 70.0134H245.655V75.8478H250.669V70.0134Z" fill="#FFF9D7"/>
<path d="M250.669 64.179H245.655V70.0134H250.669V64.179Z" fill="#FFF9D7"/>
<path d="M255.682 70.0134H250.668V75.8478H255.682V70.0134Z" fill="#FFF9D7"/>
<path d="M260.695 70.0134H255.682V75.8478H260.695V70.0134Z" fill="#FFF9D7"/>
<path d="M265.709 70.0134H260.695V75.8478H265.709V70.0134Z" fill="#FFF9D7"/>
<path d="M270.722 70.0134H265.709V75.8478H270.722V70.0134Z" fill="#FFF9D7"/>
<path d="M275.735 70.0134H270.722V75.8478H275.735V70.0134Z" fill="#FFF9D7"/>
<path d="M280.749 70.0134H275.735V75.8478H280.749V70.0134Z" fill="#FFF9D7"/>
<path d="M255.682 64.179H250.668V70.0134H255.682V64.179Z" fill="#FFF9D7"/>
<path d="M260.695 64.179H255.682V70.0134H260.695V64.179Z" fill="#FFF9D7"/>
<path d="M265.709 64.179H260.695V70.0134H265.709V64.179Z" fill="#FFF9D7"/>
<path d="M270.722 64.179H265.709V70.0134H270.722V64.179Z" fill="#FFF9D7"/>
<path d="M275.735 64.179H270.722V70.0134H275.735V64.179Z" fill="#FFF9D7"/>
<path d="M280.749 64.179H275.735V70.0134H280.749V64.179Z" fill="#FFF9D7"/>
<path d="M285.762 70.0134H280.749V75.8478H285.762V70.0134Z" fill="#FFF9D7"/>
<path d="M285.762 64.179H280.749V70.0134H285.762V64.179Z" fill="#FFF9D7"/>
<path d="M290.776 64.179H285.762V70.0134H290.776V64.179Z" fill="#FFF9D7"/>
<path d="M310.829 64.179H305.816V70.0134H310.829V64.179Z" fill="#FFF9D7"/>
<path d="M295.789 64.179H290.776V70.0134H295.789V64.179Z" fill="#FFF9D7"/>
<path d="M300.802 64.179H295.789V70.0134H300.802V64.179Z" fill="#FFF9D7"/>
<path d="M305.816 64.179H300.802V70.0134H305.816V64.179Z" fill="#FFF9D7"/>
<path d="M90.2407 64.179H85.2273V70.0134H90.2407V64.179Z" fill="#FFF9D7"/>
<path d="M95.254 64.179H90.2407V70.0134H95.254V64.179Z" fill="#FFF9D7"/>
<path d="M100.267 64.179H95.254V70.0134H100.267V64.179Z" fill="#FFF9D7"/>
<path d="M105.281 64.179H100.267V70.0134H105.281V64.179Z" fill="#FFF9D7"/>
<path d="M110.294 64.179H105.281V70.0134H110.294V64.179Z" fill="#FFF9D7"/>
<path d="M115.308 64.179H110.294V70.0134H115.308V64.179Z" fill="#FFF9D7"/>
<path d="M120.321 64.179H115.307V70.0134H120.321V64.179Z" fill="#FFF9D7"/>
<path d="M125.334 64.179H120.321V70.0134H125.334V64.179Z" fill="#FFF9D7"/>
<path d="M130.348 64.179H125.334V70.0134H130.348V64.179Z" fill="#FFF9D7"/>
<path d="M135.361 64.179H130.348V70.0134H135.361V64.179Z" fill="#FFF9D7"/>
<path d="M140.374 64.179H135.361V70.0134H140.374V64.179Z" fill="#FFF9D7"/>
<path d="M145.388 64.179H140.374V70.0134H145.388V64.179Z" fill="#FFF9D7"/>
<path d="M150.401 64.179H145.388V70.0134H150.401V64.179Z" fill="#FFF9D7"/>
<path d="M155.414 64.179H150.401V70.0134H155.414V64.179Z" fill="#FFF9D7"/>
<path d="M160.428 64.179H155.414V70.0134H160.428V64.179Z" fill="#FFF9D7"/>
<path d="M20.0535 64.179H15.0401V70.0134H20.0535V64.179Z" fill="#FFF9D7"/>
<path d="M25.0668 64.179H20.0535V70.0134H25.0668V64.179Z" fill="#FFF9D7"/>
<path d="M30.0802 64.179H25.0668V70.0134H30.0802V64.179Z" fill="#FFF9D7"/>
<path d="M35.0936 64.179H30.0802V70.0134H35.0936V64.179Z" fill="#FFF9D7"/>
<path d="M40.1069 64.179H35.0936V70.0134H40.1069V64.179Z" fill="#FFF9D7"/>
<path d="M45.1203 64.179H40.1069V70.0134H45.1203V64.179Z" fill="#FFF9D7"/>
<path d="M50.1337 64.179H45.1203V70.0134H50.1337V64.179Z" fill="#FFF9D7"/>
<path d="M55.147 64.179H50.1337V70.0134H55.147V64.179Z" fill="#FFF9D7"/>
<path d="M60.1605 64.179H55.1471V70.0134H60.1605V64.179Z" fill="#FFF9D7"/>
<path d="M65.1738 64.179H60.1605V70.0134H65.1738V64.179Z" fill="#FFF9D7"/>
<path d="M70.1872 64.179H65.1738V70.0134H70.1872V64.179Z" fill="#FFF9D7"/>
<path d="M75.2006 64.179H70.1872V70.0134H75.2006V64.179Z" fill="#FFF9D7"/>
<path d="M80.2139 64.179H75.2006V70.0134H80.2139V64.179Z" fill="#FFF9D7"/>
<path d="M85.2273 64.179H80.2139V70.0134H85.2273V64.179Z" fill="#FFF9D7"/>
<path d="M320.856 46.6756H315.842V52.51H320.856V46.6756Z" fill="#FFF9D7"/>
<path d="M320.856 29.1722H315.842V35.0067H320.856V29.1722Z" fill="#FFF9D7"/>
<path d="M320.856 40.8411H315.842V46.6756H320.856V40.8411Z" fill="#FFF9D7"/>
<path d="M320.856 35.0067H315.842V40.8412H320.856V35.0067Z" fill="#FFF9D7"/>
<path d="M320.856 17.5034H315.842V23.3378H320.856V17.5034Z" fill="#FFF9D7"/>
<path d="M320.856 23.3378H315.842V29.1723H320.856V23.3378Z" fill="#FFF9D7"/>
<path d="M315.842 11.6689H310.829V17.5034H315.842V11.6689Z" fill="#FFF9D7"/>
<path d="M315.842 46.6756H310.829V52.51H315.842V46.6756Z" fill="#FFF9D7"/>
<path d="M315.842 29.1722H310.829V35.0067H315.842V29.1722Z" fill="#FFF9D7"/>
<path d="M315.842 40.8411H310.829V46.6756H315.842V40.8411Z" fill="#FFF9D7"/>
<path d="M315.842 35.0067H310.829V40.8412H315.842V35.0067Z" fill="#FFF9D7"/>
<path d="M315.842 17.5034H310.829V23.3378H315.842V17.5034Z" fill="#FFF9D7"/>
<path d="M315.842 23.3378H310.829V29.1723H315.842V23.3378Z" fill="#FFF9D7"/>
<path d="M315.842 52.51H310.829V58.3445H315.842V52.51Z" fill="#FFF9D7"/>
<path d="M310.829 52.51H305.816V58.3445H310.829V52.51Z" fill="#FFF9D7"/>
<path d="M310.829 58.3445H305.816V64.1789H310.829V58.3445Z" fill="#FFF9D7"/>
<path d="M305.816 58.3445H300.802V64.1789H305.816V58.3445Z" fill="#FFF9D7"/>
</svg>
