<svg width="20" height="44" viewBox="0 0 19 44" fill="none" xmlns="http://www.w3.org/2000/svg">
<rect x="13.0769" y="26.0977" width="6.53846" height="4.34961" fill="white"/>
<rect x="13.0769" y="21.7481" width="6.53846" height="4.34961" fill="white"/>
<rect x="13.0769" y="17.3985" width="6.53846" height="4.34961" fill="white"/>
<rect x="13.0769" y="13.0488" width="6.53846" height="4.34961" fill="white"/>
<rect x="13.0769" y="8.69922" width="6.53846" height="4.34961" fill="white"/>
<rect x="6.53845" y="8.69922" width="6.53846" height="4.34961" fill="#F5E982"/>
<path d="M6.53845 13.0488H13.0769V17.3985H6.53845V13.0488Z" fill="#F5E982"/>
<path d="M6.53845 17.3985H13.0769V21.7481H6.53845V17.3985Z" fill="#F5E982"/>
<path d="M6.53845 21.7481H13.0769V26.0977H6.53845V21.7481Z" fill="#F5E982"/>
<path d="M6.53845 26.0977H13.0769V30.4473H6.53845V26.0977Z" fill="#F5E982"/>
<rect x="13.0769" y="4.34961" width="6.53846" height="4.34961" fill="#F5E982"/>
<rect x="13.0769" y="30.4473" width="6.53846" height="4.34961" fill="#F5E982"/>
<rect x="6.53845" y="4.63959" width="6.53846" height="4.34961" fill="#E6844F"/>
<rect y="8.9892" width="6.53846" height="4.34961" fill="#E6844F"/>
<rect y="13.3388" width="6.53846" height="4.34961" fill="#E6844F"/>
<rect y="17.6884" width="6.53846" height="4.34961" fill="#E6844F"/>
<rect y="22.038" width="6.53846" height="4.34961" fill="#E6844F"/>
<rect y="26.0977" width="6.53846" height="4.34961" fill="#E6844F"/>
<rect x="6.53845" y="30.4473" width="6.53846" height="4.34961" fill="#E6844F"/>
<rect x="13.0769" y="34.7969" width="6.53846" height="4.34961" fill="#E6844F"/>
<rect x="13.0769" y="39.1465" width="6.53846" height="4.34961" fill="#E6844F"/>
<rect x="6.53845" y="34.7969" width="6.53846" height="4.34961" fill="#E6844F"/>
<rect y="30.4473" width="6.53846" height="4.34961" fill="#E6844F"/>
<rect x="13.0769" y="0.289978" width="6.53846" height="4.34961" fill="#E6844F"/>
</svg>
