<svg width="103" height="94" viewBox="0 0 103 94" fill="none" xmlns="http://www.w3.org/2000/svg">
<g clip-path="url(#clip0_15_343)">
<path d="M10.8438 94V91.3113H8.13017V88.6225H5.41655V85.9444H2.71362V83.2556H0V0H75.8959V2.68874H78.6095V5.36689H81.3124V8.05563H84.026V10.7444H86.7397V13.4331H89.4426V16.1113H92.1562V18.8H94.8698V21.4887H97.5728V24.1669H100.286V26.8556H103V77.8887H94.8698V85.9444H86.7397V94H10.8438Z" fill="#2A3138"/>
<path d="M5.41656 83.2556H8.13018V85.9444H10.8438V88.6225H13.5574V91.3113H84.026V83.2556H92.1562V75.2H100.286V29.5444H97.5728V26.8556H94.8698V24.1669H92.1562V21.4887H89.4426V18.8H86.7397V16.1113H84.026V13.4331H81.3124V10.7444H78.6095V8.05563H75.8959V5.36689H73.1822V2.68874H2.71362V80.5669H5.41656V83.2556Z" fill="#0040FF"/>
<path d="M81.3124 18.8V10.7444H73.1822V2.68874H2.71362V80.5775H73.1822V72.5113H81.3124V64.4556H89.4426V18.8H81.3124ZM51.4947 59.0887H40.6616V24.1669H51.4947V59.0887Z" fill="white"/>
<path d="M46.0781 29.5444H48.7917V32.2331H51.5053V24.1775H43.3752V26.8662H46.0888V29.5444H46.0781ZM89.4426 77.8887H86.729V75.2H84.0154V72.5113H75.8852V75.2H78.5988V77.8887H81.3124V80.5775H84.026V83.2662H92.1562V80.5775H89.4426V77.8887ZM92.1562 64.4556H84.026V67.1444H92.1562V64.4556ZM97.5728 72.5113V69.8225H94.8698V67.1338H86.7397V69.8225H89.4533V72.5113H92.1669V75.2H100.297V72.5113H97.5728ZM81.3124 85.9444H78.5988V83.2556H75.8852V80.5669H5.41656V83.2556H8.13018V85.9444H10.8438V88.6331H13.5574V91.3218H84.026V88.6331H81.3124V85.9444Z" fill="#0084FF"/>
<path d="M78.6095 67.1444V61.7775H86.7397V21.4887H78.6095V13.4331H70.4793V5.36689H5.41656V77.8782H70.4686V69.8225H78.5988V67.1444H78.6095ZM54.2083 24.1669V61.7669H37.9479V21.4887H54.2083V24.1669Z" fill="#FFE100"/>
<path opacity="0.55" d="M59.6355 67.1444H46.0781V69.8331H62.3385V29.5444H59.6248V67.1444H59.6355ZM10.8438 10.7444V77.8887H13.5574V13.4331H70.4793V10.7444H10.8438Z" fill="#FF8000"/>
<path d="M54.2083 61.7669H40.6616V64.4556H56.9219V24.1669H54.2083V61.7669ZM5.41656 77.8887H8.13018V8.05563H70.4686V5.36689H5.41656V77.8887ZM84.026 21.4887H81.3124V24.1775H86.729V21.4887H84.026ZM73.1823 13.4331V16.1218H78.5988V13.4331H73.1823Z" fill="#FF8000"/>
<path opacity="0.78" d="M56.9219 64.4556H43.3645V67.1444H59.6248V26.8556H56.9112V64.4556H56.9219ZM8.13019 77.8887H10.8438V10.7444H70.4793V8.05563H8.13019V77.8887ZM75.8959 18.8H78.6095V16.1113H75.8959V18.8ZM84.026 24.1669V26.8556H86.7397V24.1669H84.026Z" fill="#FF8000"/>
<path opacity="0.33" d="M62.3385 69.8225H48.7917V72.5113H65.0521V32.2225H62.3385V69.8225ZM13.5574 13.4331V77.8887H16.2711V16.1113H73.1823V13.4225H13.5574V13.4331ZM84.0261 21.4887H81.3124V24.1775H86.729V21.4887H84.0261Z" fill="#FF8000"/>
<path opacity="0.1" d="M65.0521 72.5113H51.4947V75.2H67.755V34.9113H65.0414V72.5113H65.0521ZM16.2604 16.1113V77.8781H18.974V18.8H75.8959V16.1113H16.2604ZM84.0261 24.1669V26.8556H86.7397V24.1669H84.0261Z" fill="#FF8000"/>
</g>
<defs>
<clipPath id="clip0_15_343">
<rect width="103" height="94" fill="white"/>
</clipPath>
</defs>
</svg>
