<svg width="101" height="94" viewBox="0 0 101 94" fill="none" xmlns="http://www.w3.org/2000/svg">
<g clip-path="url(#clip0_15_373)">
<path d="M10.6332 94V91.3113H7.97231V88.6225H5.31138V85.9444H2.66093V83.2556H0V0H82.3945V2.68874H85.0554V5.36689H87.7058V8.05563H90.3668V10.7444H93.0277V13.4331H95.6781V16.1113H98.3391V18.8H101V69.8225H93.0277V77.8887H53.1557V94H10.6332Z" fill="#2A3138"/>
<path d="M2.66095 2.68874V80.5669H5.3114V83.2556H7.97233V85.9444H10.6333V88.6225H13.2942V91.3113H50.4948V75.2H90.3668V67.1444H98.3391V21.4887H95.6782V18.8H93.0277V16.1113H90.3668V13.4331H87.7059V10.7444H85.0554V8.05563H82.3945V5.36689H79.7336V2.68874H2.66095Z" fill="#0040FF"/>
<path d="M79.7336 10.7444V2.68874H2.66095V80.5775H39.872V64.4556H79.744V56.4H87.7163V10.7444H79.7336ZM50.4948 42.9669H39.872V24.1669H50.4948V42.9669Z" fill="white"/>
<path d="M45.1834 29.5444H47.8443V32.2331H50.5053V24.1775H42.533V26.8662H45.1939V29.5444H45.1834ZM95.6782 64.4556V61.7669H93.0277V59.0781H90.3668V56.3894H82.3945V59.0781H85.0554V61.7669H87.7163V64.4556H90.3773V67.1444H98.3496V64.4556H95.6782ZM47.8443 85.9444H45.1834V83.2556H42.5225V80.5669H5.3114V83.2556H7.97233V85.9444H10.6333V88.6331H13.2942V91.3218H50.4948V88.6331H47.8339V85.9444H47.8443ZM87.7059 69.8225H85.0449V67.1338H82.384V64.445H42.5225V67.1338H45.1834V69.8225H47.8443V72.5113H50.5053V75.2H90.3773V72.5113H87.7163V69.8225H87.7059Z" fill="#0084FF"/>
<path d="M10.6333 77.8887H37.2111V61.7669H77.0831V53.7113H85.0554V13.4331H77.0831V5.36689H5.3114V77.8781H10.6333V77.8887ZM37.2111 42.9669V21.4887H53.1557V45.6556H37.2111V42.9669Z" fill="#FFE100"/>
<path opacity="0.55" d="M58.4776 51.0225H45.1834V53.7113H61.128V29.5444H58.4671V51.0225H58.4776ZM10.6332 10.7444V77.8887H13.2942V13.4331H77.0831V10.7444H10.6332Z" fill="#FF8000"/>
<path opacity="0.33" d="M77.0831 13.4331H13.2942V77.8887H15.9551V16.1113H79.744V13.4225H77.0831V13.4331ZM61.128 53.7113H47.8443V56.4H63.7889V32.2225H61.128V53.7113Z" fill="#FF8000"/>
<path d="M53.1557 45.6556H39.872V48.3444H55.8166V24.1669H53.1557V45.6556ZM5.3114 77.8887H7.97233V8.05563H77.0726V5.36689H5.3114V77.8887ZM82.3945 13.4331H79.7336V16.1218H85.0449V13.4331H82.3945Z" fill="#FF8000"/>
<path opacity="0.1" d="M79.7336 16.1113H15.9446V77.8781H18.6056V18.8H82.3945V16.1113H79.7336ZM63.789 56.4H50.4948V59.0887H66.4394V34.9113H63.7785V56.4H63.789Z" fill="#FF8000"/>
<path opacity="0.78" d="M7.97235 77.8887H10.6333V10.7444H77.0831V8.05563H7.97235V77.8887ZM55.8167 48.3444H42.5225V51.0331H58.4671V26.8556H55.8062V48.3444H55.8167ZM82.3945 16.1113V18.8H85.0554V16.1113H82.3945Z" fill="#FF8000"/>
</g>
<defs>
<clipPath id="clip0_15_373">
<rect width="101" height="94" fill="white"/>
</clipPath>
</defs>
</svg>
