<svg width="102" height="94" viewBox="0 0 102 94" fill="none" xmlns="http://www.w3.org/2000/svg">
<g clip-path="url(#clip0_15_358)">
<path d="M67.1078 94V91.3113H64.4205V88.6225H61.7332V85.9444H59.0565V83.2556H56.3693V80.5669H53.682V94H10.7385V91.3113H8.05124V88.6225H5.36397V85.9444H2.68727V83.2556H0V0H83.2102V2.68874H85.8975V5.36689H88.5742V8.05563H91.2615V10.7444H93.9488V13.4331H96.6255V16.1113H99.3127V18.8H102V53.7113H93.9488V61.7669H96.6255V64.4556H99.3127V67.1444H102V94H67.1078Z" fill="#2A3138"/>
<path d="M91.2615 59.0887V51.0225H99.3127V21.4887H96.6254V18.8H93.9488V16.1113H91.2615V13.4331H88.5742V10.7444H85.8975V8.05563H83.2102V5.36689H80.523V2.68874H2.68726V80.5669H5.36395V83.2556H8.05122V85.9444H10.7385V88.6225H13.4258V91.3113H50.9947V72.5113H53.682V75.2H56.3692V77.8887H59.0565V80.5669H61.7332V83.2556H64.4205V85.9444H67.1078V88.6225H69.7844V91.3113H99.3127V69.8225H96.6254V67.1444H93.9488V64.4556H91.2615V61.7669H88.5742V59.0887H85.8975H91.2615Z" fill="#0040FF"/>
<path d="M80.523 48.3444V40.2887H88.5742V10.7444H80.523V2.68874H2.68726V80.5775H40.2668V56.4H42.954V64.4556H51.0053V72.5113H59.0565V80.5669H88.5848V59.0781H80.5335V51.0225H72.4717V48.3338H80.523V48.3444ZM50.9947 34.9113H40.2668V24.1669H50.9947V34.9113Z" fill="white"/>
<path d="M42.9435 26.8556H45.6307V29.5444H48.318V32.2331H51.0053V24.1775H42.954V26.8556H42.9435ZM96.6254 48.3444V45.6556H93.9488V42.9669H91.2615V40.2781H83.2102V42.9669H85.8975V45.6556H88.5848V48.3444H91.2721V51.0331H99.3233V48.3444H96.6254ZM53.682 75.2H56.3692V77.8887H59.0565V72.5113H53.6926V75.2H53.682ZM45.6307 67.1444H48.318V69.8331H51.0053V64.4662H45.6413V67.1444H45.6307ZM48.318 85.9444H45.6307V83.2556H42.9435V80.5669H5.36395V83.2556H8.05123V85.9444H10.7385V88.6331H13.4258V91.3218H50.9947V88.6331H48.3074V85.9444H48.318ZM96.6254 85.9444H93.9488V83.2556H91.2615V80.5669H61.7332V83.2556H64.4205V85.9444H67.1078V88.6331H69.795V91.3218H99.3233V88.6331H96.636V85.9444H96.6254ZM80.523 53.7113H83.2102V56.4H85.8975V59.0887H91.2615V56.4H88.5742V53.7113H85.8869V51.0225H83.1997V48.3338H75.1484V51.0225H80.5124V53.7113H80.523Z" fill="#0084FF"/>
<path d="M10.7385 77.8887H37.5795V53.7113H45.6307V61.7669H53.682V69.8225H61.7332V77.8781H85.8869V61.7669H77.8357V53.7113H69.7845V45.6556H77.8357V37.6H85.8869V13.4331H77.8357V5.36689H5.36395V77.8781H10.7385V77.8887ZM37.5795 34.9113V21.4887H53.682V37.6H37.5795V34.9113Z" fill="#FFE100"/>
<path opacity="0.55" d="M59.0565 42.9669H45.6308V45.6556H61.7332V29.5444H59.046V42.9669H59.0565ZM10.7385 10.7444V77.8887H13.4258V13.4331H77.8463V10.7444H10.7385Z" fill="#FF8000"/>
<path opacity="0.33" d="M80.523 13.4331H13.4258V77.8887H16.1131V16.1113H80.5336V13.4331H80.523ZM61.7332 45.6556H48.318V48.3444H64.4205V32.2225H61.7332V45.6556ZM83.2102 61.7669H80.523V64.4556H85.8869V61.7669H83.2102Z" fill="#FF8000"/>
<path opacity="0.1" d="M64.4205 48.3444H50.9947V51.0331H67.0972V34.9113H64.4099V48.3444H64.4205ZM83.2102 16.1113H16.1025V77.8781H18.7898V18.8H83.2102V16.1113ZM83.2102 64.4556V67.1444H85.8975V64.4556H83.2102Z" fill="#FF8000"/>
<path d="M53.682 37.6H40.2668V40.2887H56.3692V24.1669H53.682V37.6ZM45.6307 61.7669H48.318V56.4H45.6307V61.7669ZM53.682 69.8225H56.3692V64.4556H53.682V69.8225ZM61.7332 77.8887H64.4205V72.5113H61.7332V77.8887ZM80.523 64.4556H85.8869V61.7669H80.523V64.4556ZM83.2102 13.4331H80.523V16.1218H85.8869V13.4331H83.2102ZM72.4717 56.4H77.8357V53.7113H72.4717V56.4ZM5.36395 77.8887H8.05123V8.05563H77.8357V5.36689H5.36395V77.8887Z" fill="#FF8000"/>
<path opacity="0.78" d="M56.3692 40.2887H42.9434V42.9775H59.0459V26.8556H56.3586V40.2887H56.3692ZM75.159 59.0887H77.8462V56.4H75.159V59.0887ZM83.2102 16.1113V18.8H85.8975V16.1113H83.2102ZM8.05121 77.8887H10.7385V10.7444H77.8462V8.05563H8.05121V77.8887ZM83.2102 67.1444H85.8975V64.4556H83.2102V67.1444ZM48.318 61.7669H51.0053V59.0782H48.318V61.7669ZM56.3692 69.8225H59.0565V67.1338H56.3692V69.8225ZM64.4205 77.8887H67.1077V75.2H64.4205V77.8887Z" fill="#FF8000"/>
</g>
<defs>
<clipPath id="clip0_15_358">
<rect width="102" height="94" fill="white"/>
</clipPath>
</defs>
</svg>
