<svg width="340" height="37" viewBox="0 0 340 37" fill="none" xmlns="http://www.w3.org/2000/svg">
<g clip-path="url(#clip0_17_4052)">
<path d="M151.776 37V35.9503H150.722V34.9047H149.668V37H139.142V35.9503H138.093V34.9047H137.039V33.855H135.985V32.8053H134.935V31.7556H133.882V30.71H132.828V29.6603H131.774V28.6106H130.724V27.5651H129.67V26.5154H128.617V0.301689H164.405V1.35139H165.459V2.4011H166.513V3.44667H167.567V4.49637H168.616V30.71H165.459V33.855H162.302V37H151.776Z" fill="#2A3138"/>
<path d="M161.248 35.9503V32.8053H164.405V29.6603H167.567V5.54608H166.513V4.49637H165.459V3.44667H164.405V2.4011H163.356V1.35139H151.776V3.44667V2.4011H150.722V1.35139H142.304V3.44667V2.4011H141.25V1.35139H129.67V25.4657H130.724V26.5154H131.774V27.5651H132.828V28.6106H133.882V29.6603H134.935V30.71H135.985V31.7556H137.039V32.8053H138.093V33.855H139.142V34.9047H140.196V35.9503H148.619V32.8053H150.722V33.855H151.776V34.9047H152.83V35.9503H161.248Z" fill="#0040FF"/>
<path d="M132.828 28.6106H135.985V31.7556H144.407V28.6106H148.619V31.7556H157.037V28.6106H160.198V25.4657H163.356V1.35139H151.776V20.2254H150.722V1.35139H142.304V20.2254H141.25V1.35139H129.67V25.4657H132.828V28.6106Z" fill="white"/>
<path d="M163.356 30.71H162.302V29.6603H161.248V28.6106H158.091V29.6603H159.144V30.71H160.198V31.7597H161.252V32.8094H164.409V31.7597H163.356V30.71ZM166.513 28.6106V27.5651H165.459V26.5154H164.405V25.4657H161.248V26.5154H162.302V27.5651H163.356V28.6148H164.409V29.6645H167.567V28.6148H166.513V28.6106ZM133.882 29.6603H134.935V30.71H135.989V28.6148H133.886V29.6603H133.882ZM130.724 26.5154H131.778V27.5651H132.832V25.4698H130.728V26.5154H130.724ZM160.198 33.855H159.144V32.8053H158.091V31.7556H149.668V32.8053H150.722V33.855H151.776V34.9047H152.83V35.9544H161.252V34.9047H160.198V33.855ZM147.565 33.855H146.511V32.8053H145.457V31.7556H137.035V32.8053H138.089V33.855H139.142V34.9047H140.196V35.9544H148.619V34.9047H147.565V33.855Z" fill="#0084FF"/>
<path d="M132.828 24.416H133.882V27.5651H137.039V30.71H143.354V27.5651H149.668V30.71H155.987V27.5651H159.144V24.416H162.302V2.4011H152.83V21.271H149.668V2.4011H143.354V21.271H140.196V2.4011H130.724V24.416H132.828Z" fill="#FFE100"/>
<path opacity="0.55" d="M132.828 24.416H133.882V5.54608H140.196V4.49638H132.828V24.416ZM145.461 23.3704H143.358V24.4201H146.515V5.54608H149.672V4.49638H145.461V23.3704ZM154.933 4.49638V23.3704H152.83V24.4201H155.987V5.54608H162.302V4.49638H154.933Z" fill="#FF8000"/>
<path opacity="0.33" d="M133.882 24.416V25.4657H134.935V6.59165H140.2V5.54195H133.886V24.416H133.882ZM146.511 24.416H144.407V25.4657H147.565V6.59165H149.668V5.54195H146.511V24.416ZM155.987 5.54608V24.4201H153.884V25.4698H157.041V6.59165H162.306V5.54195H155.987V5.54608Z" fill="#FF8000"/>
<path opacity="0.1" d="M134.935 26.5154H135.989V7.64136H140.2V6.59165H134.935V26.5154ZM147.565 25.4657H145.461V26.5154H148.619V7.64136H149.672V6.59165H147.569V25.4657H147.565ZM157.037 6.59165V25.4657H154.933V26.5154H158.091V7.64136H162.302V6.59165H157.037Z" fill="#FF8000"/>
<path d="M149.668 2.4011H143.354V5.54608V21.2751H141.25V22.3248H144.407V3.44667H149.672V2.4011H149.668ZM130.724 24.416H131.778V3.44667H140.2V2.4011H130.728V24.416H130.724ZM152.83 2.4011V21.2751H150.726V22.3248H153.884V3.44667H162.306V2.4011H152.83ZM133.882 27.5651H134.935V25.4698H133.882V27.5651ZM137.039 30.71H138.093V28.6148H137.039V30.71ZM149.668 30.71H150.722V28.6148H149.668V30.71Z" fill="#FF8000"/>
<path opacity="0.78" d="M144.407 6.59165V22.3207H142.304V23.3704H145.461V4.49637H149.672V3.44667H144.407V6.59165ZM131.774 24.416H132.828V4.49637H140.196V3.44667H131.774V24.416ZM153.879 3.44667V22.3207H151.776V23.3704H154.933V4.49637H162.302V3.44667H153.879ZM134.935 27.5651H135.989V26.5154H134.935V27.5651ZM138.093 30.71H139.147V29.6603H138.093V30.71ZM150.722 30.71H151.776V29.6603H150.722V30.71Z" fill="#FF8000"/>
<path d="M261.39 37V35.9503H260.337V34.9047H259.283V33.855H258.233V32.8053H257.179V22.3207H265.602V21.271H261.39V20.2254H260.337V19.1757H259.283V18.126H258.233V17.0763H257.179V3.44667H260.337V0.301689H292.968V1.35139H294.022V2.4011H295.071V3.44667H296.125V4.49637H297.179V14.981H288.757V16.0307H292.968V17.0763H294.022V18.126H295.071V19.1757H296.125V20.2254H297.179V33.855H294.022V37H261.39Z" fill="#2A3138"/>
<path d="M296.125 13.9313V5.54608H295.071V4.49637H294.022V3.44667H292.968V2.4011H291.914V1.35139H261.39V4.49637H258.233V16.0307H259.283V17.0763H260.337V18.126H261.39V19.1757H262.444V20.2254H266.651V21.271H267.705V22.3207H268.759V23.3704H258.233V31.7556H259.283V32.8053H260.337V33.855H261.39V34.9047H262.444V35.9503H292.968V32.8053H296.125V21.271H295.071V20.2254H294.022V19.1757H292.968V18.126H291.914V17.0763H287.707V16.0307H286.653V14.981H285.599V13.9313H296.125Z" fill="#0040FF"/>
<path d="M288.757 28.6106H291.914V17.0763H285.599V13.9313H279.285V10.7863H272.97V9.74076H291.914V1.35139H261.39V4.49637H258.233V16.0307H264.548V19.1757H270.862V22.3207H277.177V23.3704H258.233V31.7556H288.757V28.6106Z" fill="white"/>
<path d="M295.071 30.71H294.017V29.6603H292.964V28.6106H289.806V29.6603H290.86V30.71H291.914V31.7597H292.968V32.8095H296.125V31.7597H295.071V30.71ZM260.337 18.126H261.39V19.1757H262.444V20.2254H266.655V21.2751H267.709V22.3248H268.763V23.3745H277.185V22.3248H270.871V19.1757H264.556V16.0307H259.291V17.0804H260.345V18.126H260.337ZM291.914 33.855H290.86V32.8053H289.806V31.7556H259.279V32.8053H260.332V33.855H261.386V34.9047H262.44V35.9544H292.968V34.9047H291.914V33.855ZM295.071 12.8857V11.836H294.017V10.7863H292.964V9.73663H274.016V10.7863H279.281V11.836H280.334V12.8857H281.388V13.9354H296.125V12.8857H295.071Z" fill="#0084FF"/>
<path d="M261.39 30.71H287.707V27.5651H290.864V18.126H284.546V14.981H278.231V11.836H271.916V8.69106H290.864V2.4011H262.444V5.54608H259.283V14.981H265.602V18.126H271.916V21.271H278.231V24.416H259.283V30.71H261.39Z" fill="#FFE100"/>
<path opacity="0.55" d="M280.339 26.5154H261.39V30.71H262.444V27.5651H281.392V24.4201H280.339V26.5154ZM287.707 21.271H290.864V20.2213H287.707V21.271ZM264.548 4.49638V7.64136H261.39V14.981H262.444V8.69106H265.602V5.54608H290.864V4.49638H264.548ZM275.074 13.9313V14.981H278.231V13.9313H275.074ZM281.388 18.126H284.546V17.0763H281.388V18.126Z" fill="#FF8000"/>
<path opacity="0.33" d="M279.285 14.981H276.127V16.0307H279.285V14.981ZM282.442 18.126V19.1757H285.599V18.126H282.442ZM288.757 22.3207H290.86V21.271H288.757V22.3207ZM265.602 5.54608V8.69106H262.444V14.981H263.498V9.74076H266.655V6.59579H290.864V5.54608H265.602ZM281.388 27.5651H262.44V30.71H263.494V28.6148H282.442V25.4698H281.388V27.5651Z" fill="#FF8000"/>
<path opacity="0.1" d="M266.651 6.59165V9.73663H263.494V14.981H264.548V10.7863H267.705V7.64136H290.864V6.59165H266.651ZM279.285 16.0307H277.181V17.0804H280.339V16.0307H279.285ZM283.496 19.1757V20.2254H286.653V19.1757H283.496ZM282.442 28.6106H263.494V30.7059H264.548V29.6562H283.496V26.5112H282.442V28.6106ZM289.811 23.3704H290.864V22.3207H289.811V23.3704Z" fill="#FF8000"/>
<path d="M278.231 11.836H272.966V12.8857H278.231V11.836ZM278.231 24.416H259.283V30.7059H260.337V25.4657H279.285V22.3207H278.231V24.416ZM279.285 16.0307H284.55V14.981H279.285V16.0307ZM262.444 2.4011V5.54608H259.287V14.981H260.341V6.59165H263.498V3.44667H290.864V2.4011H262.444ZM285.599 19.1757H290.864V18.126H285.599V19.1757ZM265.602 16.0307V18.126H266.655V16.0307H265.602ZM271.916 19.1757V21.271H272.97V19.1757H271.916Z" fill="#FF8000"/>
<path opacity="0.78" d="M279.285 25.4657H260.337V30.71H261.39V26.5154H280.339V23.3704H279.285V25.4657ZM274.02 12.8857V13.9354H278.231V12.8857H274.02ZM263.494 3.44667V6.59165H260.337V14.981H261.39V7.64135H264.548V4.49637H290.864V3.44667H263.494ZM280.339 16.0307V17.0804H284.55V16.0307H281.392H280.339ZM286.653 19.1757V20.2254H290.864V19.1757H287.707H286.653ZM266.651 17.0763V18.126H267.705V17.0763H266.651ZM272.97 20.2254V21.2751H274.024V20.2254H272.97Z" fill="#FF8000"/>
<path d="M4.21116 36.8884V35.8387H3.15733V34.7931H2.1035V33.7434H1.05383V32.6937H0V22.2091H8.42231V21.1594H4.21116V20.1138H3.15733V19.0641H2.1035V18.0144H1.05383V16.9688H0V3.33508H3.15733V0.190102H35.7886V1.23981H36.8424V2.28951H37.8921V3.33508H38.9459V4.38478H39.9998V14.8694H31.5774V15.9191H35.7886V16.9688H36.8424V18.0144H37.8921V19.0641H38.9459V20.1138H39.9998V33.7434H36.8424V36.8884H4.21116Z" fill="#2A3138"/>
<path d="M38.9459 13.8197V5.43449H37.8921V4.38479H36.8424V3.33508H35.7886V2.28951H34.7348V1.23981H4.21116V4.38479H1.05383V15.9191H2.10351V16.9688H3.15734V18.0144H4.21116V19.0641H5.26499V20.1138H9.472V21.1594H10.5258V22.2091H11.5796V23.2588H1.05383V31.6482H2.10351V32.6937H3.15734V33.7434H4.21116V34.7931H5.26499V35.8387H35.7886V32.6937H38.9459V21.1594H37.8921V20.1138H36.8424V19.0641H35.7886V18.0144H34.7348V16.9688H30.5278V15.9191H29.4739V14.8694H28.4201V13.8197H38.9459Z" fill="#0040FF"/>
<path d="M31.5775 28.4991H34.7348V16.9688H28.4201V13.8197H22.1055V10.6747H15.7908V9.62917H34.7348V1.23981H4.21116V4.38479H1.05383V15.9191H7.36849V19.0641H13.6832V22.2091H19.9978V23.2588H1.05383V31.6482H31.5775V28.4991Z" fill="white"/>
<path d="M37.8921 30.5985H36.8424V29.5488H35.7886V28.499H32.6313V29.5488H33.6851V30.5985H34.7389V31.6482H35.7928V32.6979H38.9501V31.6482H37.8963V30.5985H37.8921ZM3.15734 18.0144H4.21117V19.0641H5.26499V20.1138H9.47615V21.1635H10.53V22.2132H11.5838V23.2629H20.0061V22.2132H13.6832V19.0682H7.3685V15.9233H2.10352V16.973H3.15734V18.0144ZM34.7348 33.7434H33.681V32.6937H32.6271V31.644H2.10352V32.6937H3.15734V33.7434H4.21117V34.7931H5.26499V35.8428H35.7928V34.7931H34.7389V33.7434H34.7348ZM37.8921 12.7742V11.7244H36.8424V10.6747H35.7886V9.62917H16.8405V10.6789H22.1055V11.7286H23.1593V12.7783H24.2131V13.828H38.9501V12.7783H37.8921V12.7742Z" fill="#0084FF"/>
<path d="M4.21117 30.5985H30.5278V27.4535H33.6851V18.0144H27.3663V14.8694H21.0516V11.7245H14.737V8.57947H33.6851V2.28951H5.26499V5.43449H2.10352V14.8694H8.42232V18.0144H14.737V21.1594H21.0516V24.3085H2.10352V30.5985H4.21117Z" fill="#FFE100"/>
<path opacity="0.55" d="M23.1593 26.4038H4.21118V30.5985H5.26501V27.4535H24.2131V24.3085H23.1593V26.4038ZM30.5278 21.1594H33.6851V20.1097H30.5278V21.1594ZM7.36851 4.38479V7.52977H4.21118V14.8694H5.26501V8.57947H8.42234V5.43449H33.6851V4.38479H7.36851ZM17.8943 13.8197V14.8694H21.0517V13.8197H17.8943ZM24.209 18.0144H27.3663V16.9647H24.209V18.0144Z" fill="#FF8000"/>
<path opacity="0.33" d="M22.1055 14.8694H18.9482V15.9191H22.1055V14.8694ZM25.2628 18.0144V19.0641H28.4201V18.0144H25.2628ZM31.5775 22.2091H33.681V21.1594H31.5775V22.2091ZM8.42234 5.43449V8.57947H5.26501V14.8694H6.31884V9.62918H9.47617V6.4842H33.6851V5.43449H8.42234ZM24.209 27.4535H5.26501V30.5985H6.31884V28.5032H25.267V25.3582H24.2131V27.4535H24.209Z" fill="#FF8000"/>
<path opacity="0.1" d="M9.47203 6.4842V9.62918H6.3147V14.8736H7.36852V10.6747H10.5259V7.52977H33.6851V6.48006H9.47203V6.4842ZM22.1055 15.9191H19.9978V16.9688H23.1552V15.9191H22.1055ZM26.3167 19.0641V20.1138H29.474V19.0641H26.3167ZM25.2628 28.4991H6.3147V30.5943H7.36852V29.5488H26.3167V26.4038H25.2628V28.4991ZM32.6313 23.2588H33.6851V22.2091H32.6313V23.2588Z" fill="#FF8000"/>
<path d="M21.0516 11.7245H15.7908V12.7742H21.0558V11.7245H21.0516ZM21.0516 24.3085H2.10352V30.5985H3.15734V25.3541H22.1055V22.2091H21.0516V24.3085ZM22.1055 15.9191H27.3705V14.8694H22.1055V15.9191ZM5.26499 2.28951V5.43449H2.10352V14.8694H3.15734V6.48006H6.31467V3.33508H33.681V2.28951H5.26499ZM28.4201 19.0641H33.6851V18.0144H28.4201V19.0641ZM8.42232 15.9191V18.0144H9.47615V15.9191H8.42232ZM14.737 19.0641V21.1594H15.7908V19.0641H14.737Z" fill="#FF8000"/>
<path opacity="0.78" d="M22.1055 25.3541H3.15735V30.5985H4.21117V26.4038H23.1593V23.2588H22.1055V25.3541ZM16.8405 12.7742V13.8239H21.0516V12.7742H16.8405ZM6.31468 3.33508V6.48006H3.15735V14.8694H4.21117V7.52977H7.3685V4.38479H33.6851V3.33508H6.31468ZM23.1593 15.9191V16.9688H27.3705V15.9191H24.2131H23.1593ZM29.474 19.0641V20.1138H33.6851V19.0641H30.5278H29.474ZM9.47201 16.9688V18.0185H10.5258V16.9688H9.47201ZM15.7908 20.1138V21.1635H16.8446V20.1138H15.7908Z" fill="#FF8000"/>
<path d="M93.2429 37V35.9503H92.1932V34.9047H91.1394V33.855H90.0855V32.8053H89.0317V31.7556H87.982V30.71H86.9282V29.6603H85.8744V3.44667H89.0317V0.301689H118.506V1.35139H119.559V2.4011H120.613V3.44667H121.663V4.49637H122.717V5.54608H123.771V6.59165H124.82V7.64135H125.874V33.855H122.717V37H93.2429Z" fill="#2A3138"/>
<path d="M121.663 35.9503V32.8053H124.82V8.69106H123.771V7.64135H122.717V6.59165H121.663V5.54608H120.613V4.49637H119.559V3.44667H118.506V2.4011H117.456V1.35139H90.0856V4.49637H86.9282V28.6106H87.982V29.6603H89.0317V30.71H90.0856V31.7556H91.1394V32.8053H92.1932V33.855H93.2429V34.9047H94.2967V35.9503H121.663Z" fill="#0040FF"/>
<path d="M117.456 4.49637V1.35139H90.0897V4.49637H86.9324V28.6106H90.0897V31.7556H117.456V28.6106H120.613V4.49637H117.456ZM105.876 23.3704H101.665V9.74076H105.876V23.3704Z" fill="white"/>
<path d="M103.769 11.836H104.823V12.8857H105.876V9.74076H102.719V10.7905H103.773V11.836H103.769ZM87.9821 29.6603H89.0359V30.71H90.0897V28.6148H87.9862V29.6603H87.9821ZM123.771 31.7556V30.7059H122.717V29.6562H121.663V28.6065H118.506V29.6562H119.56V30.7059H120.613V31.7556H121.667V32.8053H124.824V31.7556H123.771ZM120.613 33.855H119.56V32.8053H118.506V31.7556H91.1394V32.8053H92.1932V33.855H93.247V34.9047H94.3009V35.9544H121.667V34.9047H120.613V33.855Z" fill="#0084FF"/>
<path d="M93.2429 2.4011H91.1394V5.54608H87.9821V27.5651H91.1394V30.71H116.402V27.5651H119.56V5.54608H116.402V2.4011H93.2429ZM100.611 23.3704V8.69106H106.926V24.4201H100.611V23.3704Z" fill="#FFE100"/>
<path opacity="0.33" d="M116.402 5.54608H94.2967V8.69106H91.1394V28.6106H92.1932V9.74076H95.3506V6.59579H117.456V5.54608H116.402ZM110.088 27.5651H104.823V28.6148H111.137V12.8857H110.083V27.5651H110.088Z" fill="#FF8000"/>
<path d="M106.926 24.416H101.661V25.4657H107.976V9.74076H106.922V24.416H106.926ZM91.1394 2.4011V5.54608H87.9821V27.5651H89.0359V6.59165H92.1932V3.44667H116.402V2.4011H91.1394ZM91.1394 29.6603V30.71H92.1932V28.6148H91.1394V29.6603ZM118.506 5.54608H117.452V6.59578H119.555V5.54608H118.506Z" fill="#FF8000"/>
<path opacity="0.78" d="M107.98 25.4657H102.715V26.5154H109.03V10.7863H107.976V25.4657H107.98ZM92.1932 6.59165H89.0359V27.5651H90.0897V7.64549H93.247V4.50051H116.406V3.44667H92.1974V6.59165H92.1932ZM118.506 6.59165V7.64135H119.56V6.59165H118.506ZM92.1932 30.71H93.247V29.6603H92.1932V30.71Z" fill="#FF8000"/>
<path opacity="0.55" d="M93.2429 4.49638V7.64136H90.0856V27.5609H91.1394V8.69106H94.2967V5.54608H116.402V4.49638H93.2429ZM109.034 26.5154H103.769V27.5651H110.083V11.836H109.03V26.5154H109.034Z" fill="#FF8000"/>
<path opacity="0.1" d="M117.456 6.59165H95.3506V9.73663H92.1932V29.6562H93.2471V10.7863H96.4044V7.64136H118.51V6.59165H117.456ZM111.137 28.6106H105.872V29.6603H112.187V13.9313H111.133V28.6106H111.137Z" fill="#FF8000"/>
<path d="M304.211 36.8884V35.8387H303.162V34.7931H302.108V33.7434H301.054V32.6937H300V0.190102H335.793V1.23981H336.843V2.28951H337.896V3.33508H338.95V4.38478H340V14.8694H330.528H331.582V15.9191H332.632V16.9688H333.685V22.2091H335.793V23.2588H336.843V24.3085H337.896V25.3541H338.95V26.4038H340V36.8884H304.211Z" fill="#2A3138"/>
<path d="M302.108 32.6937H303.162V33.7434H304.211V34.7931H305.265V35.8387H338.95V27.4535H337.896V26.4038H336.843V25.3541H335.793V24.3085H334.739V23.2588H332.632V18.0144H331.582V16.9688H330.528V15.9191H329.474V14.8694H328.425V13.8239H338.95V5.43449H337.896V4.38479H336.843V3.33508H335.793V2.28951H334.739V1.23981H301.054V31.6482H302.108V32.6937Z" fill="#0040FF"/>
<path d="M334.739 23.2588H315.791V19.0641H328.425V13.8239H315.791V9.62917H334.739V1.23981H301.054V31.6482H334.739V23.2588Z" fill="white"/>
<path d="M337.896 33.7434H336.843V32.6937H335.789V31.644H302.104V32.6937H303.158V33.7434H304.211V34.7931H305.265V35.8428H338.95V34.7931H337.896V33.7434ZM317.895 21.1594H318.948V22.2091H320.002V23.2588H332.632V22.2091H331.578V21.1594H330.524V20.1097H329.47V19.06H316.841V20.1097H317.895V21.1594ZM337.896 12.7742V11.7244H336.843V10.6747H335.789V9.62917H316.841V10.6789H317.895V11.7286H318.948V12.7783H320.002V13.828H338.95V12.7783H337.896V12.7742Z" fill="#0084FF"/>
<path d="M331.582 30.5985H333.685V24.3085H314.737V18.0144H327.371V14.8694H314.737V8.57947H333.685V2.28951H302.108V30.5985H331.582Z" fill="#FFE100"/>
<path d="M302.108 2.28951V30.5985H303.162V3.33508H333.69V2.28951H302.108ZM315.791 25.3541H333.685V24.3044H315.791V25.3541ZM327.371 14.8694H315.791V15.9191H327.371V14.8694Z" fill="#FF8000"/>
<path opacity="0.78" d="M316.845 26.4038H333.685V25.3541H316.845V26.4038ZM303.162 3.33508V30.5943H304.216V4.38479H333.69V3.33508H303.162ZM327.371 16.9688V15.9191H316.845V16.9688H327.371Z" fill="#FF8000"/>
<path opacity="0.55" d="M317.895 26.4038V27.4535H333.685V26.4038H317.895ZM327.371 16.9688H317.899V18.0185H327.371V16.9688ZM304.211 4.38479V30.5985H305.265V5.43449H333.685V4.38479H304.211Z" fill="#FF8000"/>
<path opacity="0.33" d="M305.265 5.43449V30.5985H306.319V6.4842H333.685V5.43449H305.265ZM318.948 28.4991H333.685V27.4493H318.948V28.4991Z" fill="#FF8000"/>
<path opacity="0.1" d="M320.002 29.5488H333.685V28.4991H320.002V29.5488ZM306.319 6.4842V30.5985H307.373V7.52977H333.69V6.48006H306.319V6.4842Z" fill="#FF8000"/>
<path d="M237.181 36.8884V35.8387H236.128V34.7931H235.074V36.8884H218.233V35.8387H217.179V34.7931H216.126V33.7434H215.076V32.6937H214.022V12.7742H217.179V9.62917H220.337V6.48419H223.494V3.33508H226.651V0.190102H249.811V1.23981H250.865V2.28951H251.914V3.33508H252.968V4.38478H254.022V36.8884H237.181Z" fill="#2A3138"/>
<path d="M234.02 35.8387V31.6482H235.074V32.6937H236.128V33.7434H237.181V34.7931H238.231V35.8387H252.968V5.43449H251.914V4.38479H250.865V3.33508H249.811V2.28951H248.757V1.23981H227.705V4.38479H224.548V7.52977H221.391V10.6747H218.233V13.8197H215.076V31.6482H216.126V32.6937H217.179V33.7434H218.233V34.7931H219.283V35.8387H234.02Z" fill="#0040FF"/>
<path d="M227.705 1.23981V4.38479H224.548V7.52977H221.391V10.6747H218.233V13.8197H215.076V31.644H229.813V25.3541H234.024V31.644H248.761V1.23981H227.705ZM234.02 20.1138H229.809V15.9191H232.966V12.7742H234.02V20.1138Z" fill="white"/>
<path d="M230.863 26.4038H231.916V27.4535H232.97V28.5032H234.024V25.3582H230.867V26.4038H230.863ZM230.863 16.9688H231.916V18.0185H232.97V19.0682H234.024V15.9233H230.867V16.9688H230.863ZM232.97 33.7434H231.916V32.6937H230.863V31.644H216.126V32.6937H217.179V33.7434H218.233V34.7931H219.287V35.8428H234.024V34.7931H232.97V33.7434ZM251.914 34.7931V33.7434H250.86V32.6937H249.807V31.644H235.07V32.6937H236.123V33.7434H237.177V34.7931H238.231V35.8428H252.968V34.7931H251.914Z" fill="#0084FF"/>
<path d="M226.651 30.5985H228.755V24.3085H235.07V30.5985H247.699V2.28951H228.751V5.43449H225.593V8.57947H222.436V11.7245H219.279V14.8694H216.121V30.5985H226.651ZM228.759 20.1138V14.8694H231.916V11.7245H235.074V21.1594H228.759V20.1138Z" fill="#FFE100"/>
<path opacity="0.78" d="M236.128 22.2091H230.863V23.2588H237.177V13.8197H236.123V22.2091H236.128ZM236.128 30.5985H237.181V26.4038H236.128V30.5985ZM229.813 3.33508V6.48006H226.656V9.62504H223.498V12.77H220.341V15.915H217.184V30.5943H218.233V16.9688H221.391V13.8239H224.548V10.6789H227.705V7.5339H230.863V4.38892H247.703V3.33508H229.813Z" fill="#FF8000"/>
<path opacity="0.55" d="M230.863 4.38479V7.52977H227.705V10.6747H224.548V13.8197H221.391V16.9647H218.233V30.5943H219.287V18.0144H222.444V14.8694H225.602V11.7245H228.759V8.57947H231.916V5.43449H247.707V4.38479H230.863ZM237.181 30.5985H238.235V27.4535H237.181V30.5985ZM237.181 23.2588H231.916V24.3085H238.231V14.8694H237.177V23.2588H237.181Z" fill="#FF8000"/>
<path opacity="0.33" d="M238.231 30.5985H239.285V28.5032H238.231V30.5985ZM231.916 5.43449V8.57947H228.759V11.7245H225.602V14.8694H222.444V18.0144H219.287V30.5943H220.341V19.0641H223.498V15.9191H226.656V12.7742H229.813V9.62918H232.97V6.4842H247.707V5.43449H231.916ZM238.231 24.3085H235.074V25.3582H239.285V15.9191H238.231V24.3085Z" fill="#FF8000"/>
<path opacity="0.1" d="M239.285 30.5985H240.339V29.5488H239.285V30.5985ZM232.97 6.4842V9.62918H229.813V12.7742H226.656V15.9191H223.498V19.0641H220.341V30.5985H221.395V20.1138H224.552V16.9688H227.709V13.8239H230.867V10.6789H234.024V7.5339H247.707V6.4842H232.97ZM239.285 25.3541H236.128V26.4038H240.339V16.9688H239.285V25.3541Z" fill="#FF8000"/>
<path d="M228.759 2.28951V5.43449H225.602V8.57947H222.444V11.7245H219.287V14.8694H216.13V30.5985H217.184V15.9191H220.341V12.7742H223.498V9.62917H226.656V6.4842H229.813V3.33508H247.707V2.28951H228.759ZM235.074 21.1594H229.809V22.2091H236.123V12.7742H235.07V21.1594H235.074ZM235.074 26.4038V30.5985H236.128V25.3541H235.074V26.4038Z" fill="#FF8000"/>
<path d="M66.2624 36.6983V35.6486H65.2086V34.5989H64.1548V36.6983H47.3143V35.6486H46.2605V34.5989H45.2108V33.5533H44.157V32.5036H43.1031V0H59.9478V1.0497H60.9975V2.09528H62.0513V3.14498V0H78.8918V1.0497H79.9456V2.09528H80.9994V3.14498H82.0491V4.19468H83.1029V36.6983H66.2624Z" fill="#2A3138"/>
<path d="M82.0491 35.6486V5.24439H80.9994V4.19468H79.9456V3.14498H78.8918V2.09528H77.8421V1.04971H63.1051V5.24439H62.0513V4.19468H60.9975V3.14498H59.9478V2.09528H58.894V1.04971H44.157V31.4539H45.2108V32.5036H46.2605V33.5533H47.3143V34.5989H48.3681V35.6486H63.1051V31.4539H64.1548V32.5036H65.2086V33.5533H66.2624V34.5989H67.3163V35.6486H82.0491Z" fill="#0040FF"/>
<path d="M77.8421 31.4539V1.04971H63.1051V13.6296H58.894V1.04971H44.157V31.4539H58.894V18.874H63.1051V31.4539H77.8421Z" fill="white"/>
<path d="M59.9478 19.9196H61.0016V20.9693H62.0554V22.019H63.1093V18.874H59.9519V19.9196H59.9478ZM80.9994 34.5989V33.5492H79.9456V32.4995H78.8918V31.4498H64.1548V32.4995H65.2086V33.5492H66.2624V34.5989H67.3163V35.6486H82.0532V34.5989H80.9994ZM62.0513 33.5533H60.9975V32.5036H59.9436V31.4539H45.2067V32.5036H46.2605V33.5533H47.3143V34.603H48.3681V35.6527H63.1051V34.603H62.0513V33.5533Z" fill="#0084FF"/>
<path d="M71.5233 30.4084H76.7883V2.09528H64.1548V14.6793H57.8401V2.09528H45.2108V30.4084H57.8401V17.8243H64.1548V30.4084H71.5233Z" fill="#FFE100"/>
<path opacity="0.78" d="M46.2605 30.4084H47.3143V4.19469H57.8401V3.14498H46.2605V30.4084ZM65.2086 3.14498V15.7249H59.9436V16.7746H66.2583V4.19469H76.7841V3.14498H65.2086ZM65.2086 30.4084H66.2625V19.9196H65.2086V30.4084Z" fill="#FF8000"/>
<path opacity="0.55" d="M47.3143 30.4084H48.3682V5.24439H57.8401V4.19469H47.3143V30.4084ZM66.2625 4.19469V16.7746H60.9975V17.8243H67.3121V5.24439H76.7841V4.19469H66.2625ZM66.2625 30.4084H67.3163V20.9693H66.2625V30.4084Z" fill="#FF8000"/>
<path d="M45.2108 30.4084H46.2646V3.14498H57.8443V2.09528H45.215V30.4084H45.2108ZM64.1548 2.09528V14.6752H58.8898V15.7249H65.2045V3.14498H76.7841V2.09528H64.1548ZM64.1548 19.9196V30.4042H65.2086V18.874H64.1548V19.9196Z" fill="#FF8000"/>
<path opacity="0.33" d="M67.3163 30.4084H68.3701V22.019H67.3163V30.4084ZM48.3682 30.4084H49.422V6.28996H57.8443V5.24026H48.3723V30.4084H48.3682ZM67.3163 5.24439V17.8243H64.159V18.874H68.3701V6.28996H76.7924V5.24026H67.3163V5.24439Z" fill="#FF8000"/>
<path opacity="0.1" d="M68.366 6.28996V18.8699H65.2086V19.9196H69.4198V7.33967H76.7883V6.28996H68.366ZM49.422 30.4084H50.4758V7.33967H57.8443V6.28996H49.422V30.4084ZM68.366 30.4084H69.4198V23.0687H68.366V30.4084Z" fill="#FF8000"/>
<path d="M178.648 36.7768V35.7271H177.595V34.6816H176.541V33.6319H175.491V32.5821H174.437V31.5366H173.383V30.4869H172.334V29.4372H171.28V3.22763H174.437V0.0785217H207.069V1.12823H208.122V2.17793H209.172V3.22763H210.226V4.27321H211.28V14.7578H192.332V22.0975H207.069V23.1472H208.122V24.1969H209.172V25.2425H210.226V26.2922H211.28V36.7768H178.648Z" fill="#2A3138"/>
<path d="M173.383 29.4372H174.437V30.4869H175.491V31.5366H176.541V32.5822H177.595V33.6319H178.648V34.6816H179.702V35.7271H210.226V27.3419H209.172V26.2922H208.122V25.2425H207.069V24.1969H206.015V23.1472H191.278V13.7123H210.226V5.32291H209.172V4.27321H208.122V3.22764H207.069V2.17793H206.015V1.12823H175.491V4.27321H172.334V28.3916H173.383V29.4372Z" fill="#0040FF"/>
<path d="M206.015 9.51759V1.12823H175.491V4.27321H172.334V28.3916H175.491V31.5366H206.015V23.1472H187.071V9.51759H206.015Z" fill="white"/>
<path d="M209.172 33.6319H208.118V32.5822H207.064V31.5324H176.537V32.5822H177.59V33.6319H178.644V34.6816H179.698V35.7313H210.226V34.6816H209.172V33.6319ZM173.383 29.4372H174.437V30.4869H175.491V28.3916H173.388V29.4372H173.383ZM209.172 12.6626V11.6129H208.118V10.5632H207.064V9.51346H188.116V10.5632H189.17V11.6129H190.224V12.6626H191.278V13.7123H210.226V12.6626H209.172Z" fill="#0084FF"/>
<path d="M202.857 30.4869H204.965V24.1969H186.017V8.46789H204.965V2.17793H176.541V5.32291H173.383V27.3419H176.541V30.4869H202.857Z" fill="#FFE100"/>
<path d="M176.541 2.17793V5.32291H173.383V27.3419H174.437V6.37262H177.595V3.22764H204.961V2.17793H176.541ZM187.071 25.2425H204.965V24.1928H187.071V25.2425ZM176.541 29.4372V30.4869H177.595V28.3916H176.541V29.4372Z" fill="#FF8000"/>
<path opacity="0.55" d="M178.648 4.27321V7.41819H175.491V27.3378H176.545V8.46789H179.702V5.32291H204.965V4.27321H178.648ZM189.174 26.2922V27.3419H204.965V26.2922H189.174Z" fill="#FF8000"/>
<path opacity="0.78" d="M188.12 26.2922H204.961V25.2425H188.12V26.2922ZM177.595 3.22764V6.37262H174.437V27.3419H175.491V7.42232H178.648V4.27734H204.965V3.22764H177.595ZM177.595 30.4869H178.648V29.4372H177.595V30.4869Z" fill="#FF8000"/>
<path opacity="0.33" d="M190.228 28.3916H204.965V27.3419H190.228V28.3916ZM179.702 5.32291V8.46789H176.545V28.3875H177.599V9.5176H180.756V6.37262H204.965V5.32291H179.702Z" fill="#FF8000"/>
<path opacity="0.1" d="M180.752 6.37262V9.5176H177.595V29.4372H178.648V10.5673H181.806V7.42232H204.965V6.37262H180.752ZM191.278 29.4372H204.961V28.3916H191.278V29.4372Z" fill="#FF8000"/>
</g>
<defs>
<clipPath id="clip0_17_4052">
<rect width="340" height="37" fill="white"/>
</clipPath>
</defs>
</svg>
