<svg width="1512" height="129" viewBox="0 0 1512 129" fill="none" xmlns="http://www.w3.org/2000/svg" shape-rendering="crispEdges" preserveAspectRatio="none">
<path d="M1479.64 7.73009C1474.18 2.9962 1467.2 0.389893 1459.98 0.389893H54.0246C46.8012 0.389893 39.8203 2.99621 34.3642 7.73009L-34.3066 67.3113C-55.2767 85.5057 -42.409 119.971 -14.6461 119.971H1528.65C1556.41 119.971 1569.28 85.5057 1548.31 67.3113L1479.64 7.73009Z" fill="#A19DA0"/>
<path d="M1506 120H6C2.68629 120 0 122.686 0 126C0 129.314 2.68627 132 5.99998 132H1506C1509.31 132 1512 129.314 1512 126C1512 122.686 1509.31 120 1506 120Z" fill="#6F6F6F"/>
<path opacity="0.6" d="M755.936 163.44C1173.43 163.44 1511.87 139.151 1511.87 109.188C1511.87 79.2254 1173.43 54.9357 755.936 54.9357C338.444 54.9357 0 79.2254 0 109.188C0 139.151 338.444 163.44 755.936 163.44Z" fill="url(#paint0_radial_12_323)"/>
<defs>
<radialGradient id="paint0_radial_12_323" cx="0" cy="0" r="1" gradientUnits="userSpaceOnUse" gradientTransform="translate(755.938 113.723) scale(739.709 50.0996)">
<stop stop-color="white"/>
<stop offset="0.0497" stop-color="white" stop-opacity="0.9503"/>
<stop offset="1" stop-color="white" stop-opacity="0"/>
</radialGradient>
</defs>
</svg>
